<svg width="20" height="20" viewBox="0 0 20 20" fill="none" xmlns="http://www.w3.org/2000/svg">
	<path d="M9.99976 2C13.8657 2.00004 16.9998 5.13403 16.9998 9C16.9998 12.2484 14.2319 15.321 11.8318 16.4961L12.4294 17.8398C12.4763 17.9452 12.4997 18.0595 12.4998 18.1748C12.4998 18.6303 12.1309 18.9998 11.6755 19H8.32495C7.8694 18.9999 7.49976 18.6304 7.49976 18.1748C7.49979 18.0595 7.5242 17.9452 7.57104 17.8398L8.16772 16.4961C5.76767 15.3208 2.99976 12.2482 2.99976 9C2.99976 5.13412 6.13391 2.00018 9.99976 2ZM9.73511 5.10254C9.65367 4.69662 9.25831 4.43344 8.85229 4.51465C8.04997 4.67525 7.29803 5.14118 6.71948 5.71973C6.14093 6.29829 5.67498 7.05019 5.5144 7.85254C5.43321 8.25853 5.69642 8.65388 6.10229 8.73535C6.50834 8.81656 6.90371 8.55342 6.98511 8.14746C7.0746 7.7 7.35873 7.20159 7.78003 6.78027C8.20132 6.35898 8.69977 6.07488 9.14722 5.98535C9.55317 5.90395 9.81632 5.50858 9.73511 5.10254Z" fill="currentColor"/>
</svg>