<svg xmlns="http://www.w3.org/2000/svg" width="514" height="56" viewBox="0 0 514 56" aria-hidden="true"><path fill-rule="evenodd" d="M479.8 44.4q-2 0-3-1.2a4 4 0 0 1-1.3-3V16.4q0-2 1.2-3 1.2-1.3 3-1.3h14.8q1.6 0 2.8 1 1 1.2 1.1 2.8 0 1.6-1.1 2.7-1.1 1-2.8 1H484v4.5h6.8q1.5 0 2.5 1t1 2.6-1 2.5-2.5 1H484v5.6h11.2q1.6 0 2.8 1.1 1 1 1 2.7 0 1.6-1 2.7-1.1 1.1-2.8 1.1zM457 11.5a4 4 0 0 1 3 1.3q1.2 1.2 1.2 3v25A4 4 0 0 1 457 45a4 4 0 0 1-4.2-4.3V29.4l-4.2 6.7q-.9 1.5-1.8 2t-2 .6-2.1-.6q-.9-.5-1.8-2l-4.2-6.7v11.3a4 4 0 0 1-4.2 4.3 4 4 0 0 1-4.2-4.3V16q0-2 1.2-3.1a4 4 0 0 1 3-1.3q1.3 0 2.3.7 1 .8 2 2.4l8 12.8 8-12.8a8 8 0 0 1 2-2.4q.9-.7 2.2-.7m-58.7 0q4.7 0 8.8 2.2 4 2.3 6.3 6.1a16 16 0 0 1 2.3 8.5q0 4.6-2.3 8.4a18 18 0 0 1-15.1 8.3 18 18 0 0 1-15.1-8.3 16 16 0 0 1-2.3-8.4q0-4.7 2.3-8.5 2.3-3.9 6.3-6 4-2.3 8.8-2.3m0 7.8q-3.9 0-6.4 2.5a9 9 0 0 0-2.4 6.5 9 9 0 0 0 2.4 6.5 9 9 0 0 0 6.4 2.5A9 9 0 0 0 403 36a8 8 0 0 0 3-3.2q1.2-2.1 1.2-4.6 0-2.7-1.1-4.7a8 8 0 0 0-3.1-3.2 9 9 0 0 0-4.6-1.1M358.2 45a17 17 0 0 1-5.6-1q-2.8-1-4.6-2.6t-1.7-3.4q0-1.6 1.2-2.7 1-1 2.6-1 1 0 1.9.6l1.1.8q.9.8 2.2 1.3t2.9.6q3.3 0 3.3-2.3 0-1.1-.7-1.7t-2.6-1.3l-3.3-1.5a17 17 0 0 1-6.1-4.1 8 8 0 0 1-2-5.6q0-3 1.4-5 1.5-2.2 4.1-3.4t5.9-1.2q3.6 0 5.8 1.2a11 11 0 0 1 3.2 2.5q1 1.2 1 2.5 0 1.6-1.1 2.7-1.2 1-2.7 1.1-1.1 0-2.1-.7l-1-.8-1.4-.8q-.7-.3-1.8-.3-1.4 0-2 .5-.9.6-.9 1.6t.6 1.4q.7.6 2.2 1.2l3.7 1.6q4.3 1.8 6.3 4t2 5.7a9 9 0 0 1-5.8 8.9q-2.7 1.2-6 1.2m-42.6-.6q-1.8 0-3-1.2a4 4 0 0 1-1.3-3V16.4q0-2 1.2-3 1.3-1.3 3-1.3h14.9q1.6 0 2.7 1 1.1 1.2 1.1 2.8t-1 2.7q-1.2 1-2.8 1h-10.7v4.5h6.8q1.6 0 2.5 1 1 1 1 2.6 0 1.5-1 2.5t-2.5 1h-6.8v5.6H331q1.6 0 2.7 1.1 1.1 1 1.1 2.7 0 1.6-1 2.7-1.2 1.1-2.8 1.1zm-20.9-32.9a4 4 0 0 1 3 1.2 4 4 0 0 1 1.2 3q0 .7-.4 1.8L289 42.2q-.6 1.4-1.5 2a4 4 0 0 1-2.5.8 4 4 0 0 1-3.8-2.8l-5.8-15.6-5.7 15.6q-.5 1.4-1.5 2a4 4 0 0 1-2.3.8 4 4 0 0 1-2.5-.7 4 4 0 0 1-1.5-2.1l-9.5-24.7q-.4-1-.4-1.9 0-1.5 1.2-2.9a4 4 0 0 1 3-1.2q1.4 0 2.4.7t1.4 2l5.9 16 5.4-15.5q.5-1.5 1.6-2.4t2.5-.8 2.6.8q1 .9 1.6 2.4l5.4 15.6 5.8-16q.5-1.4 1.5-2a4 4 0 0 1 2.4-.8m-50 27.4q.4 1 .4 2 0 1.8-1.2 3a4 4 0 0 1-3 1.1q-2.7 0-4-3l-.6-1.7h-11.6l-.6 1.7q-1.2 3-4 3a4 4 0 0 1-3-1.2 4 4 0 0 1-1.2-2.8q0-1 .5-2l10.1-24.7q1.1-2.8 4-2.8 3 0 4 2.8zm-17.5-5.4h6.6l-3.3-9.4Zm-59-21.4q5.2 0 9.2 2a15 15 0 0 1 8.5 14q0 4.8-2.3 8.5a16 16 0 0 1-6.2 5.7q-4.1 2.1-9.1 2.1h-7q-2 0-3-1.2a4 4 0 0 1-1.3-3V16.4q0-2 1.2-3 1.2-1.3 3-1.3zm-2.8 7.6v17.1h2.8q4 0 6.6-2.3a8 8 0 0 0 2.5-6.3 8 8 0 0 0-2.5-6.2 9 9 0 0 0-6.6-2.3Zm-38.1 24.7q-1.8 0-3-1.2a4 4 0 0 1-1.3-3V15.8q0-1.8 1.2-3a4 4 0 0 1 3-1.3 4 4 0 0 1 4.2 4.3v21h10q1.8 0 2.8 1.1 1 1 1.1 2.7a3.6 3.6 0 0 1-3.8 3.8zm-22.7.6a4 4 0 0 1-4.2-4.3v-25q0-1.8 1.2-3a4 4 0 0 1 3-1.2 4 4 0 0 1 4.2 4.3v25q0 1.8-1.2 3a4 4 0 0 1-3 1.2m-32.5 0a15 15 0 0 1-7.4-1.8 13 13 0 0 1-5.1-5 15 15 0 0 1-1.8-7.5v-15a4 4 0 0 1 4.2-4.2 4 4 0 0 1 4.2 4.3v15.5q0 2.7 1.6 4.4 1.5 1.5 4.3 1.6 2.7 0 4.3-1.6t1.5-4.4V15.8q0-2 1.2-3a4 4 0 0 1 3-1.3 4 4 0 0 1 4.2 4.3v15a15 15 0 0 1-1.7 7.3 13 13 0 0 1-5.1 5A15 15 0 0 1 72 45M40.2 27q2.5 1.2 4 3.1t1.4 4.7a9 9 0 0 1-1.4 5 10 10 0 0 1-4 3.4q-2.4 1.2-5.5 1.2H23.9q-1.9 0-3-1.2a4 4 0 0 1-1.3-3V16.4q0-2 1.2-3 1.3-1.3 3-1.3h7.4q3.2 0 5.7 1.2 2.5 1.3 3.9 3.4a9 9 0 0 1 1.4 5q0 3.2-2 5.4m-12.5-7.8V25h3q1.5 0 2.4-.8t.8-2-.8-2.1-2.4-.8Zm6.3 18q1.6 0 2.4-.7.9-.7.9-2.1t-.9-2.1q-.7-.8-2.4-.8h-6.4v5.7z" fill="currentColor"/></svg>