<svg width="300" height="109" viewBox="0 0 300 109" fill="none" xmlns="http://www.w3.org/2000/svg">
<path d="M15.6836 72.2891C17.7362 72.2891 19.2096 73.3417 19.999 75.2891L30.8936 101.762C31.2093 102.551 31.3672 103.341 31.3672 103.973C31.367 106.446 29.4723 108.288 26.8936 108.288C24.9465 108.288 23.4729 107.183 22.6309 105.025L21.8936 103.183H9.47266L8.73633 105.025C7.89428 107.183 6.42065 108.288 4.47363 108.288C1.89484 108.288 0.000153135 106.446 0 103.973C1.10426e-07 103.341 0.157849 102.551 0.473633 101.762L11.3682 75.2891C12.1576 73.3417 13.631 72.2891 15.6836 72.2891ZM82.8643 72.2891C85.3377 72.2893 87.3896 74.2891 87.3896 76.71C87.3896 77.3941 87.2318 77.9733 86.916 78.7627L76.6533 105.235C75.9165 107.235 74.4432 108.288 72.4434 108.288C70.496 108.288 69.022 107.235 68.2852 105.235L62.1279 88.5518L55.9697 105.235C55.2329 107.235 53.7589 108.288 51.8115 108.288C49.8117 108.288 48.3383 107.235 47.6016 105.235L37.3389 78.7627C36.9705 77.9207 36.8653 77.3414 36.8652 76.71C36.8652 74.2891 38.9172 72.2893 41.3906 72.2891C43.338 72.2891 44.9173 73.3414 45.5488 75.1309L51.8643 92.4463L57.6543 75.71C58.4438 73.4995 60.0227 72.2891 62.1279 72.2891C64.2329 72.2892 65.8112 73.4996 66.6006 75.71L72.3906 92.4463L78.6533 75.2891C79.3375 73.3944 80.9169 72.2891 82.8643 72.2891ZM149.779 72.2891C155.884 72.2364 158.832 75.2891 159.674 76.2891C160.463 77.1837 160.727 78.1306 160.727 78.9727C160.727 81.2884 158.674 83.0254 156.674 83.0254C155.937 83.0253 155.148 82.8151 154.358 82.2363C154.131 82.0816 153.91 81.9101 153.685 81.7354C152.758 81.0183 151.747 80.2363 149.885 80.2363C148.095 80.2363 146.779 80.8675 146.779 82.4463C146.779 83.762 147.622 84.3934 149.779 85.2881L153.779 86.9727C159.569 89.3937 162.674 92.3411 162.674 97.4463C162.674 104.288 157.095 108.288 149.938 108.288C146.096 108.288 141.517 106.762 139.043 104.446C137.885 103.341 137.201 102.13 137.201 100.762C137.254 98.341 139.201 96.7619 141.253 96.7617C141.937 96.7617 142.674 96.9726 143.306 97.3936C143.439 97.4822 143.613 97.6243 143.826 97.7998C144.881 98.6664 146.918 100.341 149.938 100.341C152.358 100.341 153.517 99.4986 153.517 97.8145C153.517 96.1831 152.411 95.657 149.99 94.6045L146.411 93.0254C140.885 90.6044 137.622 87.4464 137.622 82.5518C137.622 76.3414 142.885 72.2891 149.779 72.2891ZM191.999 72.2891C202.525 72.2891 210.789 80.2358 210.789 90.2881C210.789 100.393 202.525 108.288 191.999 108.288C181.473 108.288 173.315 100.393 173.315 90.2881C173.316 80.1833 181.526 72.2893 191.999 72.2891ZM253.676 72.2891C256.307 72.2892 258.201 74.2887 258.201 76.9727V103.709C258.201 106.34 256.254 108.288 253.676 108.288C251.097 108.288 249.149 106.341 249.149 103.709V91.5518L244.623 98.7617C243.36 100.762 242.202 101.552 240.518 101.552C238.834 101.552 237.676 100.762 236.413 98.7617L231.887 91.5518V103.709C231.887 106.34 229.939 108.288 227.36 108.288C224.781 108.288 222.834 106.341 222.834 103.709V76.9727C222.834 74.2886 224.729 72.2891 227.36 72.2891C229.202 72.2891 230.466 73.1836 231.939 75.6045L240.518 89.3936L249.097 75.6045C250.57 73.1835 251.834 72.2891 253.676 72.2891ZM119.659 72.9199C122.08 72.9199 123.817 74.657 123.817 76.9727C123.817 79.341 122.028 81.0781 119.659 81.0781H108.238V85.8672H115.501C117.711 85.8672 119.344 87.4994 119.344 89.6572C119.344 91.8149 117.711 93.4463 115.501 93.4463H108.238V99.499H120.291C122.712 99.4991 124.448 101.236 124.448 103.552C124.448 105.92 122.659 107.656 120.291 107.656H103.765C101.133 107.656 99.1858 105.709 99.1855 103.078V77.499C99.1856 74.8677 101.133 72.92 103.765 72.9199H119.659ZM294.3 72.9199C296.721 72.9199 298.458 74.6571 298.458 76.9727C298.458 79.341 296.668 81.0781 294.3 81.0781H282.879V85.8672H290.143C292.353 85.8673 293.984 87.4995 293.984 89.6572C293.984 91.8148 292.353 93.4461 290.143 93.4463H282.879V99.499H294.932C297.353 99.499 299.09 101.236 299.09 103.552C299.09 105.92 297.3 107.656 294.932 107.656H278.405C275.774 107.656 273.827 105.709 273.827 103.078V77.499C273.827 74.8677 275.774 72.9201 278.405 72.9199H294.3ZM192.052 80.6045C186.421 80.6046 182.578 84.5516 182.578 90.2881C182.578 96.0773 186.368 99.9725 192.052 99.9727C197.631 99.9727 201.525 95.9722 201.525 90.2881C201.525 84.6568 197.578 80.6045 192.052 80.6045ZM12.1572 95.9199H19.21L15.6836 85.7617L12.1572 95.9199ZM131.097 0C133.743 0 135.741 1.99828 135.741 4.69824V21.168C135.741 30.456 129.261 36.9355 119.973 36.9355C110.685 36.9354 104.205 30.4559 104.205 21.168V4.69824C104.205 1.99839 106.203 0.000161788 108.849 0C111.495 0 113.493 1.99828 113.493 4.69824V21.8701C113.493 25.812 116.031 28.4042 119.973 28.4043C123.915 28.4043 126.453 25.8121 126.453 21.8701V4.69824C126.453 1.99838 128.397 0.000135502 131.097 0ZM153.724 0C156.423 0.000231459 158.367 1.99844 158.367 4.69824V32.2383C158.367 34.938 156.423 36.9353 153.724 36.9355C151.024 36.9355 149.079 34.9381 149.079 32.2383V4.69824C149.079 1.99834 151.024 9.03391e-05 153.724 0ZM77.0938 0.648438C84.1136 0.648438 89.1355 5.02192 89.1357 11.1777C89.1357 13.5536 88.3804 15.6059 86.9766 17.1719C90.7024 18.6839 92.916 21.6542 92.916 25.7041C92.916 31.8601 87.84 36.2881 80.874 36.2881H68.9404C66.2405 36.288 64.2422 34.2898 64.2422 31.5898V5.3457C64.2424 2.64596 66.2407 0.648528 68.9404 0.648438H77.0938ZM176.498 0C179.198 0 181.143 1.99828 181.143 4.69824V27.918H192.212C194.642 27.918 196.424 29.7 196.424 32.1299C196.424 34.5599 194.642 36.2881 192.212 36.2881H176.552C173.852 36.2878 171.854 34.2896 171.854 31.5898V4.69824C171.855 2.26837 173.798 0.00017517 176.498 0ZM219.6 0.648438C231.102 0.648438 239.04 7.8844 239.04 18.3604C239.04 28.8362 230.939 36.2881 219.6 36.2881H211.878C209.178 36.288 207.18 34.2898 207.18 31.5898V5.3457C207.18 2.64596 209.178 0.648528 211.878 0.648438H219.6ZM73.1523 28.458H80.2803C82.5482 28.458 83.8437 27.324 83.8438 25.3262C83.8437 23.3283 82.5482 22.1944 80.2803 22.1943H73.1523V28.458ZM216.468 27.918H219.546C225.54 27.9179 229.536 24.0841 229.536 18.3604C229.536 12.5824 225.756 9.0723 219.546 9.07227H216.468V27.918ZM73.1523 14.7422H76.5C78.6599 14.7422 80.0643 13.5541 80.0645 11.6104C80.0644 9.6664 78.66 8.47754 76.5 8.47754H73.1523V14.7422Z" fill="#fff"/>
</svg>