<svg xmlns="http://www.w3.org/2000/svg" fill="none" height="2125" width="790" viewBox="215 80 630 2125"><path fill="lightgrey" d="M605 1058.3c3.2 0 5.8 2.5 5.8 5.7v120a5.7 5.7 0 1 1-11.5 0v-120c0-3.2 2.5-5.7 5.7-5.7"/><path fill="#c3c6d1" d="M615.5 1668.8s-37 62.7-13.5 120.8 34.1 25.5 28.9 10.4c0 0 43.4 83.4 40.7 34.5 0 0 19.9 32.3 61 34l-5.9 9.5a35.5 35.5 0 0 0 11.2 49l81.7-129.8-30-19z"/><path fill="#8d9ab8" d="m615.5 1668.8-2.4-1.5a2.8 2.8 0 1 1 4.9 2.9l-.1.2-1.4 2.5q-1.5 2.7-3.8 7.8c-3 6.6-6.9 16.2-10 27.5-6.2 22.6-9.5 52.1 2 80.3a102 102 0 0 0 14.6 27.5 13 13 0 0 0 4.6 3.8q1.4.4 2 0 .8-.4 1.8-2.4t1.4-5c.6-3.8.2-8.2-.9-11.5a2.8 2.8 0 0 1 5.2-2.2l-2.5 1.3 2.5-1.3.1.2.4.7 6.2 11.2c4 7 9.3 15.9 14.5 23.1q3.9 5.5 7.3 9.2 3.6 3.6 5.2 3.9h.3l.2-.2.4-.8c.7-1.8 1.1-5.3.8-11.4a2.8 2.8 0 0 1 5.3-1.6l.1.3.7 1 2.7 3.5a74 74 0 0 0 55.2 28 2.8 2.8 0 0 1 2 4.8c-15.4 15.7-13.3 41.6 5 53.1a2.8 2.8 0 1 1-3 4.8 40 40 0 0 1-9.8-57.5 80 80 0 0 1-52.6-28.2 20 20 0 0 1-1.1 5.3q-.8 2.4-3 3.8a6 6 0 0 1-4.6.6c-2.7-.7-5.4-3-7.8-5.5a88 88 0 0 1-8-9.8 291 291 0 0 1-14.7-23.6l-.5-.7v.4a23 23 0 0 1-1.9 6.5q-1.4 3.1-4.2 4.9a8 8 0 0 1-6.8.3q-3.3-1.4-6.8-5.3a110 110 0 0 1-15.6-29c-12-29.9-8.5-60.8-2.1-84a191 191 0 0 1 15.8-39.3zm119.9 225.6a2.8 2.8 0 1 1 4.8 3 7 7 0 0 0 2.2 10l5.5 3.3a2.8 2.8 0 0 1-3 4.8l-5.5-3.4c-6-3.8-7.8-11.7-4-17.7m9.1-14.5a2.8 2.8 0 0 1 4.8 3 7 7 0 0 0 2.3 10l5.4 3.3a2.8 2.8 0 0 1-3 4.8l-5.5-3.4c-6-3.8-7.7-11.7-4-17.7"/><path fill="#c3c6d1" d="M569.4 2155.1a28 28 0 0 0 9.3-15.5l1.2-7.4 22.3-134 1.3-7.5-116.7 5.7 2 7.3 35.2 131.2 2 7.3a28 28 0 0 0 10.8 14.5 26 26 0 0 0 16.6 5.4q8.7-.6 16-7"/><path fill="#00a776" d="m485.7 1979.5 15.7 103.8 92.3-.7 19.3-99.5z"/><path fill="#008f65" d="M501.8 2086.1a3 3 0 0 0 2.4-3.2L488.5 1979a2.8 2.8 0 1 0-5.6.8l15.7 103.8a3 3 0 0 0 3.2 2.4m91.5-.7c1.5.3 3-.8 3.2-2.3l16.3-97a2.8 2.8 0 1 0-5.6-1l-16.2 97c-.3 1.6.7 3 2.3 3.3"/><path fill="#fff" d="M599 2167.7a9 9 0 0 0 2.7-6.2q0-3.6-2.3-6.3l-3.5-4.2a673 673 0 0 0-18.6-21 35 35 0 0 0-55.2 5.6 675 675 0 0 0-13.5 23.1l-2.6 4.8a10 10 0 0 0-1 6.7 9 9 0 0 0 10.4 6.8 10 10 0 0 0 5.7-3.6l9.6-12.5c.4-.6 1.5 0 1.2.7l-.7 2.2v.1a83 83 0 0 0-3 21q0 3 1.4 5.5 1.5 2.6 4.2 3.4t5.3-.4 4.2-3.8l1.3-2a83 83 0 0 0 8.1-17v.1q.1-.3.4 0a80 80 0 0 0 7.3 17.5q1.4 2.5 3.9 4t5.3.9a8 8 0 0 0 4.4-3q1.7-2.5 1.8-5.4a82 82 0 0 0-2-25.2c-.2-1 1.1-1.8 2-1.1l10.8 9.5q2.7 2.3 6.3 2.3a9 9 0 0 0 6.2-2.5"/><path fill="#c3c6d1" d="M601.5 2170.1c2.3-2.2 3.5-5.3 3.6-8.5q0-4.6-2.7-8.2l-.4-.4a497 497 0 0 0-19.8-22.7l-2.4-2.6a38.2 38.2 0 0 0-60.6 6A669 669 0 0 0 503 2162a13 13 0 0 0-1.3 9l.1.6a12.3 12.3 0 0 0 14.2 8.8 13 13 0 0 0 7.8-4.8l2-2.6a88 88 0 0 0-1 12q0 3.7 1.8 7.3 2.1 3.5 6.2 4.9 4 1.1 7.8-.6 3.6-1.9 5.5-5a85 85 0 0 0 6.6-11.6 85 85 0 0 0 4.7 10q1.8 3.2 5.2 5.3l.5.2q3.4 1.8 7.2 1l.5-.1q3.8-1.1 6-4.3 2.1-3.2 2.3-6.6v-.4a91 91 0 0 0-.9-19.9l2 1.7 4.2 3.6a13 13 0 0 0 8.5 3.2q5 0 8.6-3.5m-3.2-8.7q0 2.3-1.6 3.9-1.6 1.5-3.8 1.5-2.4 0-4.1-1.5L578 2156c-3.3-3-8.3.1-7.5 4.2l.5 3.2a76 76 0 0 1 1.4 21.2 7 7 0 0 1-1.1 3.6q-1.1 1.4-2.5 1.7a4 4 0 0 1-2.7-.4l-.2-.1a7 7 0 0 1-2.5-2.8 72 72 0 0 1-7-16.7c-.6-2-2.6-3-4.3-2.5q-1.8.3-2.6 2.2a79 79 0 0 1-7.2 15.3l-.6 1-1.2 2q-1.2 1.7-2.8 2.5-1.5.7-2.8.3h-.1a4 4 0 0 1-2.2-1.7l-.1-.2a7 7 0 0 1-.9-3.7v-2.3q.5-9.1 2.9-17.8v-.1l.7-2.2a4 4 0 0 0-2-4.9 4 4 0 0 0-5.3 1.2l-9.5 12.4q-1.3 1.8-3.4 2.3h-.3q-2.2.5-4-.7t-2.4-3.4.7-4.3l1.3-2.5 1.3-2.3q6.5-11.7 13.4-23l.5-.9a32 32 0 0 1 33.6-13.2q9.2 2.3 15.7 9l2.4 2.6a665 665 0 0 1 19.6 22.4q1.6 1.9 1.5 4.1"/><path fill="#ffa5a5" d="M520.3 1072.4a66.5 66.5 0 0 1 78.2-31.3l3.7 1.1a63 63 0 0 1 39.2 83.7l-7.5 19.8a113 113 0 0 0-7 44.5l12.9 322.6 1.2 31.2c.4 9.5-3 18.7-9.8 25.5A37 37 0 0 1 605 1580a37 37 0 0 1-26.2-10.5 34 34 0 0 1-9.8-25.5l1.2-31.2 12.8-322.6c.7-20.9 5.7-41.4 14.4-60l9-19.2q3-5.7 3-12.5c0-10.7-7-21.7-17.8-26l-3.5-1.4a37.4 37.4 0 0 0-45.2 14.4l-7.5 11.8-16.7 26.3a11.3 11.3 0 0 1-15.1 3.8 11.3 11.3 0 0 1-4.3-15l14.5-27.7z"/><path fill="#ff8787" d="m638 1467.8.2 6.2-65.8-14.6.2-6.1zm-3.9-97.5-58.7 11.4.3-6.2 58.2-11.3zm-3-74.3h-52.3l.3-6h51.8zm-2.4-61.4-47.6 4.4.2-6 47.2-4.4zm5-88.3-2 5.7-36.6-16.7 2.3-5 .2-.5zm-3.7-85.9q2 2.3 3.8 4.8l-30.2 16.6a29 29 0 0 0-4.2-4.5zm-73.5 12.5q-2.7 1.4-5 3.3l-12.2-25.5 5-3.3z"/><path fill="#c3c6d1" d="m444.4 1964.5 162 27.3 144.1-217a156 156 0 1 0-285.7-97.5z"/><path fill="#00a776" d="M626.3 1991.7c2.2.2 4.4-1 5.5-3l85.9-152.7c1.3-2.4.9-5.3-1.2-7-18-14.6-104.2-77.7-261.5-88.7-3.2-.2-6 2.1-6.3 5.3L428 1970.4a6 6 0 0 0 5.4 6.4z"/><path fill="#008f65" d="M455.1 1737.5c158.1 11 244.9 74.5 263.1 89.3a8.3 8.3 0 0 1 2 10.6l-85.9 152.7a9 9 0 0 1-8.3 4.4l-192.7-14.9a8.7 8.7 0 0 1-8-9.5l20.6-224.8a8.7 8.7 0 0 1 9.2-7.8m-.3 5.6a3 3 0 0 0-3.3 2.8L431 1970.6a3 3 0 0 0 2.8 3.4l192.7 14.9a3 3 0 0 0 2.9-1.6l85.8-152.7q1-2.1-.5-3.4c-17.6-14.3-103.3-77.1-260-88.1"/><path fill="#c3c6d1" d="M671.8 2107a28 28 0 0 1-15.3-9.6l-4.5-6-80.4-109.6-4.4-6.1 106.6-47.6 1.5 7.4 27.8 133 1.6 7.4a28 28 0 0 1-3 17.8q-4.5 8.7-12.5 12.4a26 26 0 0 1-17.4 1"/><path fill="#00a776" d="m667.2 1912.6 32.8 99.7-82.7 41-62-80z"/><path fill="#008f65" d="M701 2015c-1.6.5-3.1-.3-3.6-1.8l-32.9-99.7c-.5-1.5.3-3 1.8-3.6 1.5-.5 3 .3 3.6 1.8l32.8 99.7c.5 1.5-.3 3-1.8 3.6m-82 40.6c-1.3 1-3 .7-4-.6l-58.2-79.3a2.8 2.8 0 0 1 4.5-3.3l58.3 79.3c1 1.2.7 3-.6 4"/><path fill="#fff" d="M651 2131.7q-3.4-1.2-5.2-4.3a10 10 0 0 1-.8-6.7 691 691 0 0 1 8.4-32.5 35 35 0 0 1 51.8-20 669 669 0 0 1 27 17.8 10 10 0 0 1 3.9 5.5 9 9 0 0 1-1 6.6 9 9 0 0 1-5.2 4.1q-3.5 1-6.8-.6l-5-2.3-9.2-4.6c-.6-.3-1.3.7-.8 1.2l1.7 1.7v.1a83 83 0 0 1 12.2 17.4q1.4 2.6 1.3 5.5-.4 3-2.2 5-2.1 1.8-5 2-3 0-5.5-1.5l-2-1.2a83 83 0 0 1-15-11.5h.1q-.3-.1-.3.2a80 80 0 0 1 1.3 19q0 2.8-1.6 5.3a8 8 0 0 1-4.4 3.2q-2.6.6-5.3-.8-2.5-1.4-4-4l-1.2-2a79 79 0 0 1-8.4-21.3c-.3-1-1.8-1.2-2.2-.1l-5.4 13.3q-1.4 3.3-4.6 5a9 9 0 0 1-6.6.5"/><path fill="#c3c6d1" d="M650 2135q-4.8-1.6-7.2-6a13 13 0 0 1-1.2-8.5l.1-.6a605 605 0 0 1 7.5-29.2l1-3.4a38 38 0 0 1 22.1-24.5 39 39 0 0 1 34.6 2.6 691 691 0 0 1 27.2 17.8 13 13 0 0 1 5.2 7.5 12.3 12.3 0 0 1-8.5 14.8q-4.7 1.3-9.1-.8l-3-1.4a88 88 0 0 1 6.3 10.3q1.7 3.1 1.6 7.2v.5q-.5 3.9-3.2 6.7-3 2.8-7.2 3h-.5a14 14 0 0 1-6.7-2 81 81 0 0 1-11.1-7.4 85 85 0 0 1 .2 11q0 3.8-2.2 7.2a11 11 0 0 1-6.3 4.5q-3.8 1-7.3-.7l-.5-.3a14 14 0 0 1-5.3-5.2 91 91 0 0 1-8.1-18.1l-3 7.5a13 13 0 0 1-5.7 6.4l-.6.3a12 12 0 0 1-9.2.7m-1.2-9.2a6 6 0 0 0 3.2 2.7q2 .6 4.1-.4a6 6 0 0 0 3-3.2l5.3-13.3c1.6-4.2 7.5-3.6 8.7.4l1 3a76 76 0 0 0 8.2 19.7 7 7 0 0 0 2.7 2.6q1.5.8 3 .5a4 4 0 0 0 2.2-1.6v-.2q1-1.5 1.1-3.6v-1.2a85 85 0 0 0-1.3-17c-.4-2 1-3.6 2.7-4.1q1.8-.4 3.3.8a79 79 0 0 0 16.3 12.3 7 7 0 0 0 3.6 1q1.8-.1 2.8-1.1a4 4 0 0 0 1.2-2.5v-.2a7 7 0 0 0-1-3.7l-1-2q-4.5-8.1-10.5-14.7h-.1l-1.6-1.7a4 4 0 0 1-.4-5.3 4 4 0 0 1 5.2-1.3l14 6.9q2.3 1 4.4.4a6 6 0 0 0 3.3-2.6q1.1-2 .6-4a6 6 0 0 0-2.6-3.7 476 476 0 0 0-26.8-17.6 32 32 0 0 0-36.8 2.9q-7.2 6.2-10 15.2a667 667 0 0 0-8.3 32.2q-.5 2.3.5 4.4"/><path fill="#193154" d="M343.9 1856.2c-9.1-16.2 0-40.1 21.3-52 21.2-11.9 46.4-7.2 55.5 9 9 16.3 6.7 52.4-14.5 64.3s-53.2-5-62.3-21.3"/><path fill="#001c40" d="M376.4 1824.3a3 3 0 0 1 4 1.1l20 35.4-3.4-28.8a3 3 0 1 1 6-.7l5 43.7v1l-.1.1v.1l-.1.2v.1l-.1.2-.3.4v.1l-.2.1-.2.3-.3.1-.2.2-.2.1h-.1l-.3.2H404v-.1h-.2l-.4-.3-.2-.1-34.7-27a3 3 0 1 1 3.7-4.8l22.9 17.9-19.9-35.5a3 3 0 0 1 1.2-4"/><path fill="#193154" d="M498.8 1822.1c9.3-16.1 34.6-20.4 55.6-8.3 21 12.2 30 36.2 20.7 52.3s-41.6 32.6-62.7 20.5c-21-12.2-22.9-48.4-13.6-64.5"/><path fill="#001c40" d="M543 1833.7a3 3 0 0 1 1 4.1l-20.3 35.2 23.2-17.6a3 3 0 1 1 3.6 4.8l-35 26.6-.2.1-.5.3h-.3l-.1.1h-1.7l-.2-.2h-.3v-.1l-.2-.1-.5-.5-.2-.2-.3-.5v-.1l-.1-.1v-.2l-.1-.1v-.4l-.1-.5v-.3l5.5-43.6a3 3 0 0 1 6 .8l-3.7 28.8 20.3-35.2a3 3 0 0 1 4.1-1"/><path fill="#fff" d="M479.4 2109.2A128 128 0 0 0 568 1953a127 127 0 0 0-154.7-91.1c-75.5 20.2-196.5 152.4-227.3 187-4.4 5-5 12.2-.9 17.4 21.5 26.6 100.6 99.5 294.4 42.9"/><path fill="#c3c6d1" d="M414.7 1861.5A127 127 0 0 1 568 1953a128 128 0 0 1-88.5 156.2l-2.2.6c-189.2 54.6-268.3-14.7-291.1-42.2l-1-1.3c-4.1-5-3.6-11.9.4-16.9l.4-.5c30.8-34.6 151.8-166.8 227.3-187zm0 6.2c-17.8 4.8-38.9 16.4-61.1 32a686 686 0 0 0-66.8 54.7c-43.3 39.7-81 81.3-96.4 98.5-2.8 3.2-2.8 7-.7 9.6 10.1 12.6 34.3 36.7 79.7 50.7 45.3 14 112.3 18.3 208.3-9.8a122 122 0 0 0 84.4-148.9 121 121 0 0 0-147.4-86.8"/><path fill="#c3c6d1" d="M410.7 1864.6a126 126 0 1 1 41.9 247.4 138.4 138.4 0 0 0 66-156.2v-.2l-.1-.3a67 67 0 0 0-115.8-25.5 73 73 0 0 0-37.9-42 126 126 0 0 1 46-23.2"/><path fill="#193154" d="M382.9 1965.2c-.9-10.6-9-18.6-18-17.9-9.2.8-16 10-15 20.5.8 10.7 8.9 18.7 18 18 9.1-.8 15.8-10 15-20.6M435 1978c3.6-10-.4-20.7-9-23.8s-18.5 2.4-22.2 12.4.4 20.6 9 23.8 18.5-2.4 22.2-12.4m10-41c4 1.7 8.4 5.3 9.9 12.6a3 3 0 1 1-6 1.2c-1-5-3.8-7.3-6.2-8.3a13 13 0 0 0-4.5-1h-.3a3 3 0 0 1-.3-6l.1 2.4-.1-2.5h.7a18 18 0 0 1 6.8 1.6"/><circle cx="188.8" cy="2056.6" r="37" fill="#ffa5a5" transform="rotate(-15 188.8 2056.6)"/><path fill="#193154" d="M471.5 1974.2a78.6 78.6 0 0 1-110.7 107.9l2-.6a156 156 0 0 0 35.7-14.7l7.4 4.3a7 7 0 0 0 8.8-1 7 7 0 0 0 2-7l-1.6-7q19.1-14.5 33-33.7l9.8 1c3.3.4 6.3-1.4 7.6-4.5q1.5-3.8-1-7.1l-5.3-7.2q7.6-14.5 12.3-30.4"/><path fill="#c3c6d1" d="M599.8 1684.6s30.6 74.4 97.3 92.5c66.8 18 45.2-13 28.4-18.5 0 0 102.4 17.4 57.6-12.9 0 0 41.7 4.1 70.7-31l4.4 11.5a39 39 0 0 0 50.5 22.9l-59.8-158.5-36.7 13.8z"/><path fill="#8d9ab8" d="m599.8 1684.6-2.6 1.1a2.8 2.8 0 1 1 5.2-2.1v.1l.3.6a96 96 0 0 0 5.4 10.9 205 205 0 0 0 17.6 27.2c15.8 20.6 39.6 43.1 72.2 52 16.6 4.4 27.4 5.8 34 5.3q4.9-.4 6.5-1.5 1.4-1 1.5-2a6 6 0 0 0-.9-3.3q-1.1-2.2-3.5-4.6a29 29 0 0 0-10.9-7 2.8 2.8 0 0 1 1.4-5.5l-.5 2.8.5-2.8h.3l.8.2a441 441 0 0 0 44 4.7q7.6.2 13.1-.4 5.6-.8 7-2l.4-.3v-.2l-.5-1.3c-1.2-2-4-4.7-9.6-8.4a2.8 2.8 0 0 1 1.9-5.2h.3a35 35 0 0 0 6.2 0q6.6.1 17-2.3a82 82 0 0 0 44.7-27.7q1.2-1.3 3-.9 1.6.5 2 2.3c3.7 24.1 28 39.7 50.6 31.2a2.8 2.8 0 0 1 2 5.3 43.7 43.7 0 0 1-57-30 88 88 0 0 1-60.7 27.8 23 23 0 0 1 4.4 4.9 8 8 0 0 1 1.3 5 6 6 0 0 1-2.4 4.2c-2.4 1.9-6 2.7-9.9 3.2q-6.1.7-13.9.4c-10.1-.2-21.6-1.5-30.6-2.6l-1.8-.3a31 31 0 0 1 5.4 7q1.8 3 1.5 6.6a8 8 0 0 1-4.1 6 20 20 0 0 1-9.1 2.4c-7.6.5-19.1-1-35.9-5.6-34.2-9.2-59-32.9-75.2-54a211 211 0 0 1-24-39.8v-.2zm278.9 44.9a2.8 2.8 0 0 1 5.3-2 8 8 0 0 0 10.5 4.7l6.6-2.5a2.8 2.8 0 0 1 2 5.3l-6.6 2.5a14 14 0 0 1-17.8-8m-6.7-17.7a2.8 2.8 0 0 1 5.3-2 8 8 0 0 0 10.5 4.7l6.7-2.5a2.8 2.8 0 0 1 2 5.3l-6.7 2.5a14 14 0 0 1-17.8-8"/><path fill="lightgrey" d="M624 1178.3a5.7 5.7 0 1 1 0 11.5h-38a5.7 5.7 0 1 1 0-11.5zm-19-564c3.2 0 5.8 2.5 5.8 5.7v481.5a5.7 5.7 0 1 1-11.5 0V620c0-3.2 2.5-5.7 5.7-5.7"/><path fill="#00a776" d="M606.2 98a227 227 0 0 1 227.1 227.2c0 112.8-96.4 234.7-194.3 258-4 1-6.2 5.3-4.5 9l15.4 35q.9 1.9.9 4v5.8a10 10 0 0 1-10 10h-69.3a10 10 0 0 1-10-10v-5.8q0-2.1.9-4l15.4-35c1.7-3.7-.6-8-4.5-9C475.3 560 379 438 379 325.3A227 227 0 0 1 606.2 98"/><path fill="#008f65" d="M606.2 98v-3zm227.1 227.2h3zM650 627.2l2.8-1.3zm.9 4h-3zm0 5.8h3zm-10 10v3zm-69.3 0v3zm-10-10h-3zm0-5.8h3zm.9-4 2.7 1.1zM379 325.1h-3zm198.8 267-2.7-1.3zm-4.5-9 .7-2.8zm65.7 0-.7-2.8zm-4.5 9-2.8 1.2zM606.2 98v3a224 224 0 0 1 224.1 224.2h6C836.3 198 733.3 95 606.2 95zm227.1 227.2h-3c0 55.6-23.8 113.6-59.8 160.7-36 47.2-84 83-132.2 94.5l.7 2.9.7 2.9c49.8-12 99-48.8 135.6-96.6 36.6-47.9 61-107.2 61-164.4zm-198.8 267-2.8 1.2 15.5 35 2.7-1.3 2.8-1.2-15.5-35zm15.4 35-2.7 1.1q.6 1.5.6 2.9h6a13 13 0 0 0-1.1-5.3zm.9 4h-3v5.8h6v-5.8zm0 5.8h-3a7 7 0 0 1-7 7v6a13 13 0 0 0 13-13zm-10 10v-3h-69.3v6h69.3zm-69.3 0v-3a7 7 0 0 1-7-7h-6a13 13 0 0 0 13 13zm-10-10h3v-5.8h-6v5.8zm0-5.8h3q0-1.5.6-2.9l-2.7-1.2-2.8-1.2a13 13 0 0 0-1 5.3zm.9-4 2.7 1.1 15.5-35-2.8-1.1-2.7-1.3-15.5 35zm11-44 .6-2.8c-48-11.5-96.1-47.3-132.2-94.5-36-47-59.8-105.1-59.8-160.7h-6c0 57.2 24.4 116.5 61 164.4 36.7 47.8 85.8 84.7 135.6 96.6zM379 325.3h3A224 224 0 0 1 606.2 101v-6A230 230 0 0 0 376 325.2zm198.8 267 2.8 1.2a9.5 9.5 0 0 0-6.6-13l-.7 2.9-.7 2.9c2.2.5 3.3 2.9 2.5 4.7zm61.2-9-.7-2.8a9.5 9.5 0 0 0-6.6 13l2.8-1.2 2.7-1.3c-.8-1.8.3-4.2 2.5-4.7z"/><path fill="#fff" d="M606 142a12 12 0 0 1 0 24c-90 0-163 73-163 163a12 12 0 0 1-24 0 187 187 0 0 1 187-187" opacity=".3"/><path fill="lightgrey" d="M637.3 583.1a5.8 5.8 0 0 1 0 11.5H575a5.8 5.8 0 1 1 0-11.5z"/></svg>