<svg width="800" height="803" viewBox="0 0 800 803" fill="none" xmlns="http://www.w3.org/2000/svg">
<path d="M680.075 472.707C696.833 459.479 720.307 456.246 739.523 463.834C748.466 467.271 756.503 472.9 762.731 479.961C763.117 480.404 763.503 480.847 763.889 481.29C765.777 483.457 766.731 486.342 766.588 489.265C766.443 492.191 765.212 494.917 763.12 496.886C761.028 498.855 758.232 499.919 755.302 499.887C752.375 499.853 749.554 498.725 747.504 496.709C747.086 496.298 746.668 495.886 746.25 495.474C742.018 491.394 736.912 488.442 731.442 486.832C719.612 483.265 706.494 486.422 697.954 494.417C685.331 505.582 683.887 525.677 693.422 537.828C709.812 560.749 726.201 583.672 742.59 606.593C756.279 625.929 764.078 649.653 764.415 673.796C767.072 738.047 709.431 799.141 641.77 798.756C633.169 798.968 624.568 799.18 615.967 799.391C607.743 799.593 599.519 799.795 591.294 799.998C583.335 800.197 575.743 797.203 570.193 791.497C564.643 785.801 561.589 777.859 561.7 769.597C561.811 761.335 565.077 753.479 570.778 747.934C576.479 742.379 584.148 739.589 592.099 740.002C600.315 740.425 608.532 740.848 616.748 741.271C625.339 741.713 633.932 742.155 642.524 742.597C679.887 746.168 718.294 713.952 720.035 673.109C721.046 657.852 717.332 642.078 709.282 628.547C694.68 604.448 680.078 580.347 665.476 556.248C648.07 529.274 655.423 490.99 680.075 472.707Z" fill="#FFA5A5"/>
<mask id="mask0_167_242" style="mask-type:alpha" maskUnits="userSpaceOnUse" x="561" y="445" width="206" height="356">
<path d="M680.075 472.707C696.833 459.479 720.307 456.246 739.523 463.834C748.466 467.271 756.503 472.9 762.731 479.961C763.117 480.404 763.503 480.847 763.889 481.29C765.777 483.457 766.731 486.342 766.588 489.265C766.443 492.191 765.212 494.917 763.12 496.886C761.028 498.855 758.232 499.919 755.302 499.887C752.375 499.853 749.554 498.725 747.504 496.709C747.086 496.298 746.668 495.886 746.25 495.474C742.018 491.394 736.912 488.442 731.442 486.832C719.612 483.265 706.494 486.422 697.954 494.417C685.331 505.582 683.887 525.677 693.422 537.828C709.812 560.749 726.201 583.672 742.59 606.593C756.279 625.929 764.078 649.653 764.415 673.796C767.072 738.047 709.431 799.141 641.77 798.756C633.169 798.968 624.568 799.18 615.967 799.391C607.743 799.593 599.519 799.795 591.294 799.998C583.335 800.197 575.743 797.203 570.193 791.497C564.643 785.801 561.589 777.859 561.7 769.597C561.811 761.335 565.077 753.479 570.778 747.934C576.479 742.379 584.148 739.589 592.099 740.002C600.315 740.425 608.532 740.848 616.748 741.271C625.339 741.713 633.932 742.155 642.524 742.597C679.887 746.168 718.294 713.952 720.035 673.109C721.046 657.852 717.332 642.078 709.282 628.547C694.68 604.448 680.078 580.347 665.476 556.248C648.07 529.274 655.423 490.99 680.075 472.707Z" fill="#FFA5A5"/>
</mask>
<g mask="url(#mask0_167_242)">
<path d="M673.197 719.5L705.697 796L806.197 706.5L682.697 655L674.197 620L753.697 591L743.697 547.5L649.697 574.5L643.197 509.5L702.697 515L705.197 505L658.697 458L743.697 442.5L729.697 500" stroke="#FF8787" stroke-width="6" stroke-linecap="round" stroke-linejoin="round"/>
</g>
<path d="M383.723 133C447.368 133 500.162 179.452 510.056 240.303L645.223 800H233.723L330.538 377.46C286.394 357.268 255.723 312.716 255.723 261C255.723 190.308 313.03 133 383.723 133Z" fill="#C3C6D1"/>
<path d="M342.821 425.257L196.088 400.543C196.088 400.543 195.927 370.272 182.628 370.002C169.329 369.732 175.474 394.691 175.474 394.691C175.474 394.691 157.84 378.589 148.451 387.822C139.061 397.055 164.66 408.552 164.66 408.552C164.66 408.552 139.735 402.058 137.242 415.645C134.748 429.231 161.998 430.451 161.998 430.451C161.998 430.451 138.329 433.074 142.187 445.127C146.044 457.179 174.591 449.112 174.591 449.112L309.088 530.342L342.822 425.258L342.821 425.257Z" fill="white" stroke="#C3C6D1" stroke-width="6" stroke-linejoin="round"/>
<path d="M191.581 458L218.081 404.5L263.581 412L236.081 488.5L191.581 458Z" fill="#C3C6D1"/>
<path d="M316.081 548.5L224.101 492.818L259.148 404.754L360.09 425.388L316.081 548.5Z" fill="#00A776"/>
<path d="M359.581 425.5L262.106 405.53C259.212 404.937 256.318 406.538 255.282 409.304L225.354 489.261C224.33 491.999 225.427 495.076 227.952 496.548L317.081 548.5" stroke="#00875F" stroke-width="6" stroke-linecap="round" stroke-linejoin="round"/>
<path d="M471.856 110.749C485.02 97.5852 510.535 99.9296 527.718 117.113C544.901 134.296 547.245 159.811 534.082 172.974C520.918 186.138 485.504 193.693 468.321 176.51C451.138 159.327 458.693 123.912 471.856 110.749Z" fill="#183153"/>
<path d="M511.454 133.376C512.626 134.548 512.626 136.447 511.454 137.619L482.745 166.328L509.612 155.348C511.146 154.721 512.898 155.456 513.525 156.99C514.151 158.523 513.416 160.275 511.882 160.902L471.224 177.519C471.151 177.549 471.076 177.574 471.002 177.597C470.991 177.601 470.979 177.605 470.968 177.608C470.963 177.61 470.959 177.611 470.955 177.613C470.948 177.615 470.941 177.617 470.933 177.619C470.785 177.663 470.635 177.693 470.485 177.713C470.455 177.717 470.424 177.722 470.394 177.725C470.342 177.73 470.291 177.732 470.239 177.735C470.187 177.737 470.134 177.742 470.082 177.742C470.042 177.742 470.003 177.738 469.964 177.737C469.912 177.735 469.86 177.733 469.808 177.729C469.801 177.728 469.795 177.726 469.788 177.726C469.741 177.721 469.695 177.713 469.649 177.706C469.597 177.699 469.545 177.692 469.494 177.682C469.481 177.679 469.468 177.675 469.455 177.673C469.296 177.638 469.138 177.592 468.982 177.53C468.969 177.525 468.957 177.519 468.945 177.514C468.928 177.507 468.911 177.5 468.895 177.492C468.835 177.466 468.777 177.439 468.719 177.41C468.708 177.404 468.696 177.399 468.685 177.393C468.606 177.351 468.529 177.306 468.455 177.258C468.447 177.252 468.437 177.246 468.429 177.24C468.426 177.239 468.423 177.238 468.42 177.236C468.416 177.233 468.413 177.23 468.409 177.227C468.404 177.224 468.4 177.22 468.396 177.218C468.337 177.177 468.279 177.134 468.222 177.089C468.209 177.078 468.195 177.069 468.181 177.058C468.169 177.048 468.158 177.037 468.145 177.026C468.099 176.987 468.054 176.946 468.01 176.903C467.996 176.89 467.981 176.877 467.967 176.863C467.956 176.852 467.946 176.84 467.936 176.829C467.933 176.826 467.931 176.823 467.928 176.82C467.888 176.778 467.85 176.736 467.813 176.693C467.799 176.677 467.783 176.663 467.77 176.646C467.762 176.637 467.754 176.626 467.746 176.616C467.698 176.556 467.652 176.494 467.609 176.43C467.603 176.421 467.596 176.413 467.59 176.403C467.584 176.394 467.579 176.384 467.573 176.375C467.525 176.301 467.478 176.224 467.436 176.144C467.43 176.133 467.424 176.12 467.418 176.109C467.388 176.049 467.36 175.988 467.333 175.926C467.329 175.915 467.323 175.904 467.319 175.893C467.318 175.891 467.316 175.889 467.315 175.887C467.309 175.871 467.303 175.854 467.297 175.838C467.236 175.684 467.19 175.529 467.156 175.372C467.153 175.36 467.15 175.349 467.148 175.337C467.137 175.285 467.131 175.234 467.123 175.183C467.116 175.134 467.108 175.085 467.103 175.035C467.103 175.031 467.102 175.026 467.102 175.022C467.098 174.98 467.097 174.939 467.094 174.898C467.092 174.848 467.088 174.798 467.088 174.748C467.088 174.746 467.088 174.744 467.088 174.741C467.088 174.689 467.092 174.637 467.094 174.585C467.097 174.543 467.097 174.502 467.101 174.46C467.102 174.454 467.103 174.447 467.103 174.44C467.107 174.401 467.114 174.362 467.12 174.323C467.14 174.18 467.168 174.037 467.21 173.896C467.212 173.887 467.215 173.878 467.218 173.868C467.224 173.85 467.231 173.831 467.237 173.813C467.254 173.759 467.273 173.705 467.294 173.652C467.301 173.633 467.308 173.614 467.315 173.596L483.928 132.948C484.555 131.414 486.307 130.679 487.841 131.306C489.374 131.933 490.11 133.685 489.483 135.219L478.503 162.085L507.212 133.376C508.383 132.205 510.283 132.205 511.454 133.376Z" fill="#001C40"/>
<path d="M222.53 762H343.339C364.205 762 381.145 778.94 381.145 799.806H184.723C184.723 778.94 201.664 762 222.53 762Z" fill="#C3C6D1"/>
<path d="M230.784 782.254C224.928 782.254 220.181 787.002 220.181 792.858V799.66M212.584 782.254C206.728 782.254 201.98 787.002 201.98 792.858V799.66" stroke="#8D9AB8" stroke-width="6" stroke-linecap="round" stroke-linejoin="round"/>
<path d="M501.574 544C501.574 544 424.28 546.26 385.37 600.204C346.459 654.148 381.748 645.256 392.359 631.991C392.359 631.991 341.953 718.214 384.4 688.146C384.4 688.146 366.557 724.275 388.278 762.3L376.425 762.3C355.617 762.3 338.723 779.194 338.723 800H501.615V762.3L501.574 762.3V544Z" fill="#C3C6D1"/>
<path d="M384.784 782.366C378.928 782.366 374.18 787.114 374.18 792.969V799.772M366.584 782.366C360.728 782.366 355.98 787.114 355.98 792.969V799.772" stroke="#8D9AB8" stroke-width="6" stroke-linecap="round" stroke-linejoin="round"/>
<path d="M501.574 544C501.574 544 424.28 546.26 385.37 600.204C346.459 654.148 381.748 645.256 392.359 631.991C392.359 631.991 341.953 718.214 384.4 688.146C384.4 688.146 366.557 724.275 388.277 762.3C363.794 757.15 339.774 774.837 339.774 799.862" stroke="#8D9AB8" stroke-width="6" stroke-linecap="round" stroke-linejoin="round"/>
<path d="M340.723 90C340.723 71.3839 360.422 55 384.723 55C409.023 55 428.723 71.3839 428.723 90C428.723 108.616 409.023 139 384.723 139C360.422 139 340.723 108.616 340.723 90Z" fill="#183153"/>
<path d="M384.723 78C386.38 78.0002 387.723 79.3433 387.723 81V121.601L398.957 94.8389C399.598 93.3113 401.357 92.5922 402.884 93.2334C404.412 93.8747 405.131 95.6336 404.49 97.1611L387.49 137.661C387.459 137.734 387.424 137.804 387.388 137.873C387.383 137.884 387.377 137.895 387.372 137.905C387.37 137.909 387.368 137.913 387.366 137.917C387.362 137.924 387.359 137.931 387.355 137.938C387.281 138.073 387.196 138.2 387.104 138.32C387.085 138.345 387.068 138.37 387.048 138.394C387.016 138.434 386.98 138.472 386.946 138.51C386.911 138.549 386.877 138.589 386.839 138.626C386.811 138.654 386.781 138.679 386.752 138.706C386.714 138.741 386.677 138.777 386.636 138.811C386.631 138.815 386.626 138.818 386.621 138.822C386.584 138.852 386.546 138.879 386.508 138.907C386.466 138.938 386.425 138.97 386.381 138.999C386.37 139.006 386.358 139.013 386.347 139.021C386.21 139.108 386.066 139.187 385.912 139.254C385.899 139.259 385.887 139.263 385.875 139.269C385.858 139.276 385.841 139.282 385.824 139.289C385.763 139.313 385.702 139.335 385.641 139.354C385.629 139.358 385.617 139.363 385.605 139.367C385.519 139.394 385.433 139.415 385.347 139.434C385.337 139.436 385.326 139.438 385.316 139.44C385.313 139.441 385.31 139.443 385.307 139.443C385.302 139.444 385.297 139.444 385.292 139.445C385.287 139.446 385.282 139.446 385.277 139.447C385.206 139.46 385.135 139.471 385.063 139.479C385.046 139.481 385.029 139.485 385.012 139.486C384.996 139.488 384.98 139.488 384.964 139.489C384.904 139.494 384.843 139.497 384.782 139.498C384.762 139.498 384.742 139.5 384.722 139.5C384.707 139.5 384.692 139.498 384.676 139.498C384.672 139.498 384.668 139.497 384.665 139.497C384.607 139.496 384.55 139.494 384.494 139.489C384.473 139.488 384.451 139.488 384.43 139.486C384.417 139.485 384.405 139.483 384.392 139.481C384.315 139.473 384.239 139.461 384.164 139.447C384.153 139.445 384.142 139.444 384.131 139.441C384.121 139.439 384.11 139.436 384.099 139.434C384.012 139.415 383.925 139.394 383.839 139.367C383.827 139.363 383.814 139.359 383.801 139.354C383.738 139.334 383.675 139.31 383.612 139.285C383.601 139.281 383.59 139.277 383.579 139.272C383.576 139.272 383.574 139.271 383.572 139.271C383.556 139.264 383.54 139.256 383.524 139.249C383.373 139.183 383.23 139.106 383.095 139.02C383.085 139.013 383.074 139.007 383.064 139C383.02 138.971 382.98 138.939 382.938 138.908C382.898 138.879 382.858 138.85 382.82 138.818C382.816 138.815 382.813 138.813 382.809 138.81C382.777 138.783 382.747 138.755 382.716 138.728C382.679 138.694 382.641 138.661 382.606 138.626C382.604 138.624 382.603 138.623 382.601 138.621C382.564 138.584 382.53 138.545 382.495 138.506C382.467 138.475 382.438 138.445 382.412 138.413C382.407 138.408 382.403 138.403 382.399 138.397C382.374 138.367 382.351 138.334 382.328 138.303C382.241 138.188 382.16 138.067 382.089 137.938C382.085 137.929 382.08 137.921 382.076 137.912C382.066 137.895 382.058 137.877 382.049 137.859C382.024 137.809 381.999 137.758 381.976 137.705C381.968 137.687 381.959 137.669 381.952 137.65L364.957 97.1611C364.315 95.6334 365.034 93.8746 366.562 93.2334C368.09 92.5925 369.849 93.3113 370.49 94.8389L381.723 121.601V81C381.723 79.3431 383.066 78 384.723 78Z" fill="#001C40"/>
<path d="M378.802 383C448.328 381.43 504.723 325.692 504.723 255C504.723 184.308 448.346 127 378.802 127C301.642 127 133.557 220.918 86.9309 247.857C79.8869 251.927 77.4149 260.544 81.93 267.311C103.89 300.225 180.949 387.467 378.802 383Z" fill="#C3C6D1"/>
<mask id="path-19-inside-1_167_242" fill="white">
<path d="M325.838 136.239C341.368 148.524 351.333 167.535 351.333 188.874C351.333 189.158 351.331 189.442 351.327 189.725C362.122 182.301 375.198 177.955 389.289 177.955C426.159 177.955 456.079 207.704 456.358 244.508H456.361C456.361 244.574 456.359 244.64 456.359 244.706C456.36 244.813 456.362 244.92 456.362 245.027C456.362 245.404 456.357 245.78 456.351 246.155C455.524 317.316 401.215 375.565 331.891 382.294C168.509 373.326 102.062 297.486 81.9297 267.312C77.4147 260.544 79.8867 251.926 86.9307 247.856C124.609 226.087 241.605 160.579 325.838 136.239Z"/>
</mask>
<path d="M325.838 136.239C341.368 148.524 351.333 167.535 351.333 188.874C351.333 189.158 351.331 189.442 351.327 189.725C362.122 182.301 375.198 177.955 389.289 177.955C426.159 177.955 456.079 207.704 456.358 244.508H456.361C456.361 244.574 456.359 244.64 456.359 244.706C456.36 244.813 456.362 244.92 456.362 245.027C456.362 245.404 456.357 245.78 456.351 246.155C455.524 317.316 401.215 375.565 331.891 382.294C168.509 373.326 102.062 297.486 81.9297 267.312C77.4147 260.544 79.8867 251.926 86.9307 247.856C124.609 226.087 241.605 160.579 325.838 136.239Z" fill="white"/>
<path d="M325.838 136.239L329.56 131.533C328.04 130.331 326.034 129.937 324.172 130.475L325.838 136.239ZM351.333 188.874L357.333 188.874V188.874H351.333ZM351.327 189.725L345.328 189.65C345.3 191.892 346.524 193.962 348.501 195.018C350.479 196.073 352.88 195.939 354.727 194.668L351.327 189.725ZM389.289 177.955V171.955H389.289L389.289 177.955ZM456.358 244.508L450.359 244.553C450.384 247.849 453.062 250.508 456.358 250.508V244.508ZM456.361 244.508L462.361 244.508C462.361 242.917 461.729 241.391 460.604 240.265C459.479 239.14 457.953 238.508 456.361 238.508V244.508ZM456.359 244.706L450.359 244.698C450.359 244.71 450.359 244.722 450.359 244.734L456.359 244.706ZM456.362 245.027L462.362 245.027V245.027L456.362 245.027ZM456.351 246.155L450.351 246.056C450.351 246.066 450.351 246.076 450.351 246.086L456.351 246.155ZM331.891 382.294L331.562 388.285C331.865 388.302 332.168 388.295 332.47 388.266L331.891 382.294ZM81.9297 267.312L76.9386 270.642L76.9386 270.642L81.9297 267.312ZM86.9307 247.856L83.929 242.661H83.929L86.9307 247.856ZM325.838 136.239L322.116 140.945C336.269 152.141 345.333 169.447 345.333 188.874H351.333H357.333C357.333 165.623 346.467 144.907 329.56 131.533L325.838 136.239ZM351.333 188.874L345.333 188.874C345.333 189.126 345.331 189.383 345.328 189.65L351.327 189.725L357.327 189.799C357.33 189.5 357.333 189.19 357.333 188.874L351.333 188.874ZM351.327 189.725L354.727 194.668C364.553 187.91 376.45 183.955 389.289 183.955L389.289 177.955L389.289 171.955C373.945 171.955 359.69 176.691 347.927 184.781L351.327 189.725ZM389.289 177.955V183.955C422.86 183.955 450.104 211.043 450.359 244.553L456.358 244.508L462.358 244.462C462.054 204.365 429.458 171.955 389.289 171.955V177.955ZM456.358 244.508V250.508H456.361V244.508V238.508H456.358V244.508ZM456.361 244.508L450.361 244.507C450.361 244.491 450.362 244.482 450.361 244.521C450.361 244.545 450.359 244.618 450.359 244.698L456.359 244.706L462.359 244.714C462.359 244.728 462.359 244.735 462.36 244.693C462.36 244.666 462.361 244.591 462.361 244.508L456.361 244.508ZM456.359 244.706L450.359 244.734C450.361 245.087 450.362 244.837 450.362 245.027L456.362 245.027L462.362 245.027C462.362 244.933 462.361 244.846 462.361 244.792C462.36 244.727 462.359 244.702 462.359 244.678L456.359 244.706ZM456.362 245.027L450.362 245.027C450.362 245.35 450.358 245.683 450.351 246.056L456.351 246.155L462.35 246.254C462.356 245.877 462.362 245.458 462.362 245.027L456.362 245.027ZM456.351 246.155L450.351 246.086C449.56 314.176 397.595 369.888 331.311 376.322L331.891 382.294L332.47 388.266C404.835 381.242 461.488 320.456 462.35 246.225L456.351 246.155ZM331.891 382.294L332.219 376.303C170.933 367.45 106.127 292.768 86.9208 263.981L81.9297 267.312L76.9386 270.642C97.9976 302.205 166.084 379.202 331.562 388.285L331.891 382.294ZM81.9297 267.312L86.9208 263.982C84.527 260.394 85.5718 255.571 89.9323 253.052L86.9307 247.856L83.929 242.661C74.2017 248.281 70.3024 260.695 76.9386 270.642L81.9297 267.312ZM86.9307 247.856L89.9323 253.052C127.703 231.229 244.084 166.108 327.504 142.003L325.838 136.239L324.172 130.475C239.126 155.05 121.515 220.945 83.929 242.661L86.9307 247.856Z" fill="#C3C6D1" mask="url(#path-19-inside-1_167_242)"/>
<path d="M322.822 218.954C324.749 208.489 319.012 198.661 310.007 197.003C301.002 195.345 292.14 202.484 290.212 212.949C288.285 223.414 294.023 233.241 303.027 234.9C312.032 236.558 320.895 229.419 322.822 218.954Z" fill="#193154"/>
<path d="M369.814 244.745C375.928 236.036 374.81 224.711 367.316 219.45C359.822 214.189 348.79 216.984 342.676 225.693C336.562 234.402 337.68 245.727 345.174 250.988C352.668 256.249 363.7 253.454 369.814 244.745Z" fill="#193154"/>
<path d="M382.723 207.299C382.723 207.299 394.113 209.775 393.383 222.301" stroke="#193154" stroke-width="4" stroke-linecap="round" stroke-linejoin="round"/>
<circle cx="93.7227" cy="261" r="37" fill="#FFA5A5"/>
<path d="M324.508 383C321.633 383 319.129 384.961 318.44 387.752L271.057 579.729C270.297 582.811 271.913 585.929 274.939 586.888C300.511 594.99 418.66 626.973 597.27 591.922C600.758 591.238 603.01 587.755 602.154 584.305L553.434 387.746C552.743 384.958 550.24 383 547.367 383H324.508Z" fill="#00A776" stroke="#00875F" stroke-width="6" stroke-linejoin="round"/>
<path d="M380.131 434.022C404.255 435.392 422.7 456.058 421.331 480.181C420.18 500.451 401.82 518.648 386.427 525.131L389.677 533.723C389.932 534.398 390.043 535.119 390.002 535.839C389.841 538.681 387.405 540.856 384.563 540.695L363.658 539.508C360.815 539.347 358.641 536.911 358.802 534.068C358.843 533.348 359.035 532.644 359.364 532.003L363.565 523.833C349.004 515.651 332.821 495.493 333.971 475.222C335.341 451.099 356.008 432.653 380.131 434.022ZM377.381 453.291C377.017 450.728 374.645 448.943 372.082 449.306C367.018 450.023 362.16 452.665 358.344 456.071C354.528 459.477 351.354 464.005 350.068 468.955C349.418 471.461 350.922 474.02 353.427 474.671C355.933 475.321 358.492 473.817 359.142 471.311C359.86 468.551 361.808 465.544 364.586 463.065C367.365 460.585 370.572 458.989 373.396 458.589C375.959 458.226 377.743 455.854 377.381 453.291Z" fill="white"/>
<path d="M489.229 415.12L624.734 353.641C624.734 353.641 617.134 324.338 629.92 320.671C642.707 317.003 643.161 342.703 643.161 342.703C643.161 342.703 656.081 322.621 667.522 329.14C678.964 335.66 657.165 353.331 657.165 353.331C657.165 353.331 679.594 340.668 685.485 353.163C691.376 365.657 665.348 373.817 665.348 373.817C665.348 373.817 688.899 370.289 688.258 382.928C687.617 395.566 657.956 395.082 657.956 395.082L548.757 508.057L489.228 415.121L489.229 415.12Z" fill="white" stroke="#C3C6D1" stroke-width="6" stroke-linejoin="round"/>
<path d="M643.81 408.026L604.489 363.1L562.429 382.006L608.609 448.908L643.81 408.026Z" fill="#C3C6D1"/>
<path d="M546.649 527.4L621.295 450.012L564.857 373.866L472.569 419.671L546.649 527.4Z" fill="#00A776"/>
<path d="M473.09 419.649L562.196 375.373C564.842 374.059 568.05 374.865 569.759 377.274L619.172 446.896C620.864 449.279 620.592 452.535 618.528 454.605L545.683 527.656" stroke="#00875F" stroke-width="6" stroke-linecap="round" stroke-linejoin="round"/>
<path d="M319.723 384.5L270.723 585.5" stroke="#00875F" stroke-width="4" stroke-linecap="round" stroke-linejoin="round"/>
<path d="M395.098 266.474C399.822 260.455 409.378 261.819 410.008 269.445C410.175 271.461 410.265 273.499 410.277 275.557C410.52 318.942 375.547 354.31 332.162 354.554C308.449 354.687 287.132 344.299 272.636 327.768C272.073 327.127 272.54 326.136 273.393 326.131C322.837 325.853 366.769 302.564 395.098 266.474Z" fill="#183153"/>
<path d="M326.374 328.415C323.463 330.022 319.938 329.523 317.603 327.173L299.723 309.179L331.019 297.332L330.14 322.259C330.048 324.862 328.639 327.162 326.375 328.413L326.374 328.415Z" fill="white"/>
<path d="M388.691 292.204C386.675 294.848 383.249 295.813 380.164 294.603L356.546 285.345L380.41 261.886L389.656 285.052C390.62 287.471 390.259 290.144 388.691 292.202L388.691 292.204Z" fill="white"/>
</svg>
