<svg xmlns="http://www.w3.org/2000/svg" width="800" height="803" fill="none" viewBox="0 0 800 803"><path fill="#ffa5a5" d="M680.08 472.7c16.75-13.22 40.23-16.45 59.44-8.87a60 60 0 0 1 23.21 16.13l1.16 1.33a11.3 11.3 0 0 1 2.7 7.97 11.2 11.2 0 0 1-3.47 7.63 11.2 11.2 0 0 1-7.82 3 11.3 11.3 0 0 1-7.8-3.18l-1.25-1.24a36 36 0 0 0-14.8-8.64c-11.84-3.56-24.96-.4-33.5 7.59-12.62 11.16-14.06 31.26-4.53 43.4l49.17 68.77a120 120 0 0 1 21.82 67.2c2.66 64.26-54.98 125.35-122.64 124.97l-25.8.63-24.68.6a28.2 28.2 0 0 1-21.1-8.5 30.8 30.8 0 0 1-8.49-21.9 30.8 30.8 0 0 1 9.08-21.66A28.2 28.2 0 0 1 592.1 740l24.65 1.27 25.77 1.33c37.37 3.57 75.77-28.65 77.51-69.5a78 78 0 0 0-10.75-44.55l-43.8-72.3c-17.41-26.98-10.06-65.26 14.6-83.54"/><mask id="a" width="206" height="356" x="561" y="445" maskUnits="userSpaceOnUse" style="mask-type:alpha"><path fill="#ffa5a5" d="M680.08 472.7c16.75-13.22 40.23-16.45 59.44-8.87a60 60 0 0 1 23.21 16.13l1.16 1.33a11.3 11.3 0 0 1 2.7 7.97 11.2 11.2 0 0 1-3.47 7.63 11.2 11.2 0 0 1-7.82 3 11.3 11.3 0 0 1-7.8-3.18l-1.25-1.24a36 36 0 0 0-14.8-8.64c-11.84-3.56-24.96-.4-33.5 7.59-12.62 11.16-14.06 31.26-4.53 43.4l49.17 68.77a120 120 0 0 1 21.82 67.2c2.66 64.26-54.98 125.35-122.64 124.97l-25.8.63-24.68.6a28.2 28.2 0 0 1-21.1-8.5 30.8 30.8 0 0 1-8.49-21.9 30.8 30.8 0 0 1 9.08-21.66A28.2 28.2 0 0 1 592.1 740l24.65 1.27 25.77 1.33c37.37 3.57 75.77-28.65 77.51-69.5a78 78 0 0 0-10.75-44.55l-43.8-72.3c-17.41-26.98-10.06-65.26 14.6-83.54"/></mask><g mask="url(#a)"><path stroke="#ff8787" stroke-linecap="round" stroke-linejoin="round" stroke-width="6" d="m673.2 719.5 32.5 76.5 100.5-89.5L682.7 655l-8.5-35 79.5-29-10-43.5-94 27-6.5-65 59.5 5.5 2.5-10-46.5-47 85-15.5-14 57.5"/></g><path fill="#c3c6d1" d="M383.72 133c63.65 0 116.44 46.45 126.34 107.3L645.22 800h-411.5l96.82-422.54c-44.15-20.2-74.82-64.74-74.82-116.46 0-70.7 57.31-128 128-128"/><path fill="#fff" stroke="#c3c6d1" stroke-linejoin="round" stroke-width="6" d="M342.82 425.26 196.1 400.54s-.16-30.27-13.46-30.54-7.16 24.7-7.16 24.7-17.63-16.11-27.02-6.88 16.21 20.73 16.21 20.73-24.92-6.5-27.42 7.1c-2.5 13.58 24.76 14.8 24.76 14.8s-23.67 2.62-19.81 14.68c3.85 12.05 32.4 3.98 32.4 3.98l134.5 81.23 33.73-105.08Z"/><path fill="#c3c6d1" d="m191.58 458 26.5-53.5 45.5 7.5-27.5 76.5z"/><path fill="#00a776" d="m316.08 548.5-91.98-55.68 35.05-88.07 100.94 20.64z"/><path stroke="#00875f" stroke-linecap="round" stroke-linejoin="round" stroke-width="6" d="m359.58 425.5-97.47-19.97a6 6 0 0 0-6.83 3.77l-29.93 79.96a6 6 0 0 0 2.6 7.29l89.13 51.95"/><path fill="#183153" d="M471.86 110.75c13.16-13.16 38.68-10.82 55.86 6.36 17.18 17.19 19.52 42.7 6.36 55.86-13.16 13.17-48.58 20.72-65.76 3.54s-9.63-52.6 3.54-65.76"/><path fill="#001c40" d="M511.45 133.38a3 3 0 0 1 0 4.24l-28.7 28.7 26.86-10.97a3 3 0 1 1 2.27 5.55l-40.66 16.62-.25.09h-.04q-.22.07-.44.1l-.1.01-.15.02h-.28l-.15-.01h-.02l-.14-.02-.16-.03h-.04l-.47-.15-.04-.02-.05-.02-.17-.08-.04-.02-.23-.13-.02-.02h-.01l-.01-.01-.01-.01-.18-.13-.04-.03-.04-.03-.13-.13-.04-.04-.03-.03-.01-.01-.12-.13-.04-.04-.02-.03-.14-.19-.02-.03-.02-.03q-.08-.1-.13-.23l-.02-.03-.09-.18-.01-.04-.02-.05q-.1-.23-.14-.47l-.01-.03-.03-.16-.02-.15v-.13l-.01-.15v-.16l.01-.13v-.02l.02-.12.09-.42v-.03l.03-.06.05-.16.02-.05 16.62-40.65a3 3 0 0 1 5.55 2.27l-10.98 26.87 28.71-28.71a3 3 0 0 1 4.24 0"/><path fill="#c3c6d1" d="M222.53 762h120.8a37.8 37.8 0 0 1 37.82 37.8H184.71a37.8 37.8 0 0 1 37.81-37.8"/><path stroke="#8d9ab8" stroke-linecap="round" stroke-linejoin="round" stroke-width="6" d="M230.78 782.25a10.6 10.6 0 0 0-10.6 10.6v6.81m-7.6-17.4a10.6 10.6 0 0 0-10.6 10.6v6.8"/><path fill="#c3c6d1" d="M501.57 544s-77.29 2.26-116.2 56.2-3.62 45.06 6.99 31.8c0 0-50.4 86.21-7.96 56.15 0 0-17.84 36.13 3.88 74.15h-11.85a37.7 37.7 0 0 0-37.7 37.7h162.89v-37.7h-.05z"/><path stroke="#8d9ab8" stroke-linecap="round" stroke-linejoin="round" stroke-width="6" d="M384.78 782.37a10.6 10.6 0 0 0-10.6 10.6v6.8m-7.6-17.4a10.6 10.6 0 0 0-10.6 10.6v6.8"/><path stroke="#8d9ab8" stroke-linecap="round" stroke-linejoin="round" stroke-width="6" d="M501.57 544s-77.29 2.26-116.2 56.2-3.62 45.06 6.99 31.8c0 0-50.4 86.21-7.96 56.15 0 0-17.84 36.13 3.88 74.15-24.49-5.15-48.5 12.54-48.5 37.56"/><path fill="#183153" d="M340.72 90c0-18.62 19.7-35 44-35s44 16.38 44 35-19.7 49-44 49-44-30.38-44-49"/><path fill="#001c40" d="M384.72 78a3 3 0 0 1 3 3v40.6l11.24-26.76a3 3 0 0 1 5.53 2.32l-17 40.5-.1.21-.02.03v.02l-.01.02-.26.38-.05.07-.1.12-.11.12-.09.08-.11.1-.02.01-.11.09-.13.09-.03.02q-.2.14-.44.23l-.04.02-.05.02-.18.06-.03.02-.26.06-.03.01h-.04l-.22.04h-.1l-.18.02h-.11l-.18-.01h-.1l-.23-.04h-.03l-.03-.02-.26-.06-.04-.02-.22-.08-.06-.02q-.23-.1-.42-.23l-.04-.02-.12-.1-.12-.08-.01-.01-.1-.08-.1-.1-.12-.12-.08-.1-.01-.01-.07-.1-.24-.36-.01-.03-.03-.05-.07-.16-.03-.05-17-40.49a3 3 0 1 1 5.54-2.32l11.23 26.76V81a3 3 0 0 1 3-3"/><path fill="#c3c6d1" d="M378.8 383c69.53-1.57 125.92-57.3 125.92-128S448.35 127 378.8 127c-77.16 0-245.24 93.92-291.87 120.86-7.04 4.07-9.52 12.68-5 19.45C103.89 300.23 180.95 387.47 378.8 383"/><mask id="b" fill="#fff"><path d="M325.84 136.24a67 67 0 0 1 25.49 53.48 67.07 67.07 0 0 1 105.03 54.78v1.66c-.84 71.16-55.15 129.4-124.47 136.13-163.38-8.96-229.83-84.8-249.96-114.98-4.52-6.77-2.04-15.38 5-19.45 37.68-21.77 154.67-87.28 238.9-111.62"/></mask><path fill="#fff" d="M325.84 136.24a67 67 0 0 1 25.49 53.48 67.07 67.07 0 0 1 105.03 54.78v1.66c-.84 71.16-55.15 129.4-124.47 136.13-163.38-8.96-229.83-84.8-249.96-114.98-4.52-6.77-2.04-15.38 5-19.45 37.68-21.77 154.67-87.28 238.9-111.62"/><path fill="#c3c6d1" d="m325.84 136.24 3.72-4.7a6 6 0 0 0-5.39-1.06zm25.5 52.63h6zm-.01.85-6-.07a6 6 0 0 0 9.4 5.02zm37.96-11.76v-6zm67.07 66.55-6 .04a6 6 0 0 0 6 5.96zm0 0h6a6 6 0 0 0-6-6zm0 .2-6-.01v.03zm0 .32h6zm0 1.13-6-.1v.03zM331.88 382.29l-.33 6q.45.01.91-.02zM81.93 267.31l-5 3.33zm5-19.45-3-5.2zm238.9-111.62-3.71 4.7a61 61 0 0 1 23.21 47.93h12a73 73 0 0 0-27.77-57.34zm25.5 52.63h-6v.78l6 .07 6 .08v-.93zm0 .85 3.4 4.95a61 61 0 0 1 34.56-10.71v-12a73 73 0 0 0-41.36 12.82zm37.96-11.76v6a61.07 61.07 0 0 1 61.07 60.6l6-.05 6-.05a73.07 73.07 0 0 0-73.07-72.5zm67.07 66.55v6zv-6zm0 0h-6v.19h6l6 .01v-.2zm0 .2-6 .02v.3h12v-.35zm0 .32h-6v1.03l6 .1 5.99.1.01-1.23zm0 1.13-6-.07c-.8 68.09-52.76 123.8-119.05 130.23l.58 5.97.58 5.98c72.36-7.03 129.02-67.81 129.88-142.04zM331.88 382.29l.33-5.99c-161.29-8.85-226.1-83.53-245.3-112.32l-4.99 3.33-5 3.33C98 302.21 166.09 379.2 331.57 388.3zM81.93 267.31l5-3.33c-2.4-3.59-1.36-8.4 3-10.93l-3-5.2-3-5.19c-9.73 5.62-13.63 18.03-7 27.98zm5-19.45 3 5.2C127.7 231.22 244.08 166.1 327.5 142l-1.66-5.76-1.67-5.77c-85.04 24.58-202.66 90.48-240.24 112.2z" mask="url(#b)"/><path fill="#193154" d="M322.82 218.95c1.93-10.46-3.8-20.29-12.81-21.95-9-1.66-17.87 5.48-19.8 15.95s3.81 20.3 12.82 21.95c9 1.66 17.87-5.48 19.8-15.95m46.98 25.8c6.12-8.71 5-20.04-2.5-25.3s-18.52-2.47-24.63 6.24c-6.12 8.71-5 20.04 2.5 25.3s18.52 2.46 24.63-6.25"/><path stroke="#193154" stroke-linecap="round" stroke-linejoin="round" stroke-width="4" d="M382.72 207.3s11.4 2.47 10.66 15"/><circle cx="93.72" cy="261" r="37" fill="#ffa5a5"/><path fill="#00a776" stroke="#00875f" stroke-linejoin="round" stroke-width="6" d="M324.5 383a6.25 6.25 0 0 0-6.06 4.75l-47.38 191.98a5.9 5.9 0 0 0 3.88 7.16c25.57 8.1 143.72 40.08 322.33 5.03a6.26 6.26 0 0 0 4.88-7.62l-48.72-196.55a6.25 6.25 0 0 0-6.06-4.75z"/><path fill="#fff" d="M380.13 434.02a43.75 43.75 0 0 1 41.2 46.16c-1.15 20.27-19.51 38.47-34.9 44.95l3.25 8.6a5.16 5.16 0 0 1-5.12 6.97l-20.9-1.2a5.16 5.16 0 0 1-4.3-7.5l4.2-8.17c-14.56-8.18-30.74-28.34-29.59-48.6a43.75 43.75 0 0 1 46.16-41.2m-2.75 19.27a4.7 4.7 0 0 0-5.3-3.98c-5.06.71-9.92 3.36-13.74 6.76-3.81 3.4-6.99 7.94-8.27 12.88a4.69 4.69 0 0 0 9.07 2.36c.72-2.76 2.67-5.77 5.45-8.25s5.98-4.07 8.8-4.47a4.7 4.7 0 0 0 4-5.3"/><path fill="#fff" stroke="#c3c6d1" stroke-linejoin="round" stroke-width="6" d="m489.23 415.12 135.5-61.48s-7.6-29.3 5.19-32.97 13.24 22.03 13.24 22.03 12.92-20.08 24.36-13.56-10.36 24.2-10.36 24.2 22.43-12.67 28.33-.18-20.14 20.66-20.14 20.66 23.55-3.53 22.9 9.1c-.63 12.65-30.3 12.16-30.3 12.16l-109.2 112.98z"/><path fill="#c3c6d1" d="m643.81 408.03-39.32-44.93-42.06 18.9 46.18 66.9z"/><path fill="#00a776" d="m546.65 527.4 74.64-77.39-56.43-76.14-92.3 45.8z"/><path stroke="#00875f" stroke-linecap="round" stroke-linejoin="round" stroke-width="6" d="m473.09 419.65 89.1-44.28a6 6 0 0 1 7.57 1.9l49.41 69.63a6 6 0 0 1-.64 7.7l-72.85 73.06"/><path stroke="#00875f" stroke-linecap="round" stroke-linejoin="round" stroke-width="4" d="m319.72 384.5-49 201"/><path fill="#183153" d="M395.1 266.47c4.72-6.02 14.28-4.65 14.9 2.97q.26 3.03.28 6.12a78.56 78.56 0 0 1-137.64 52.2c-.57-.63-.1-1.62.75-1.63a155.5 155.5 0 0 0 121.7-59.66"/><path fill="#fff" d="M326.37 328.42a7.3 7.3 0 0 1-8.77-1.25l-17.88-18 31.3-11.84-.88 24.93c-.1 2.6-1.5 4.9-3.76 6.15m62.32-36.21a7.3 7.3 0 0 1-8.54 2.4l-23.61-9.25 23.86-23.46 9.25 23.16c.96 2.42.6 5.1-.97 7.15"/></svg>