<svg xmlns="http://www.w3.org/2000/svg" width="815" height="1427" viewBox="0 0 815 1427"><g fill="#332b24"><path d="M399.7 57.83c27.06-9.48 56.61-11.96 84.81-6.72 32.94 6.06 63.73 22.43 87.73 45.72 28.76 27.62 48.32 64.19 57.26 102.91 2.88 14.97 5.71 30.02 6.24 45.3 1.28 15.79-.52 31.6-1.97 47.32-.47 7.99-2.8 15.7-4.25 23.54-8.91 37.6-26.93 73.13-52.42 102.21-11.96 14.16-26.46 25.84-41.44 36.62-22.79 18.88-50.82 31.75-80.35 34.98 4.54 5.01 1.12 12.98-4.85 14.89-5.1 2.06-9.86-1.87-14.91-2.28.28 2.52.63 5.14-.18 7.62-.93 1.63-2.35 2.89-3.65 4.22 2.99 4.23 7.18 7.75 8.8 12.85 2.5 7.2 1.08 16.49-5.23 21.3-5.28 3.86-12.05 1.65-17.9.7.35 58.83.13 117.66.19 176.5 23.94-4.48 47.76-9.98 70.75-18.07 17.45-6.38 34.7-13.39 51.21-21.94 15.61-8.14 31.08-16.55 46.07-25.78 2.37-1.42 5.1-3.37 7.99-2.18 4.31 1.6 6.23 6.24 7.71 10.24 4.37 13.59 3.68 28.19 1.85 42.17-2.48 19.2-8.51 38.03-18.36 54.74-8.57 15.15-20.77 27.82-33.38 39.64a97 97 0 0 1-26.72 18.15c1.4 9.12 8.53 15.97 15.92 20.81 3.26 2.41 8.06 5.08 7.38 9.84-1.72 5.3-6.68 8.88-11.71 10.78a102 102 0 0 1 11.31 22.59c2.24 7.5.4 15.53-2.77 22.48a261 261 0 0 0 12.38 14.79c2.98 3.4 6.14 6.85 7.46 11.28-1.9 4.88-4.3 9.95-8.72 13.05-1.97 1.24-4.52.67-6.08-.94-5.04-4.87-7.94-11.56-13.12-16.29-2.03 8.23 1.87 16.17 3.69 24.05 2.02 8.28 4.69 16.66 4.52 25.26-.08 4.6-6.68 7.5-9.41 3.27-2.93-5.45-5.91-10.95-10.4-15.3.65 3.7.01 7.45-1.29 10.95-3.08 8.17-4.12 17-7.95 24.91-5.8 12.3-15.96 21.73-26.03 30.56 11.81 7.67 19.04 20.54 22.56 33.9.51 2.5 2.26 5.79-.05 7.9-1.26 1.43-3.35.88-4.79.06-3.66-1.93-7.74-2.7-11.73-3.62 5.86 9.03 11.82 18.07 16.18 27.96 1.33 3.44 2.17 7.05 3.48 10.51 4.53-.48 9.49 1.48 11.27 5.93 1.31 2.92.86 6.25.64 9.36-.56 3.98-3.8 6.73-6.48 9.42 2.13 12.93 2.95 26 4.01 39.04 1.48 24.03-.48 48.53-8.04 71.49 6.57-.02 14.08-1.82 18.08-7.5 5.88-7.83 7.92-17.73 9.51-27.19 1.75-10.22.38-20.61 1.5-30.87 1.07-18.62 9.68-36.21 21.9-50.05 7.79-7.91 17.15-14.12 27.02-19.13 14.93-7.89 30.14-16.71 40.23-30.66 5.35-7.23 7.69-16.25 7.86-25.15-.3-22.35-14.05-42.39-12.47-64.95.78-15.84 11.21-30.19 25.13-37.35 10-5.06 20.65-8.82 30.31-14.57 14.62-8.13 27.1-19.46 39.14-30.94 9.13-8.55 17.17-18.45 27.92-25.1 6.03-3.65 12.74-6.7 19.89-7.04 8.46-.03 16.25 5.65 20.09 12.99 3.84 7.66 1.38 16.65-1.89 24.05-4.71 10.08-15.51 14.84-25.19 18.89-7.54 2.41-15.32 4.08-23.04 5.82-13.09 2.83-25.76 7.84-36.91 15.3-7.68 5.32-13.12 13.13-17.95 20.98-4.07 6.56-5.56 14.32-6.06 21.92-.39 10.43 2.8 20.63 7.13 30.01 5.24 11.73 10.23 23.93 10.71 36.96a78.7 78.7 0 0 1-11.62 43.17c-5.68 8.92-13.81 16.37-23.58 20.56-15.33 7.31-33.15 8.04-47.66 17.23-9.26 6.15-18.4 13.05-24.48 22.54-5.35 7.76-6.04 17.56-5.39 26.69q1.79 16.93 2.86 33.92c1.45 18.45.84 37.78-7.09 54.84-8.01 16.15-24.05 28.21-41.88 31.16-7.18.74-13.76 4.03-20.91 4.88-6.35 1.3-12.78.2-19.08-.79a50 50 0 0 1-14.19 23.78c-5.63 5.34-11.58 10.44-18.13 14.59-2.28 1.73-5.61-.98-4.55-3.55 1.14-4.08 2.85-8 3.56-12.19a119 119 0 0 1-25.24 22.58c-14.15 8.86-28.94 16.92-44.75 22.45-3.7 1.22-6.84 3.81-10.69 4.63-2.1-.25-3.75-2.32-3.02-4.41 2.34-2.95 4.92-5.71 7.2-8.69-10.99 3.65-22.71 4.24-34.15 5.54-12.13 1.31-23.93-2.96-36.03-2.37-12.75-.24-25.3-3.43-36.98-8.44-7.17-3.78-14.67-6.84-21.99-10.28-1.09 3.98.78 9.33-3.24 12.06-4.64 3.19-10.52 1.06-15.36-.49-8.55-3.35-17.09-6.96-24.74-12.09-4.75-3.08-9.19-6.6-13.79-9.87.06 4.64 1.05 9.18 2.27 13.65 1.02 3-.17 6.59-2.94 8.23-3.44 2.15-7.65 1.12-11.3.15-7.37-1.89-13.83-6.07-20.09-10.24-8.59-5.94-16.92-12.42-23.82-20.31-13.23-3.77-27.9-6.77-37.97-16.91-2.65-1.5-5.46-2.71-7.96-4.47-1.17 1.67-2.91 3.36-5.15 2.48-7.47-3.08-15.05-6.37-21.24-11.69-3.41-3-6.53-6.29-9.64-9.59-1.12.83-2.4 2.57-3.98 1.56-7.13-3.12-12.88-8.7-17.64-14.73-4.02-5.01-5.81-11.38-6.88-17.6-.73-4.82.82-9.47 2.28-13.98-.35-4.41-.95-9 .83-13.2 1.31-4.11 4.15-7.43 7.11-10.45-1.82-2.51-2.76-5.46-3.39-8.44-2.48-2.16-5.07-4.34-8.27-5.29-4.54-1.78-9.98-1.54-13.8-4.92-6.27-5.08-6.91-15.24-2.15-21.54 3.1-4.39 8.3-6.71 13.49-7.54-.71-8.23 4.9-15.98 12.41-18.89a12.6 12.6 0 0 1 12.88 3.15c7.03-4.65 17.04-3.58 23.05 2.27 6.09 6.2 7.68 16.03 5.36 24.21l3.44.06c.55-11.02 6.9-20.54 13.88-28.63 9.93-10.89 21.43-20.97 35.51-26a30 30 0 0 1 .05-10.37c-9.56 1.88-21.15 2.29-28.65-5-5.9-5.7-6.31-14.51-5.33-22.15.41-2.2 1.36-4.23 2.34-6.2-1.54 1.07-3.71 2.81-5.47 1.08-1.83-1.21-1.26-3.75-.5-5.41 2.3-5 5.78-9.39 9.73-13.18-1.54-1.42-3.54-3.13-2.81-5.49 1.67-5.04 6.61-7.86 10.75-10.69 7.04-4.13 13.75-8.79 20.89-12.75-1.86.06-4.6-.18-4.72-2.59-.6-2.68 2.07-4.25 3.98-5.43 7.96-4.59 16.48-8.1 24.77-12.06-2.19-2.36-4.84-4.31-6.57-7.05-2.9-4.39-4.1-9.72-3.98-14.94-5.73-2.91-11.7-5.29-17.52-7.98-16.48 3.16-33.65 1.14-49.51-4.02-9.11-2.96-16.42-9.58-22.28-16.94-10.9-14.99-15.66-33.5-17.68-51.68-.85-8.28-1.74-16.56-2.54-24.85-.63-8.56.06-17.15-.16-25.72-3.86 1.74-7.49 4.66-11.96 4.35-6.9.79-12.36-4.83-15.18-10.51-3.39-8.5-.96-17.88 1.85-26.18 1.68-4.84 1.71-10.78 5.98-14.26 6.47-4.75 15.03-3.84 22.47-2.5 26.25 4.49 52.71 7.49 79.16 10.44 6.15-14 13.57-27.52 22.84-39.71-10.29 2.55-20.18 6.39-30.09 10.08-4.19 1.57-7.78 4.57-12.17 5.59q-2.14-1.4-.74-3.37c2.53-2.93 6.13-4.61 9.15-6.95 10.07-8.2 22.27-13.58 34.81-16.71 3.72-1.15 8.5-.22 10.92-3.92-13.02-.18-25.66-4.38-36.91-10.77-13.13-7.81-22.91-20.69-28.02-35-6-16.79-9.14-35.14-5.39-52.78.79-3.69 2.92-7.66 6.83-8.68 2.65-.92 5.41.19 7.92 1.06 6.87 2.71 12.85 7.14 19.17 10.86 15.73 9.55 32.18 18.96 50.57 22.07a146 146 0 0 0 54.34-.82c5.3-4.72 10.57-9.5 16.33-13.66 2.94-2.06 5.67-4.62 9.11-5.84 2.06-.72 4.25.75 4.59 2.86-1.19 4.02-3.18 7.75-4.5 11.73 4.71-5.18 10.42-9.3 15.93-13.58 4.52-3.26 8.96-6.83 14.2-8.87 2.93-1.32 6.94 1.35 5.73 4.7-2.48 4.6-5.78 8.72-8.16 13.4 8.1-6.41 15.77-13.39 24.37-19.14 8.77-5.91 17.99-12.36 28.85-13.22 3.35-.6 7.67 2.15 6.69 5.9-1.55 4.02-5.45 6.39-8.04 9.67A195 195 0 0 0 321 706.72c7.85-5.33 15.76-11.15 25.01-13.75 4.22-1.63 9.67 2.36 8.02 6.99-1.72 4.11-5.61 6.77-8.26 10.26 11.94-7 24.68-13.09 38.41-15.51 3.66-.8 7.9 1.5 8.64 5.31.8 3.21-1.45 6.1-3.68 8.14a197 197 0 0 0-16.13 16.89c5.6-3.42 10.6-8.26 17.16-9.77 2.97-.85 5.93.73 7.76 3.01-.32-57.06-.01-114.14-.16-171.2-4.36 1.68-9.11 3.18-13.78 1.9-5.05-1.08-8.74-5.85-9.2-10.88-.25-8.05 3.21-15.55 6.93-22.48-3.11.21-6.37-.22-9.33.96-2.45 1.18-3.85 3.67-5.13 5.93-4.16 7.98-5.92 16.88-8.17 25.51-1.58 6.48-4.53 12.98-9.8 17.27-4.07 3.32-9.56 3.1-14.26 4.92-2.86.48-4.35-2.76-5.32-4.92-1.17-3.44-3.13-7.14-2.18-10.83 1.72-2.2 4.84-.03 7.14-.92a17.4 17.4 0 0 0 9.65-11.44c2.05-5.47.81-11.42 1.89-17.05.87-4.12.97-8.69 3.77-12.1 3.77-4.76 9.43-7.51 14.87-9.93 4.9-1.46 10.43-2.06 13.98-6.2-.45-1.57-2.44-1.28-3.61-1.93-5.19-1.45-8.74-6.58-8.58-11.9-.14-4.18 2.91-7.38 4.42-11.01-26.49-14.65-48.66-35.99-67.33-59.61-21.96-29.04-36.92-63.67-41.57-99.85-.58-8.2-1.86-16.33-2.28-24.54-.51-14.68-.35-29.42 1.68-43.99.6-4.08.93-8.19 1.41-12.28a233 233 0 0 1 32.73-87.83c23.84-39.13 60.71-70.59 104-86.06m-24.47 17.35a193 193 0 0 0-43.22 32.67c-35.71 35.4-57.7 83.2-65.43 132.58-5.24 37.55-1.85 76.41 10.77 112.23 1.75 4.74 4.07 9.24 6.33 13.75 11.05 21.22 24.73 41.21 41.69 58.17 13.73 14.18 29.96 25.99 47.99 34.1 7.2 3.19 14.57 6.4 22.35 7.79 9.48 3 19.46 3.9 29.31 4.84 19.65.92 39.63-1.01 58.39-7.05 12.93-3.34 25.21-8.84 37.17-14.71 17.91-9.14 34.57-20.95 48.44-35.57a225 225 0 0 0 34.86-45.22c1.52-4.17 5.18-7.02 6.52-11.26 12.41-28.22 19.88-58.66 21.14-89.49.75-21.87-.73-43.97-6.05-65.24-3.6-16.9-9.92-33.18-17.52-48.68-9.43-18.59-21.41-36.01-36.3-50.67-25.84-26.41-60.65-44.44-97.55-48.33-34.02-3.97-68.93 3.7-98.89 20.09m5.83 401.86c-.8 2.1-1.03 4.35-.7 6.58q.2 2.46.27 4.93c3.6 2.68 8.22 3.67 12.63 3.88l.64.52q18.57.53 37.13 1.73c3.53.14 7.13.49 10.64-.15 1.53-.98 2.49-2.57 3.52-4.02-11.14.36-22.22-1.02-33.18-2.88-10.64-2.49-20.8-6.6-30.95-10.59m5.3 20.29.57 3.53c.5 2.12.08 5.77 3.05 6.08 7.29 1.52 14.69-.49 22.03-.35 4.44-.04 8.81.92 13.25.91q1.28-2.94 2.52-5.9c-3.3-1.78-7.2-1.51-10.8-2.01-10.17-1.24-20.4-1.77-30.62-2.26m-25.81 13.33a18.6 18.6 0 0 0-7.09 7.16c-2.33 7.65-1.7 15.84-4.31 23.43-1.96 7.62-7.61 14.39-15 17.24q1.43 3.03 2.78 6.11c3.9.04 8.2-.73 10.93-3.78 3.38-4.06 5.43-9.06 7.05-14.04 2.46-9.86 4.02-20.14 9.14-29.09 1.69-1.81 2.97-4.15 5.28-5.26 3.28-1.78 7.11-.85 10.64-.61q-1.16-3.38-2.47-6.69c-5.64 1.87-11.79 2.36-16.95 5.53m30.17 2.93c-1.13 3.73-2.55 7.42-3.08 11.31-1.85 3.61-2.25 8.71.58 11.91 4.62 2.75 10.68 2.02 15.43-.06.49-1.5-.08-3.09-.2-4.6-.8-3.98-1.75-8.12-1.06-12.17.2-1.54 1.99-2.06 3.3-1.64 1.92 1.81 2.6 4.5 3.97 6.71a22 22 0 0 0 4.55 7.72c2.35 2.25 5.66 3.09 8.8 3.54 3.32.62 6.16-1.8 8.21-4.1 2.44-2.77 1.83-6.91.2-9.93a37 37 0 0 1-5.15-7.63c-6.45-.39-12.79-2.55-19.29-1.75-5.4.7-10.84.36-16.26.69m13.02 31.28c-.11 19.72.69 39.42.43 59.14 0 41.18.03 82.36-.01 123.54a60 60 0 0 0 7.27-1.1c-.09-43.61-.01-87.23-.04-130.84-.05-16.85.1-33.7-.08-50.55l-3.33-3.1q-2.16 1.4-4.24 2.91m178.23 124.14a736 736 0 0 1-22.71 15.22c-17.42 11.28-36.05 20.54-54.98 28.98-14.81 6.82-30.2 12.43-46.12 16.03-13.09 3.4-26.58 4.7-39.87 7.06-4.25.08-8.45 1.04-12.7 1.27-6.67-.03-13.85.32-19.78-3.28-2.18-1.19-3.1-3.71-2.81-6.08-6.56 3.34-13.29 6.37-19.69 10.04-1.21.67-2.84 1.28-4.13.49-1.85-1.05-1.39-3.55-.54-5.11 3.46-6.48 7.79-12.44 11.75-18.61 1.29-1.64 2.52-3.33 3.77-5-9.97 2.33-19.75 5.57-28.82 10.36-3.68 1.77-7.22 4.49-11.52 4.22-.81-1.29-2.45-2.7-1.47-4.34 2.12-4.8 5.02-9.22 7.95-13.56q-1.55.62-3.06 1.28l-.14.26c-8.55 4.04-16.48 9.27-24.46 14.31-1.08.63-2.29.97-3.46 1.39l-2.39-1.26c-.31-1.52-.68-3.12.21-4.52 2.15-4.93 5.19-9.41 7.46-14.27 2.57-3.11 4.54-6.66 6.94-9.9-11.81 6.2-23.8 12.09-35.08 19.24-4.46 2.51-8.63 5.66-13.58 7.17-2.03-.3-4.58-1.98-3.57-4.36 2.89-5.03 6.7-9.51 9.35-14.69-7.75 5.45-14.37 12.32-21.5 18.54-2.39 1.83-4.79 4.47-8.08 4.21-2.56-.12-4.75-3.27-3.42-5.6 2.1-3.69 4.31-7.38 5.4-11.51-2.81 2.9-6.47 5.54-8.54 8.83l-.3-.3c-3.89 4.89-8.5 9.15-12.52 13.94-6.27 7.43-13.51 13.91-20.51 20.63-2.24 1.91-4.64 3.99-7.74 4.15-10.04 10.25-20.31 20.32-29.06 31.73 11.29-.71 22.71.6 33.73 3.11 2.88 1.05 6.96 1.43 8.17 4.72-8.71.57-17.46-.25-26.16.65-8.15-.17-16.16 1.5-24.19 2.66-10.32 13.54-18.74 28.46-26.15 43.77 17.44 1.82 34.87 4.44 52.45 4.14 2.17.25 3.61-1.72 5.3-2.72 8.6-6.39 20.67-9.33 30.68-4.54 9.81 4.6 15.61 14.66 18.62 24.68 10.01.05 19.58 3.28 28.68 7.16a17.1 17.1 0 0 1 9.67-16.58c7.44-3.45 15.8-3.77 23.83-4.46 10.88-.06 21.75-.89 32.61-1.22 5.46-3.74 11.67-7.07 18.48-6.89 6.9-.36 13.28 3.12 18.32 7.56 6.56.24 13.09-.38 19.63-.67 17.69-1.37 35.44-1.83 53.12-3.35 13.71-1.12 27.44-2.59 41.21-1.91 4.39.42 8.62 2.96 10.64 6.96 2.12 4.22 3.66 9.06 2.87 13.84-.98 6.41-.53 13.3-3.69 19.19-3.23 5.16-10.19 6.66-15.74 4.76 5.06 18.57 7.5 38.05 4.83 57.22-1.65 13.08-6.44 25.63-13.03 37a81 81 0 0 1-28.56 27.5c-12.71 7.22-26.98 11.45-41.44 13.29-7.99 1.14-16.07.48-24.11.66-8.12.23-16.21-.97-24.12-2.73-12.46-3.61-25.28-7.13-36.11-14.55-3.88-2.29-7.21-5.46-11.31-7.35 2.27 1.72 4.84 3.98 4.72 7.13-.29 2.83-.75 5.72-2.06 8.29l-2.3.06a59 59 0 0 0-.61-6.42c-3.69 8.08-8.75 15.42-13.34 23-7.18 9.93-13.8 20.24-20.52 30.48-3.06 4.59-5.4 9.65-8.87 13.98-4.37 5.47-9.75 10.3-16.18 13.19a28 28 0 0 1-20.87-.39l.1-.2q-2.44-.92-4.84-1.9c-.33 4.2-2.85 8.42-7.12 9.58-4.32 1.36-8.06-1.93-11.24-4.36-1.78 1.49-3.99 2.17-6.16 2.89-2.98 1.93-5.26 4.73-7.9 7.08-6.19 5.93-13.18 10.93-20.09 15.97-5.72 4.03-12.94 5.59-18.23 10.19l-.31.32c7.2 4.21 14.51 8.3 22.45 10.97 24.09 8.57 49.52 12.47 74.84 15.22a617 617 0 0 0 76.79 2.94c7.23.31 14.44-.23 21.65-.7a26 26 0 0 1-5.24-6.38 11.6 11.6 0 0 1-7.47 2.39c-1.39-.86-2.91-1.44-4.41-2.05a21 21 0 0 1-2.28-5.81c-2.53 1.15-5.14.29-7.56-.7-1.79-2.61-3.63-5.31-3.75-8.59-3.07-.59-6.41-1.99-7.64-5.11-1.71-4.16.62-8.63 3.08-11.95 5.91-7.72 13.86-13.55 21.85-18.92 11.45-7.37 24.04-12.83 36.96-17.04 1.12-3.75 2.03-7.59 4.07-10.97-9.97 2.92-20.07 5.34-30.07 8.16-3.75 1.49-7.63-2.25-6.23-6.05a76 76 0 0 1-13.14 6.18c-4.9 1.85-10.26 1.66-15.25 3.21-2.87-.02-5.74-.07-8.59-.33-.38-1.7.2-3.53 2.18-3.63a156 156 0 0 0 33.11-11.4c4.66-2.21 8.55-5.62 12.77-8.49 1.58-1.49 4.35.18 3.67 2.3-1.08 2.84-2.8 5.37-4.25 8.02 9.57-2.84 19.45-4.63 28.85-8.05 10.17-3.9 20.55-7.88 29.35-14.44 1.82-1.49 5.21-.07 4.63 2.51-.9 2.79-2.21 5.42-3.2 8.2 6.4-3.66 12.53-7.76 18.79-11.65 8.43-5.48 17.51-10.29 24.38-17.8 1.83-.84 4.2-.95 5.13 1.25-.16 4.27-1.22 8.43-1.73 12.67 12.88-9.03 25.33-18.72 36.74-29.56 7.16-7.43 15.12-15.01 17.89-25.3a27 27 0 0 0 4.62-10.78c.77-4.01-.2-8.25 1.25-12.14.72-2.04 3.82-2.95 5.22-1.09 2.8 2.82 5.91 5.32 8.71 8.15-.54-8.45-2.21-16.75-3.97-25-1.41-6.96.35-13.99 2.99-20.42a285 285 0 0 0-18.07-18.38c-4.32-3.77-8.62-7.94-10.84-13.34-1.42-3.62.51-7.33 1.5-10.79a45 45 0 0 0 2.27-18.08c.1-1.76-.29-4.84 2.27-4.84a18 18 0 0 1 4.09 4.78c4.22 6.49 8.18 13.15 12.42 19.63 4.45 6.69 9.66 12.82 14.5 19.22 1.4-12.09-5.49-22.73-11.39-32.62-2.38-3.74-2.83-9.68 1.4-12.28 3.5-1.82 7.62-2.37 10.68-5.05-10.59-5.76-20.05-15.23-21.76-27.65-4.56 2.15-9.14 4.38-14.07 5.56-5.09 1.02-9.83 3.98-15.2 3.18-.32-3.87 4.73-4.05 7.32-5.45 4.87-2.02 8.98-5.4 13.58-7.92 7.06-3.97 12.88-9.69 18.41-15.52 6.2-6.46 12.65-12.68 18.66-19.33a155 155 0 0 0 31.27-47.77 190 190 0 0 0 12-51.89c.33-6.3.66-12.72-.62-18.93l-.32-2.78c-3.04.84-5.42 2.97-7.98 4.68m-478.96 19.91q-.03 2.87-.15 5.75a83 83 0 0 0 2.09 23.86c1.3 4.64 2.42 9.47 4.68 13.74 2.95 6.68 7.16 12.9 12.71 17.7 4.27 4.65 9.97 7.63 15.77 9.91 7.77 3.02 15.95 5.12 24.28 5.68l.64-2.46c-3.85-1.92-8.7-2.23-11.68-5.58-1.52-1.49-.66-3.69-.54-5.5-4.47-3.09-9.92-3.95-14.88-5.9-1.81-.69-4.05-2.25-3.39-4.48.88-2.71 4.18-2.83 6.4-3.85-2.69-4.32-6.15-8.06-9.27-12.06l-1.25-1.7c.76-1.1 1.82-3.23 3.51-2.11 10.59 4.52 21 9.53 31.94 13.2 9.26 3.33 18.83 5.65 28.2 8.65 2.62.76 5.19 1.76 7.89 2.2 1.22-.29 1.64-1.68 2.4-2.51 3.34-5.13 7.47-9.66 11.41-14.32a63 63 0 0 0 5.32-6.2 23 23 0 0 0 2.2-1.93 180 180 0 0 1-51.41-.51c-18.77-2.86-35.41-12.55-51.71-21.68-5.16-3.13-10.57-5.95-15.16-9.9m294.25 38.27q.78.84 0 0M30.29 835.52c4.01-2.95 9.05-1.86 13.72-2.18 8.94 1.78 18.03 2.63 27.07 3.64 9.67 1.09 19.24 2.92 28.94 3.74 8.65 1.46 17.34 2.75 26.11 3.15 20.63 2.1 41.29 3.85 61.96 5.5 7.67.68 15.5 1.16 22.8 3.82 4.36 1.6 6.73 5.82 10.09 8.74-1.14-5.69-6.22-10.41-11.85-11.71-16.3-4.57-33.4-4.1-50.14-5.33-19.04-1.43-38.16-2.14-57.1-4.7-6.93-1.57-14.01-2.37-21.02-3.53-8.3-1.41-16.76-1.4-25.08-2.68-4.29-.73-8.66-.53-12.96-1.12-4.22-.22-9.42-.85-12.54 2.66m418.76 13.28c-16.33 1.01-32.68 1.89-49.05 1.77-18.96 1.17-37.98-.19-56.93.96-17.73.95-35.61 1.26-53.03 5-4.41 1.34-10.25 4.33-9.93 9.69 2.65-.9 3.2-4.24 5.59-5.59 9.02-5.44 19.96-6.13 30.24-5.85 11.37-.2 22.71-1.39 34.09-1.41 28.97-1.14 58.01.87 86.95-1.34 16.7-.62 33.53-.98 50.01-4.03-12.64-.94-25.32-.2-37.94.8M28.31 853c2.94 4.02 8.65 1.71 12.76 3.49.85-.81 2.26-1.68 1.55-3.07-.69-2.2-3.67-1.83-5.42-2.61-2.99-1.1-7.28-1.09-8.89 2.19m62.64 10.17c-6.7 1.12-14 1.76-19.44 6.3-2.78 2.01-3.89 5.4-4.76 8.57-3.67 12.98-3.42 26.6-3.16 39.96 2.28 19.42 8.36 39.65 22.73 53.63 9.38 8.49 21.61 13.92 34.31 14.44-2.38-4.47-4.74-9.08-5.42-14.17-.8-6.96-2.46-13.83-2.41-20.86.01-5.38 1.54-10.65 3.85-15.47-3.28.37-6.6-1.96-6.63-5.4-.31-9.77 3.51-19.02 5.74-28.38-3.42 1.38-7.49-1.53-6.5-5.25 3.03-11.46 6.77-22.72 10.4-34-9.57.12-19.21-.94-28.71.63m387.5-.51c-1.13.22-2.49 1.1-2.28 2.43-.09 1.94 2.17 2.52 3.68 2.8 2.67.24 5.41-.2 7.95-1.01 2.32-1.06 1.81-4.92-.68-5.33-2.92-.13-5.82.55-8.67 1.11m-350.31.25c-3.65 8.71-6.08 17.84-9.11 26.77 2.31-1.43 5.38-2.3 7.72-.46 3.74 2.64 3 7.88 2.16 11.77q-2.91 11.3-6.03 22.56c1.49.99 3.16 2.37 2.88 4.39-1.14 7.62-2.71 15.32-1.79 23.05.83 11.91 2.97 24.61 10.87 34.04 13.03-.98 25.29-6.63 35.96-13.94-10.71-9.87-14.55-25-14.82-39.1-.65-21.04 4.88-42.01 14.54-60.63a247 247 0 0 0-19.61-5.93c-7.45-1.86-15.17-1.82-22.77-2.52m108.4 4.68c-1.41.71-3.37 1.14-3.6 3.01 5.39-2.01 11.27-2.51 16.96-2.03 6.18 1.08 12.28 2.72 18.55 3.15-5.85-2.85-12.24-4.38-18.62-5.49-4.44-.44-9.18-.69-13.29 1.36m153.75 4.93c5.67 19.22 5.54 39.77 1.89 59.35-3.12 15.78-8.33 31.46-17.46 44.84-6.23 9.03-14.92 17.07-25.88 19.63 10.95 4.06 22.76 4.05 34.25 4.91 3.97.36 7.96.25 11.94.26 15.73-.14 31.6-5.48 43.57-15.82 7.82-8.18 13.8-18.36 16.02-29.53 3.12-15.47 3.7-31.32 4.06-47.05.54-4.52-.97-8.87-1.73-13.25-.88-4.69-2.28-9.63-5.85-12.98-6.83-5.29-15.45-7.53-23.94-8.16-12.27-1.1-24.57-1.65-36.87-2.2m122.68-.24c.18 3.04 2.36 5.31 3.99 7.7 2.85 3.86 5.02 8.19 7.96 11.99 5.39 6.66 10.46 13.59 16.11 20.04 2.83 3.08 5.81 6.07 8.41 9.36l-.01-1.05c-2.88-2.73-5.12-6.02-7.95-8.78-5.18-5.99-9.22-12.84-14.06-19.09-5.1-6.53-8.53-14.29-14.45-20.17M59.56 926.01c1.13-6.02-1.25-11.92-.69-17.94.04-9.86.76-19.72.49-29.57-2.49 15.62-3.88 32.04.2 47.51m706.16-40.69a53 53 0 0 0-18.67 11.81c-8.8 8.54-17.4 17.29-26.77 25.2-5.67 4.88-11.75 9.26-17.62 13.89-6.02 3.81-12.04 7.71-18.32 11.11l-.04.47-.27-.36c-11.85 6.94-25.94 10.69-35.36 21.27-8.63 9.76-10.21 23.9-7.69 36.27 1.81 10.41 6.04 20.18 8.28 30.48 2.66-.55 5.35-.98 8.08-1.13 4.27-.24 6.87 3.41 10.11 5.53l.02.11c-2.96-1.38-5.95-2.78-9.23-3.14l.06.46a45 45 0 0 0-7.91 1.97c.6 5.24 1.94 10.43 1.62 15.75-.55 8.98-2.19 18.22-7.17 25.89-6.44 9.95-15.24 18.12-24.55 25.36-7 5.08-14.56 9.34-21.83 14.03a13.6 13.6 0 0 1 4.85 5.2q1.15 2.98 2.44 5.94-.08 1.89-.14 3.82l-1.33-3.03q-1.34-2.66-2.79-5.24a34 34 0 0 0-6.36-4.74c-12.21 6.89-23.15 16.33-30.55 28.33-6.52 9.96-9.64 21.8-10.45 33.58l2.94-.74c2.74.15 5.41.87 7.84 2.17l3.76 2.86-.04.21a44 44 0 0 1 6.03 10.67c-1.93-2.14-3.67-4.42-5.56-6.58-.87-2.06-3.16-3.01-4.86-4.27a19.3 19.3 0 0 0-10.25-.56q.03 15.07.01 30.15l3.98-.22c2.2.83 4.05 2.29 5.76 3.9-2.22-1.43-4.81-1.47-7.28-.76l-.03.24q-3.06-.07-2.89 2.83a42.7 42.7 0 0 1-13.05 26.79c-8.01 5.19-18.05 8.68-27.59 6.09-1.92 4.32-4.21 8.47-6.4 12.66l-.23-.02a55 55 0 0 1-3.68 5.28c1.32 6.92 2.36 13.94 1.74 21 6.06.75 12.34 1.87 18.37.36 1.12-4.66 2.74-9.37 2.22-14.22-.38-3.81-1.21-7.55-1.86-11.3l-.43-.01-.12-3.77 1.43 3.46c2.6 8.12 4.92 16.74 3.67 25.33 13.27-2.04 26.69-7.69 34.74-18.88.39-5.3-1.64-10.82-4.93-15.01-1.06-1.5-1.99-3.1-2.28-4.93 1.46.53 2.62 1.56 3.72 2.64 2.68 3.52 5.85 6.68 8.02 10.58 6.64-12.61 9.24-26.98 9.14-41.14-.31-11.3.68-22.58 1.64-33.83.86-10.1 3.09-20.27 8-29.23-1.53-3.67-3.87-6.89-6.22-10.06q-2.14-2.26-4.18-4.58 2.37 1.5 4.61 3.24l2.48 1.86a27 27 0 0 1 5.97 5.35c12.22-17.77 30.93-29.75 50.17-38.73a43 43 0 0 0-1.59-6.78l-.14.09a60 60 0 0 0-3.01-3.15 47 47 0 0 1-6.73-5.05c3.37.53 6.23 2.47 9.1 4.18l3.36 2.34a17 17 0 0 1 3.21 6.36 214 214 0 0 0 16.32-7.97c7.1-3.94 12.15-10.52 16.67-17.08a22 22 0 0 0-5.85-6.08 91 91 0 0 0-8.15-3.92c-1.33-1.04-3.95-1.35-3.51-3.63q2.41.47 4.82 1.09 4.67 1.77 9.5 3.1a31 31 0 0 1 6.24 4.35c5.55-10.63 9.33-22.89 7.21-34.95-1.36-7.19-2.74-14.49-5.62-21.26a51 51 0 0 0-3.05-10.06c-1.01-5.76-2.46-11.44-2.76-17.3q-1.73-.88-3.43-1.68l-.03-.29c-2.87-2.01-5.79-4.03-9.2-4.97v-.08a77 77 0 0 0-14.67-2.31c4.13-2.89 9.47-.48 14.06-.26l-.01.15c2.15.41 4.28.92 6.45 1.31l-.6.31q2.57.92 5.19 1.77l2.06 1.5a84 84 0 0 1 2.08-18.7q-1.47-1.7-2.96-3.34a278 278 0 0 0-4.53-2.8l-2.61-1.4c-3.53-.67-7.13-.62-10.69-.81q1.47-.83 2.97-1.62c3.32.06 6.68-.21 9.98.45q3.7.75 6.97 2.65l2.29 1.95c1.24-2.77 2.53-5.51 3.6-8.33 3.51-4.97 6.87-10.13 11.38-14.32a23 23 0 0 0-4.97-4.16l-.57.56-1.07-1.4 3.33.2a77 77 0 0 1 5.69 2.29c7.04-6.92 16.05-11.04 24.66-15.57-.93-2.82-2.35-5.56-2.36-8.58l2.43 1.13a275 275 0 0 1 3.97 5.89c8.33-3.27 16.64-6.6 24.87-10.1a13 13 0 0 0 1.27-9.46l-.21.13q-1.23-1.89-2.47-3.72l-.3-2.02 1.86 1a83 83 0 0 0 3.39 3.95c1.82 2.1 2.33 4.85 2.13 7.57 7.74-3.19 15.29-7.82 19.68-15.17 2.82-4.8 5.77-10.23 5.26-15.96-1.43-3.7-3.98-8.33-8.55-8.18l-.3-.43q-2.42.48-4.83.91m-583.43.85c-2.6 1.18-4.2 5.54-1.16 7.16 3.94.62 6.26-8.2 1.16-7.16m175.89 2.97c-2.6 3.02-5.29 6.78-3.95 11.03-.09 2.36 2.04 5.53 4.51 3.37 2.58-3.55 4.01-8.42 2.74-12.72-.21-1.43-2.03-2.62-3.3-1.68m107.21.61c-1 7.73.46 15.47.41 23.23-.22 10.33-.45 20.67-.78 31.01a75 75 0 0 1-11.57 35.19c2.32-.76 3.53-2.97 4.64-4.96 4.29-8.2 8.85-16.63 9.58-26.04.78-11.05 1.71-22.11 1.35-33.19-.51-7.04-1.69-14.02-2.22-21.06-.28-1.44.03-3.31-1.41-4.18m-279.03 3.75c-6.92 5.14-9.94 14.04-11.12 22.32-.9 6.61-1.09 13.77 1.88 19.92 1.15 2.77 4.74 5 7.46 2.87 4.08-3.05 5.63-8.23 7.24-12.83 2.56-8.91 3.83-18.62 1.4-27.68-.59-2.95-3.67-6.4-6.86-4.6m112.26 21.63c-.82 12.7 3.2 25.05 6.94 37.01 1.27 3.23 1.96 6.95 4.5 9.47-5.57-21.94-4.42-45.11 1.15-66.92-6.29 5.2-10.46 12.64-12.59 20.44m47.72-19.75c-2.57 1.73-5.14 3.73-6.31 6.71-3.92 8.7-5.25 18.37-5.4 27.84.4 4.72.34 10.09 3.51 13.96 2.09 2.36 5.83 1.03 7.23-1.43 4.52-6.79 6.04-15.04 7.25-22.96.87-7.28 1.63-15.01-1.15-21.97-.62-2.01-3.3-3.79-5.13-2.15m-102.13 14.37c-5.39 11.5-9.49 23.83-17.45 33.93-.57.89-1.79 1.73-1.45 2.95 1.46-.31 1.43-2.51 2.41-3.48a144 144 0 0 0 13.09-18.72l1.65.41c-2.64 10.46-10.05 18.82-16.74 26.96-9.5 10.44-18.72 21.23-29.43 30.48-3.73 2.85-7.62 5.49-11.28 8.45 5.55-1.45 11.3-1.47 16.96-2.13 15.52-.04 27.48 17.86 22.55 32.33-.99 4.52-4.2 8.01-6.19 12.08-3.28 1.38-6.04 3.81-9.49 4.85-9.1 3.37-18.95 1.6-28.26.27 6.44 4.34 13.6 7.98 21.41 8.87 20.37 3.26 41.98 1.4 60.85-7.31 6.05-2.66 12.19-5.32 17.38-9.49 5.85-4.75 10.86-10.41 16.26-15.63 3.49-3.31 5.71-7.69 9.17-11.01-3.67-1.53-8.03.06-11.38-2.35.78-2.85 3.8-3.78 6.33-4.38 3.68-.88 7.43.1 10.95 1.17-10.7-8.11-20.05-18.07-27-29.59-3.77-5.85-6.33-12.34-9.68-18.42a211 211 0 0 1-13.27-29.91c-1.34-3.83-4.33-6.75-7.22-9.45-2.77-2.6-6.86-1.64-10.17-.88m46.89 11.51q-1.25 1.86.71 2.25 1.24-1.9-.71-2.25m-82.95 12.6a54 54 0 0 1-12.22 18.12c-10.99 12.89-25.1 22.77-39.99 30.62 4.05-1.29 8.06-2.83 11.67-5.1 10.81-6.42 21.51-13.59 29.5-23.45 5.41-6.28 10.76-13.11 12.71-21.35.65-2.55 1.95-4.92 2.14-7.58-2.14 2.52-1.86 6.08-3.81 8.74m84.74-1.47c1.99 8.49 3 17.27 6.4 25.38 3.22 7.56 5.86 15.54 10.82 22.2 3.23 4.33 6.67 8.57 10.99 11.87 6.79 5.83 15.28 9.16 23.8 11.54a81 81 0 0 0 23.15 3.39c6.13-.08 12.23 1.07 18.37.59-10.57-1.35-20.98-3.63-31.52-5.16-14.14-2.38-28-8.6-37.81-19.27-11.72-12.43-17.14-29.05-22.13-45.01-1.16-3.72-1.66-7.59-2.47-11.38a27 27 0 0 0 .4 5.85M62.44 944.95a61 61 0 0 0 14.1 26.57c7.51 9.07 18.77 14.59 30.39 15.92 5.65.02 11.27.61 16.91.84-6.83-2.28-14.12-2.47-20.99-4.55-6.43-1.87-12.72-4.52-18.18-8.43-8.7-7.51-14.31-17.84-19.06-28.14-1.77-3.82-2.51-7.99-3.09-12.12-.37 3.27-.85 6.65-.08 9.91m247.61 17.12c-1.4 3.09 3.27.02 0 0m-141.39 28.72c-5.6 3.27-11.69 5.58-17.81 7.68q3.79 1.87 7.51 3.87a23 23 0 0 1 8.07-4.7c3.16-.93 4.96-3.84 7.43-5.78 6.08-4.92 12.57-9.29 18.62-14.23-2.41.13-4.83.19-7.22-.11-5.05 4.97-10.41 9.74-16.6 13.27m-2.19 13.88q.05 2.2.07 4.45.6 2.18 1.18 4.4c3.54 9.34 13 14.31 21.58 18.19 6.42 3.25 14.15 2.73 20.54-.29 5.11-1.94 10.47-5.68 11.17-11.54 1.19-8.66-1.4-18.93-8.89-24.12l-.37.12a24 24 0 0 0-13.74-4.16c-11.43 1.08-22.89 5.28-31.54 12.95m-1.15 35.67a177 177 0 0 1-8.7 4.41c1.88 2.79-.59 5.57-2.66 7.34-6.15 5.21-13.27 9.1-19.79 13.82l-.2-.06c-4.22 3.15-8.59 6.09-12.69 9.4 0 1.44.6 3.14-.5 4.38-2.4 3.39-4.82 6.78-6.65 10.52l4.8-3.46c1.32.85 2.75 2.3 1.83 4.02-2.42 5.48-4.98 11.16-4.82 17.3-.17 4.71 1.07 10.36 5.78 12.53l.09.42c13.42 2.07 26.79-2.07 39.18-6.88 5.46-2.51 11.37-4.22 16.25-7.86 4.18-3.03 9.5-4.6 12.78-8.76q-2.02-.42-4.06-.78c-1.25 1.5-2.31 3.24-3.96 4.36-2.45 1.29-5.42-.18-7.9 1.03-2.76 1.17-5.59 2.67-8.68 2.49-2.59-.39-4.91-1.71-7.29-2.72-1.97-2.59-3.87-5.49-3.73-8.88-.61-6.07 4.67-10.25 9.13-13.32 10.88-6.62 22.75-11.52 34.95-15.14-3.32-1.41-6.96-.89-10.44-1.14-14.46-1.06-29.33.32-42.81 5.92-2.37 1.08-5.22 1.52-7.04 3.5a8 8 0 0 1-3-1.49 65 65 0 0 1 4.51-2.44c7.76-2.71 14.68-7.6 22.83-9.2 8-1.64 16.2-2.25 24.36-2.19 7.06.64 14.52 1.04 20.6 5.12.76.96 2.02 1.91 3.29 1.97a3.5 3.5 0 0 0-.78-2.79c-1.39-3.56-3.37-7.82-7.73-8.18-11.59-2.23-21.9-8.62-30.29-16.76q-3.33 1.74-6.66 3.52m317.95-.22c-8.15 5.72-16.25 11.84-25.51 15.69-3.42 1.97-8.76-.62-8.21-4.82a44 44 0 0 0 1.29-8.68 152 152 0 0 1-14.18 11.37c-8.53 5.91-16.76 12.5-26.37 16.61-3.09 1.4-7.59 1.25-9.14-2.27-1.12-3.54 1.4-6.79 2.94-9.76-3.72 3.1-8.98 3.85-12.25 7.57-4.2 4.75-8.32 9.6-13 13.89 8.27-2.48 16.95-3.29 25.53-3.36 6.34.69 13.07-1.08 19.07 1.74-.96 1.71-2.93 2.08-4.63 2.68-7.19 1.93-14.6 2.65-21.96 3.47-8 .9-15.55 3.75-23.17 6.16-8.45 3.43-16.96 6.7-25.34 10.29-5.48 2.98-10.97 5.98-16.12 9.52-4.32 2.93-8.81 5.86-11.89 10.16l-.18-.02-1.44 2.46-.35 3.75q1.43.92 2.88 1.89 1.25-2.17 2.55-4.29c2.42-3.42 5.55-6.21 8.45-9.2 1.99-1.24 3.95-2.59 6.29-3.06.79 1.39.63 2.94-.7 3.94-4.11 4.28-8.26 8.75-10.65 14.27-.36 2.1-1.51 4.63.01 6.56 1.03 1.19 2.53 3.07 4.28 2.08.75-1.79 1.29-3.65 1.87-5.49 3.11-5.56 6.86-11.72 13.32-13.72-.07 2.64-1.82 4.73-3.12 6.9a52 52 0 0 0-5.62 11.94 47 47 0 0 0 .23 6.49c1.92.9 3.97 1.97 6.11.98.16-2.83.83-5.59 1.79-8.24 1.73-3.42 3.4-6.99 6.05-9.8l2.2-.35c-.73 4.67-2.58 9.05-3.79 13.61-.14 3.23.75 7.64 4.56 8.27 6.47.91 12.3-4.21 13.75-10.33 1.45-3.99 1.09-8.41 2.58-12.31.76 1.75-.16 5.89 1.97 6.1l.5.41.01.64c12.26 7.53 26.8 9.72 40.51 13.35-2-3.68-5.14-6.93-5.81-11.18l3.2-.39c6.55 3.07 13.06 6.25 19.85 8.77 8.73 3.48 18.21 4.39 27.53 4.34a7.2 7.2 0 0 0 4.63.03c-.16-1.23-2.01-1.87-3.12-1.89l.27-.3a43 43 0 0 1-11-10.68l1.21-1.99c5.78-1.06 11.72-.02 17.55.17-3.57-2.7-5.89-6.58-8.9-9.82a12 12 0 0 1-2.42-3.97c6.44 4.23 11.55 10.44 18.71 13.69 10.65-4.03 21.43-8.4 30.33-15.68-1.09-6.26-3.58-12.13-5.22-18.23-1.4-5.27-4.27-9.95-6.38-14.92-2.35-5.43-6.09-10.07-8.9-15.23-1.49-2.43 1.36-5.91 4.05-4.77a102 102 0 0 0 14.52 3.77c-5.25-10.81-12.66-20.44-21.22-28.81m-32 1.17q.78.78 0 0m-224.3 33.62c1.02.7 2.06 1.47 3.09 2.22 3.42 1.79 7.07 3.45 11.01 3.47 5.64.11 10.96-2.28 15.72-5.09q1.59-1.68 3.19-3.34c-1.81-2.87-4.63-5.15-8.05-5.61-9.04-1.17-18.29 2.26-24.96 8.35m-37.05-3.33c-9.74 3.31-19.84 6.97-27.29 14.36a11.2 11.2 0 0 0-2.84 8.15c.68 2.1 1.82 4.04 3.77 5.21 2.43 2.26 7.64 2.21 8.79-1.27l-.76.07c-1.34-1.59-2.48-3.59-4.41-4.5l-.88-.14.05-.17-1.42-1.01q2.3.32 4.63.45c2.66 1.04 4.49 3.4 6.97 4.66 3.51.71 5.19-3.14 6.46-5.67l-.76-3.12c.27-1.22.14-2.82 1.59-3.34l.84 2.68c.42 2.18 1.35 4.2 2.43 6.14 1.36-.24 3.08.28 4.13-.86 1.71-1.9 1.27-4.63.76-6.89l-.48.16c-.76-2.23.04-5.23 2.85-3.32a40 40 0 0 1 2.89 5.69c2.52.51 5.53-.39 6.59-2.91 1.15-2.14-.67-4.13-1.5-5.98a93 93 0 0 1-1.83-4.12c2.72.48 3.69 3.31 5.15 5.28a41 41 0 0 0 5.61 7.17c2.31 2.11 5.78 1.7 7.25-1.15q-.26-2.6-.49-5.15l-.23-.1a19.7 19.7 0 0 0-6.84-10.61l-.15.09c-6.35-4.28-14.24-2.08-20.88.2m320.06 50.36c-3.16 3.25-7 5.69-10.83 8.06-5.7 3.22-11.71 5.82-17.75 8.31-5.75 2.36-11.78 3.99-17.7 5.88 3.32 2.22 6.92 3.97 10.38 5.95l.58 2.84c12.24-4.19 24.66-8.56 35.49-15.79 4.14-2.55 8.13-5.54 11.07-9.45l.5.06c2.2-3.88-.42-9.04-4.67-9.86-2.84.15-5.2 2-7.07 4m-360.37 21.38c8.05 5.06 16.93 8.67 25.9 11.78 34.95 11.38 71.81 15.43 108.37 17.38 4.91-7.44 14.99-10.2 23.31-7.68 4.5 1.42 8.02 4.79 10.92 8.39a652 652 0 0 0 75.87-4.2c25.36-2.9 50.72-7.04 75.18-14.5-9.41.25-18.93.45-28.18-1.56-2.95-.4-5.85-1.86-8.86-1.24a451 451 0 0 1-36.51 5.62c-4.85.79-9.75 1.19-14.63 1.71-44.84 4.2-90.14 4.34-134.92-.66-23.56-2.76-47.15-6.77-69.59-14.7-6.13-2.35-12.25-4.87-17.85-8.33-2.47-1.33-4.74-3.56-7.64-3.7-5.89.33-5.64 9.24-1.37 11.69m221.88-7.46c.25 6.8-2.27 13.84-7.11 18.7 13.3-1.6 26.85-2 39.96-4.7-11.13-4.1-23.72-5.81-32.85-14m76.7 30.35c-22.71 5.16-45.84 8.22-69.01 10.42-11.33.82-22.66 1.76-34.03 2.09 3.3 4.73 3.37 10.76 2.94 16.29 4.92.19 8.5 4.56 9.54 9.09 1.24 4.86.25 10.04-1.93 14.49 5.79.9 10.69 4.74 13.99 9.45l.29-.22c6.4 4.37 11.88 10.75 13.63 18.46 1.57.94 3.33 1.74 5.2 1.13 4.18-1 8.34.73 11.88 2.84 3.69 2.22 7.71 4.13 10.61 7.42 3.46 3.89 7.55 7.17 11.03 11.05 1.19.66 1.77 3.71-.38 3.05-4.19-2.16-7.53-5.72-11.41-8.4l.06-.19q-1.13-.7-2.24-1.36c-3.77-1.63-7.71-2.91-11.29-4.94-3.04-1.64-6.07-3.72-9.64-3.83-.93 1.86-1.64 4.24-4.16 4.14-3.23-5.39-5.23-11.49-9.23-16.41-.8 3.63-1.46 7.42-3.74 10.48-2.48 3.34-4.27 7.73-8.37 9.39-2.8-2.36 1.14-5.24 1.94-7.76 3.8-5.44 1.73-12.34-1.21-17.64-2.66-4.83-6.03-10.42-11.97-11.35 2.45 3.07 5.74 5.76 6.68 9.77 2.11 6.94-.05 14.61-4.65 20.08-4.46 5.29-10.53 9.88-17.66 10.44-7.24.6-15.11.31-21.3-3.95-7.42-5.26-13.91-12.47-16.61-21.31-.5-.99-.48-2.49-1.76-2.74-4.9 6.71-6.96 16.5-2.58 24 2.6 4.71 7.38 7.61 10.49 11.94-4.94-1.17-8.13-5.48-11.95-8.48-5.81-4.73-7.21-12.72-6.86-19.82-5.73 4.87-8.26 12.23-11.19 18.92l.08.34c-1.51 6-2.3 12.23-1.72 18.42 1.32-1.11 2.18-3.45 4.16-3.36 2.71 1.51 1.37 5.13 1.71 7.65-.25 5.9.22 11.86 1.66 17.61l.25.17c1.51 8.59 7.38 15.62 13.43 21.58 1.61 1.78 4.11 3.22 4.24 5.9-1.33-.19-2.68-.47-3.73-1.34-6.64-5.09-13.06-10.7-17.28-18.03-2.94-8.06-5.68-16.86-3.31-25.45-1.02 1.34-3.58 2.76-4.34.44a76 76 0 0 1 .93-28.77c2.84-10.16 9.58-18.74 17.43-25.54-5.67-.2-11.64.35-16.97-1.94-6-2.91-7.69-10.39-6.91-16.48.49-6.46 3.46-13.63 9.88-16.17 3.12-1.17 5.74-3.27 8.66-4.83-.52-4.81-1.36-9.72-.02-14.47-35.6-2.12-71.4-6.23-105.51-17.06l.04-.16c-10.23-3.06-19.97-7.66-29.1-13.17-2.97.33-5.5 2.4-8.19 3.63-8.75 4.42-15.79 11.45-22.11 18.8-7.08 8.8-13.92 18.17-17.48 29.01 2.55 2.67 4.9 5.72 5.73 9.41 1.71 5.48-.08 11.6-4.06 15.65 2.8 1.22 5.59 2.79 7.31 5.42 3.64 5.03 3.82 11.48 4.41 17.43-1.93 3.12-1.82 7.05-3.81 10.16-2.22 3.45-4.94 6.96-8.94 8.42 1.12-3.1 3.7-5.27 5.39-8.02 2.58-3.79 2.07-8.65 1.93-12.98-.58-7.03-3.87-15.01-11.29-17.06 1.2 3.65 4.54 6.14 5.49 9.92 2.78 9.19-1.66 19.54-9.62 24.62-5.29 3.25-11.4 5.4-17.64 5.55-8.02-.05-16.62-2.79-21.55-9.46-3.05-3.94-3.82-8.96-5-13.66-.57 3.98-1.58 8.09-.57 12.1.83 3.91 3.04 7.36 5.47 10.49 2.24 2.92 5.73 4.36 8.7 6.37-7.48-.76-13.42-6-17.61-11.9 0 6.48 1.81 12.94 5.01 18.57 3.61 5.64 8.79 10.04 13.87 14.3l.85-2.96 2.51.34c2.5 2.6 4.41 5.74 7.25 8.03 6.45 6.63 14.96 10.6 23.42 14-.28-1.83-.2-4.32 2.28-4.05 2.88 2.42 4.96 5.66 8.04 7.89l1.27-2.84c2.55.21 3.98 2.51 5.67 4.14a29 29 0 0 0 8.87 6.71c.49-12.73 1.15-25.55-.57-38.21-1.05-4-2.69-7.82-3.67-11.83-2.35-7.75-3.09-15.81-4.43-23.74-2.65-32.59 9.98-66.21 34.07-88.43 1.27-.85 2.58-2.7 4.28-2.02 1.03 2.79-1.52 5.26-2.76 7.57-11.82 16.91-17.81 37.22-19.91 57.6l.27.43c-2.33 14.71-1.39 29.87 1.31 44.48 2.9 10.11 7.14 19.79 11.7 29.26 6.98 15.78 17.81 30.08 32.01 40.04 7.5 5.26 14.96 10.6 22.67 15.56.92-4.1 1.16-8.33 2.15-12.41a5 5 0 0 1 5.32-3.57c7.12.11 13.61 3.49 20.07 6.11 9.85 4.55 20.26 7.86 29.86 12.98 1.03-2.88 2.57-6.38 6.16-6.44 5.85 0 11.42 2.15 17.02 3.62 10.44 3.32 21.27 5.11 32.05 6.98 8.9 1.23 17.74 3.6 26.8 3.02 13.52-.64 27.16.91 40.57-1.5 7.23-.76 14.24-3.38 21.55-3.14 3.31.84 2.09 5.06 2.36 7.59-1.05 2.99-3.72 5.27-4.83 8.34 7.1-3.02 14.14-6.22 20.86-10.02 7.62-4.53 14.62-10 21.52-15.53 7.32-5.97 14.77-11.81 21.59-18.36 2.45-2.25 4.05-5.24 6.43-7.53 1.63-1.54 4.66-1.22 5.49 1.01.28 4.29-.08 8.6.01 12.91 2.26-2.54 3.3-5.82 4.67-8.85 3.92-9.7 7.96-19.6 8.63-30.16 2.28-21.22-1.48-44.13-14.66-61.41a59 59 0 0 0-16.16-19.28c-7.99-6.4-17.25-10.91-25.65-16.69q-.85-1.63.83-2.34c3.82.11 7.27 1.95 10.8 3.24 8.26 3.17 16.45 6.74 23.7 11.9 7.2 4.71 12.52 11.59 18.11 18 6.47 7.33 11.05 16.04 15.57 24.64 5.74-12.96 11.03-26.23 14.1-40.1 4.44-25.26 2.98-51.2-1.29-76.37-19.36 11.38-41.14 17.72-62.89 22.74m-399.92 8.04c-2.07.94-3.45 2.84-5.01 4.43-2.36 3.84-3.56 8.69-2.12 13.09 1.28 4.65 4.74 8.37 8.47 11.27q-.08.94-.11 1.95c-4.18-3.18-8.68-6.23-11.51-10.76l-.19.14c.01-2.25-2.16-2.56-3.79-1.99a10.5 10.5 0 0 0-6.39 7.11c0 2.51-.89 5.75 1.38 7.6 3.01 1.92 6.49 2.98 9.98 3.65 3.03.18 6.31.48 8.8 2.42 2.3 1.68 3.07 4.57 3.98 7.13a27 27 0 0 0 3.27 7.62c4.26-1.44 6.04-5.78 8.82-8.88-.62 3.05-2.08 5.86-2.66 8.93-.73 3.82-3.06 7.02-4.54 10.55-1.17 2.45.19 5.08.88 7.47 3.82 9.24 15.27 13.74 24.55 10.62 3.26-.86 6.45-2.64 7.98-5.77 3.56-6.46 2.16-14.33-1.25-20.53-4.19-.3-8.82-1.01-11.58-4.55-6.78-9.03-3.03-24.11 7.57-28.43-.47-5.25-1.05-10.61-3.18-15.48-2.63-6.64-10.65-8.9-17.14-7.54l-1.65.64c-4.07 3.92-6.45 9.41-6.97 15-.26 6.36 4.6 12.11 10.46 14.05l.11 1.37c-7.95-.87-13.48-8.68-13.7-16.32-.12-2.81.72-5.52.72-8.3l-.31-.71.74-.09c1.3-1.25 1.21-3.37 1.67-5.01-2.37-.4-4.94-1.96-7.28-.68m241.28 6.35.08.25c-5.27 7.14-2.72 19.97 6.47 22.45 4.5 1.36 8.97-.63 12.44-3.43q.51-3.13 1.08-6.21l.3-.05q1.25-2.86 2.75-5.56l-.53-3.45-.22-.01c-1.33-4.17-4.21-8.73-8.99-9.15-4.8-.12-10.64.68-13.38 5.16m29.52 5.13c-.74 2.29-1.58 4.55-2.26 6.88-3.4 4.92-4.33 13.88 2.16 16.74 4.22.98 8.18-1.55 11.35-4.06 2.61-2.36 6.43-3.6 7.57-7.25a13 13 0 0 0 0-6.33c-1.12-3.56-2.66-7.82-6.81-8.67-4.08-.56-9.09-.77-12.01 2.69m-238.34 15.79c-5.02 5.74-7 16.69.26 21.48 7.31 3.67 16.17-2.42 17.59-9.98.26-5.16-1.15-11.08-5.68-14.1-4.25-1.63-8.54.49-12.17 2.6m189.86 6.15c-2.85 4.58-1.91 11.01 2.65 14.13 8.6 6.34 21.56 1.42 26.3-7.39l1.63-.18q-.34 1.71-.66 3.48a76 76 0 0 1-2.33 4.46c2.95.96 5.62 2.6 7.62 5.01 1.03 1.51 2.65-.22 3.89-.47 3.18-1.82 6.66-.08 9.81.87l.12.39c.79.36 1.61.78 2.41 1.18l-2.57.46.36-.94c-4.31.01-8.16 1.96-11.52 4.51-1.31 4.24.63 8.77 3.93 11.53 7.56 6.68 19.9 9.47 28.7 3.68 2.36-2.19 5.29-4.14 6.2-7.42 2.75-5.03 1.24-11.6-2.25-15.93-3.81 2.5-8.9 3.76-12.99 1.07-5.18-2.45-6.35-8.78-5.05-13.88-2.81 2.01-6.48 3.07-9.82 1.78-4.12-1.73-6.72-5.85-7.85-10.02-3.95 1.7-7.58 5.03-12.21 4.19-5.4-.38-9.24-4.5-12.87-7.95-4.98 1.46-10.4 2.91-13.5 7.44m66.12-3.41c-2.52 2.47-5.42 5.02-5.97 8.72-1.61 6.12 6.84 11.23 11.73 7.52 2.81-1.79 4.26-4.88 5.69-7.76.41-2.71.94-5.53.24-8.22a10.7 10.7 0 0 0-7.86-3.9 333 333 0 0 1-3.83 3.64"/><path d="M564.67 706.67c2.35-.86 4.89-.62 7.35-.64-1.42 5.75-3.24 11.39-4.8 17.11-1.14 4.32-3.96 7.89-6.73 11.3-5.66 7-12.33 13.08-18.75 19.38q3.74.07 7.49.21c.91 4.8-3.5 7.79-6.43 10.78-9.17 8.28-18.62 16.45-29.41 22.58 1.22 1.3 3.93 2.11 3.39 4.31-1.58 3.53-4.76 5.99-7.53 8.59-6.45 5.52-12.84 11.12-19.59 16.28-2.49 1.95-5.24 3.89-8.56 3.82-2.43-1.04-3.17-3.79-2.16-6.09l.5-1.3c1.97-3.47 4.09-6.85 6.01-10.34-3.32-.22-6.66 0-9.95-.47-1.62-.86-2.95-2.14-4.36-3.26q.47-1.17 1.01-2.29c2.3-2.8 4.5-5.7 6.16-8.93a341 341 0 0 0-22.92-.03c-.58-1.02-1.16-2.04-1.62-3.1 1.33-1.63 2.65-3.27 4.05-4.83 2.48-2.4 5.19-4.59 7.44-7.22-9.2-.7-18.47-1.18-27.45-3.51l-2.55-1.08c-5.72-2.98-13.3-3.35-17.12-9.13l-.93-1.11 3.05-.85c7.83-1.36 15.76-2.2 23.46-4.26 19.72-4.94 39.24-10.89 58-18.79 21.1-8.77 41.92-18.2 62.95-27.13m-205.54 84.96c18.25-2.83 37.96-.59 53.76 9.52 4.28 2.95 8.66 5.8 12.62 9.2 3.95 3.3 5.74 8.29 8.89 12.24 1.34 2.08 3.85 4.77 1.66 7.19-2.79-2.51-5.09-5.48-7.86-7.99-11.64-9.44-25.56-15.7-40.02-19.37-12.47-2.56-25.24-3.21-37.92-3.54-1.35-.63-1.64-2.16-.58-3.2 2.61-2.31 6.09-3.37 9.45-4.05M169.6 1011.41c3.34-3.61 8.16-.9 11.94.35l-.26 1.65a33 33 0 0 0-5.94-1.61l1.99 4.48-.21 2.45c-3.91-.31-6.72-3.69-7.52-7.32m29.69.74a28 28 0 0 1 7.39-.99c1.51 1.14 3.78 2.41 3.15 4.7-.87 2.74-3.33 4.68-5.96 5.63a100 100 0 0 0 3.33-6.82c-3.27-.49-6.01 1.32-8.74 2.78-1.25.88-2.27-.76-3.32-1.18a37 37 0 0 1 4.15-4.12"/></g><path fill="#00a777" d="M375.23 75.18c29.96-16.39 64.87-24.06 98.89-20.09 36.9 3.89 71.71 21.92 97.55 48.33 14.89 14.66 26.87 32.08 36.3 50.67 7.6 15.5 13.92 31.78 17.52 48.68a194 194 0 0 1-37.67 111.07c-19.62 26.43-46.26 47.76-76.71 60.38-31.27 13.43-66.9 16.7-99.99 8.57a145 145 0 0 1-54.27-26.68c-23.15-18.11-40.21-43.37-49.99-70.97-6.76-18.95-9.89-39.06-10.21-59.13-.02-29.26 7.37-58.22 19.77-84.62 4.88-10.05 9.91-20.18 16.98-28.9 1.32-1.73-.29-3.38-1.39-4.64a193 193 0 0 1 43.22-32.67m55.43-11.55c-5.13 1.26-10.38 2.61-14.71 5.77l1.93 1.02c5.75-.48 11.26-2.5 17.02-3.01 16.98-2.29 34.03 1.14 50.48 5.13 28.43 8.44 54.53 23.87 76.97 43.11 12.5 11.42 23.78 24.59 31.09 39.98 1.65 3.3 2.43 7.09 4.8 10 1.1.4 2.84.35 3.35-.94.19-2.34-.84-4.55-1.74-6.65-5.46-11.52-11.14-23.02-18.54-33.46-9.82-13.87-21.3-26.75-35.02-36.87a138.6 138.6 0 0 0-58.36-25.58c-18.84-4.42-38.58-2.94-57.27 1.5m83.66 50.79c-4.08 1.46-6.72 5.43-7.53 9.56-1.22 6.37-1.87 13.02-.26 19.39 3.93 17.37 13.27 33.71 26.85 45.32 5.72 4.61 12.88 9.42 20.6 7.53 6.05-1.77 8.67-8.48 8.96-14.25.67-12.53-3.44-24.81-8.97-35.89-5.5-10.31-12.4-20.23-21.9-27.23-5.06-3.48-11.55-6.75-17.75-4.43m39 95.05c-2.87 3.36-3.19 8.41-2.15 12.59 1.57 6.81 4.04 13.7 8.71 19.03 1.67 1.98 5.26 3.47 7.12.93 2.05-3.9 1.2-8.51.5-12.65-1.43-6.64-3.66-13.41-8.21-18.59-1.42-1.61-4.11-3.02-5.97-1.31"/><path fill="#008962" d="M390.72 513.59c5.42-.33 10.86.01 16.26-.69 6.5-.8 12.84 1.36 19.29 1.75a37 37 0 0 0 5.15 7.63c-3.53 3.13-7.4 6.83-12.44 6.77-3.56.16-6.59-1.99-9.32-4-1.37-2.21-2.05-4.9-3.97-6.71-1.31-.42-3.1.1-3.3 1.64-.69 4.05.26 8.19 1.06 12.17-3.41 1.18-7.2 2.66-10.77 1.15-3.38-1.3-4.05-5.35-5.04-8.4.53-3.89 1.95-7.58 3.08-11.31"/><g fill="#00e5a3"><path d="M430.66 63.63c18.69-4.44 38.43-5.92 57.27-1.5a138.6 138.6 0 0 1 58.36 25.58c13.72 10.12 25.2 23 35.02 36.87 7.4 10.44 13.08 21.94 18.54 33.46.9 2.1 1.93 4.31 1.74 6.65-.51 1.29-2.25 1.34-3.35.94-2.37-2.91-3.15-6.7-4.8-10-7.31-15.39-18.59-28.56-31.09-39.98-22.44-19.24-48.54-34.67-76.97-43.11-16.45-3.99-33.5-7.42-50.48-5.13-5.76.51-11.27 2.53-17.02 3.01l-1.93-1.02c4.33-3.16 9.58-4.51 14.71-5.77"/><path d="M514.32 114.42c6.2-2.32 12.69.95 17.75 4.43 9.5 7 16.4 16.92 21.9 27.23 5.53 11.08 9.64 23.36 8.97 35.89-.29 5.77-2.91 12.48-8.96 14.25-7.72 1.89-14.88-2.92-20.6-7.53-13.58-11.61-22.92-27.95-26.85-45.32-1.61-6.37-.96-13.02.26-19.39.81-4.13 3.45-8.1 7.53-9.56m39 95.05c1.86-1.71 4.55-.3 5.97 1.31 4.55 5.18 6.78 11.95 8.21 18.59.7 4.14 1.55 8.75-.5 12.65-1.86 2.54-5.45 1.05-7.12-.93-4.67-5.33-7.14-12.22-8.71-19.03-1.04-4.18-.72-9.23 2.15-12.59"/></g><path fill="#008962" d="M266.58 240.43c7.73-49.38 29.72-97.18 65.43-132.58 1.1 1.26 2.71 2.91 1.39 4.64-7.07 8.72-12.1 18.85-16.98 28.9-12.4 26.4-19.79 55.36-19.77 84.62.32 20.07 3.45 40.18 10.21 59.13 9.78 27.6 26.84 52.86 49.99 70.97a145 145 0 0 0 54.27 26.68c33.09 8.13 68.72 4.86 99.99-8.57 30.45-12.62 57.09-33.95 76.71-60.38a194 194 0 0 0 37.67-111.07c5.32 21.27 6.8 43.37 6.05 65.24-1.26 30.83-8.73 61.27-21.14 89.49-1.34 4.24-5 7.09-6.52 11.26a225 225 0 0 1-34.86 45.22c-13.87 14.62-30.53 26.43-48.44 35.57-11.96 5.87-24.24 11.37-37.17 14.71q-5.32.29-10.51 1.48c-18.68 3.87-37.86 3.25-56.82 2.97-6.88.07-13.5-2.25-20.37-2.24-7.78-1.39-15.15-4.6-22.35-7.79-18.03-8.11-34.26-19.92-47.99-34.1-16.96-16.96-30.64-36.95-41.69-58.17-2.26-4.51-4.58-9.01-6.33-13.75-12.62-35.82-16.01-74.68-10.77-112.23"/><path fill="#181410" fill-opacity=".47" d="M629.5 199.74c.5 1.01 1.02 2.04 1.29 3.16 6.67 28.78 7.63 58.76 3.8 88.01l-.82 1.45c1.45-15.72 3.25-31.53 1.97-47.32-.53-15.28-3.36-30.33-6.24-45.3"/><path fill="#1c1814" fill-opacity=".56" d="M260.19 247.99c1-5.4.57-11.16 2.78-16.27-.48 4.09-.81 8.2-1.41 12.28-2.03 14.57-2.19 29.31-1.68 43.99.42 8.21 1.7 16.34 2.28 24.54-1.88-3.88-1.41-8.37-2.16-12.52a267 267 0 0 1 .19-52.02"/><path fill="#006044" d="M472.9 465.74q5.2-1.19 10.51-1.48c-18.76 6.04-38.74 7.97-58.39 7.05-9.85-.94-19.83-1.84-29.31-4.84 6.87-.01 13.49 2.31 20.37 2.24 18.96.28 38.14.9 56.82-2.97"/><path fill="#6696a7" d="M381.06 477.04c10.15 3.99 20.31 8.1 30.95 10.59 10.96 1.86 22.04 3.24 33.18 2.88-1.03 1.45-1.99 3.04-3.52 4.02-3.51.64-7.11.29-10.64.15a1047 1047 0 0 0-37.13-1.73l-.64-.52c-3.99-3.39-8.87-5.48-12.9-8.81-.33-2.23-.1-4.48.7-6.58m5.3 20.29c10.22.49 20.45 1.02 30.62 2.26 3.6.5 7.5.23 10.8 2.01-3.11 1.14-6.37 2.17-9.72 1.84-10.37-1.03-20.79-1.21-31.13-2.58zm-25.81 13.33c5.16-3.17 11.31-3.66 16.95-5.53q1.31 3.31 2.47 6.69c-3.53-.24-7.36-1.17-10.64.61-2.31 1.11-3.59 3.45-5.28 5.26l.45-2.36c-3.8.24-7.45 1.31-11.04 2.49a18.6 18.6 0 0 1 7.09-7.16m43.19 34.21a94 94 0 0 1 4.24-2.91l3.33 3.1c.18 16.85.03 33.7.08 50.55q-3.79 4.04-7.22 8.4c.26-19.72-.54-39.42-.43-59.14m-254.13 598.45c-4.27-2.45-4.52-11.36 1.37-11.69 2.9.14 5.17 2.37 7.64 3.7 5.6 3.46 11.72 5.98 17.85 8.33-2.29 3.5-1.79 7.57-.96 11.44-8.97-3.11-17.85-6.72-25.9-11.78m349.42-5.13a37 37 0 0 1 11.12-1c-10.83 7.23-23.25 11.6-35.49 15.79l-.58-2.84c-3.46-1.98-7.06-3.73-10.38-5.95 5.92-1.89 11.95-3.52 17.7-5.88 5.85.77 11.81 1.07 17.63-.12m-103.42 19.12a451 451 0 0 0 36.51-5.62c3.01-.62 5.91.84 8.86 1.24 9.25 2.01 18.77 1.81 28.18 1.56-24.46 7.46-49.82 11.6-75.18 14.5 1.29-3.7 3.77-7.82 1.63-11.68"/><path fill="#87c7de" d="M380.36 483.62c4.03 3.33 8.91 5.42 12.9 8.81-4.41-.21-9.03-1.2-12.63-3.88q-.08-2.47-.27-4.93m6.57 17.24c10.34 1.37 20.76 1.55 31.13 2.58 3.35.33 6.61-.7 9.72-1.84q-1.25 2.96-2.52 5.9c-4.44.01-8.81-.95-13.25-.91-7.34-.14-14.74 1.87-22.03.35-2.97-.31-2.55-3.96-3.05-6.08m-33.47 16.96c3.59-1.18 7.24-2.25 11.04-2.49l-.45 2.36c-5.12 8.95-6.68 19.23-9.14 29.09-1.62 4.98-3.67 9.98-7.05 14.04-2.73 3.05-7.03 3.82-10.93 3.78q-1.35-3.08-2.78-6.11c7.39-2.85 13.04-9.62 15-17.24 2.61-7.59 1.98-15.78 4.31-23.43m50.71 86.19q3.43-4.36 7.22-8.4c.03 43.61-.05 87.23.04 130.84-2.4.53-4.83.87-7.27 1.1.04-41.18.01-82.36.01-123.54m107.34 523.44c3.19-.76 6.5.02 9.71.29-2.94 3.91-6.93 6.9-11.07 9.45-3.75-.31-7.47.18-11.12 1-5.82 1.19-11.78.89-17.63.12 6.04-2.49 12.05-5.09 17.75-8.31l2.32 1.87c3.37-1.42 6.56-3.28 10.04-4.42m-335.04 16.21c22.44 7.93 46.03 11.94 69.59 14.7 44.78 5 90.08 4.86 134.92.66 4.88-.52 9.78-.92 14.63-1.71 2.14 3.86-.34 7.98-1.63 11.68a652 652 0 0 1-75.87 4.2c-2.9-3.6-6.42-6.97-10.92-8.39-8.32-2.52-18.4.24-23.31 7.68-36.56-1.95-73.42-6-108.37-17.38-.83-3.87-1.33-7.94.96-11.44"/><path fill="#006044" d="M431.42 522.28c1.63 3.02 2.24 7.16-.2 9.93-2.05 2.3-4.89 4.72-8.21 4.1-3.14-.45-6.45-1.29-8.8-3.54a22 22 0 0 1-4.55-7.72c2.73 2.01 5.76 4.16 9.32 4 5.04.06 8.91-3.64 12.44-6.77m-43.2 14.53c-2.83-3.2-2.43-8.3-.58-11.91.99 3.05 1.66 7.1 5.04 8.4 3.57 1.51 7.36.03 10.77-1.15.12 1.51.69 3.1.2 4.6-4.75 2.08-10.81 2.81-15.43.06"/><g fill="silver"><path d="M581.97 669.01c2.56-1.71 4.94-3.84 7.98-4.68l.32 2.78c-6.38 6.53-15.22 9.92-21.63 16.36-16.62 9.58-32.22 20.95-49.63 29.13-17 8.09-34.08 16.61-52.61 20.59-4.09.99-8.12 2.18-12.19 3.23-4.61 1.26-9.46.75-14.09 1.84-7.31-.09-14.64-.63-21.83-1.96 13.29-2.36 26.78-3.66 39.87-7.06 15.92-3.6 31.31-9.21 46.12-16.03 18.93-8.44 37.56-17.7 54.98-28.98a736 736 0 0 0 22.71-15.22m-478.96 19.91c4.59 3.95 10 6.77 15.16 9.9 16.3 9.13 32.94 18.82 51.71 21.68a180 180 0 0 0 51.41.51 23 23 0 0 1-2.2 1.93c-7.18 2.06-14.25 4.5-21.61 5.83a366 366 0 0 0-8.77.02l-.6-.97c-6.03-.2-11.82-2.03-17.65-3.42a208 208 0 0 1-23.86-7.14c-7.52-2.7-14.89-6-22.82-7.34q-1.53-.72-3.05-1.47c-6.57-3.73-12.36-8.66-17.87-13.78q.12-2.88.15-5.75m154.01 30.97c7.13-6.22 13.75-13.09 21.5-18.54-2.65 5.18-6.46 9.66-9.35 14.69-1.01 2.38 1.54 4.06 3.57 4.36a52 52 0 0 0-6.87 11.32c-3.88 8.78-9.77 16.46-14.27 24.92-.52 1.34-1.99 3.07-.45 4.29 1.55-1.06 2.7-2.57 3.77-4.08 3.39-4.88 6.84-9.7 10.43-14.42 4.15-5.6 10.26-9.18 15.55-13.58 11.02-8.52 21.44-17.98 33.56-24.96-2.27 4.86-5.31 9.34-7.46 14.27-.89 1.4-.52 3-.21 4.52-1.95 3.42-3.97 6.8-5.66 10.36-4.19 8.75-9.5 16.95-13.21 25.93-.6 1.48-.64 3.1-.78 4.68l2.3-.17c5.17-8.17 9.8-16.7 15.57-24.47 8.41-10.3 19.03-18.42 29.27-26.78 1.31-1.03 2.07-2.54 2.82-3.99l.14-.26q1.51-.66 3.06-1.28c-2.93 4.34-5.83 8.76-7.95 13.56-.98 1.64.66 3.05 1.47 4.34-3.56 5.35-5.98 11.35-9.36 16.81-5.18 8.61-10.65 17.1-14.87 26.24-.84 1.41-.67 2.96.23 4.32 7.65-10.75 13.92-22.53 22.52-32.61 5.53-5.82 13.13-8.89 19.68-13.33 6.08-3.74 11.61-8.52 18.37-11.01-3.96 6.17-8.29 12.13-11.75 18.61-.85 1.56-1.31 4.06.54 5.11 1.29.79 2.92.18 4.13-.49 6.4-3.67 13.13-6.7 19.69-10.04-.29 2.37.63 4.89 2.81 6.08 5.93 3.6 13.11 3.25 19.78 3.28a56 56 0 0 0 3.65 5.78c-4.03-.35-7.87-1.59-11.69-2.81-3.15-1.24-6.35.43-9.07 1.93-9.6 5.75-18.18 13.11-25.71 21.37-2.61 2.69-5.05 5.68-8.3 7.63-2.06 1.21-5.16.51-6.1-1.8-1.15-2.74-.8-5.8-1.05-8.68-10.99 9.09-20.86 19.63-28.62 31.63-5.44 8.16-10.18 16.75-14.81 25.38-.81 2.33-4.51 2.98-5.73.7-.97-1.72-1.03-3.75-1.16-5.65-.45-10.04 1.97-19.89 2.47-29.87-6.56 5.91-11.75 13.13-17.72 19.61-9.56 10.46-18.6 21.39-27.99 32.01-1.82 2.02-3.61 4.11-5.84 5.7-2.44.2-3.5-2.21-2.64-4.23 3.22-11.51 8.64-22.25 12.31-33.61 3.83-11.77 7.94-23.52 10.07-35.74-9.04 5.2-15.7 13.59-24.27 19.47-3.53 2.29-7.08 5.15-11.39 5.65-2.76.33-4.16-2.81-3.72-5.12.82-6.16 2.98-12.05 4.53-18.05 5.11-17.02 8.97-34.48 10.36-52.23l-.79-.82c2.07-3.29 5.73-5.93 8.54-8.83-1.09 4.13-3.3 7.82-5.4 11.51-1.33 2.33.86 5.48 3.42 5.6 3.29.26 5.69-2.38 8.08-4.21m155.37 37.16c1.93.5 3.87 1.03 5.75 1.76 3.82 5.78 11.4 6.15 17.12 9.13q.67 2.78 1.44 5.56c-8.52-4.7-18.45-8.24-24.31-16.45m86.01 245.36c5.35-5.1 9.41-11.34 14.63-16.55-2.77 10.29-10.73 17.87-17.89 25.3-11.41 10.84-23.86 20.53-36.74 29.56.51-4.24 1.57-8.4 1.73-12.67l1.28 1.96c12.85-8.44 25.96-16.79 36.99-27.6m-54.02 23.1c3.48-2.04 7.52-.84 10.62 1.29-6.87 7.51-15.95 12.32-24.38 17.8-6.26 3.89-12.39 7.99-18.79 11.65.99-2.78 2.3-5.41 3.2-8.2.58-2.58-2.81-4-4.63-2.51-8.8 6.56-19.18 10.54-29.35 14.44-9.4 3.42-19.28 5.21-28.85 8.05 1.45-2.65 3.17-5.18 4.25-8.02.68-2.12-2.09-3.79-3.67-2.3-4.22 2.87-8.11 6.28-12.77 8.49a156 156 0 0 1-33.11 11.4c-1.98.1-2.56 1.93-2.18 3.63 2.85.26 5.72.31 8.59.33-3.09.82-7.07 2.2-9.77-.15-1.48-2.48 1.29-4.57 3.25-5.55 12.76-6.52 25.52-13.05 38-20.09 2.54-1.37 5.17-3.19 8.22-2.82 3.02.05 5.05 2.55 7.12 4.41a751 751 0 0 1 43.12-19.15c2.4-1.06 5.26-1.37 7.67-.16 2.72 1.12 3.89 4 5.32 6.34 9.67-5.85 18.2-13.47 28.14-18.88m-235.54 12.35c3.45-1.04 6.21-3.47 9.49-4.85-3.46 8.6-13.28 10.3-21.24 12.25 1.62.57 3.24 1.23 4.9 1.74-7.81-.89-14.97-4.53-21.41-8.87 9.31 1.33 19.16 3.1 28.26-.27"/><path d="M483.27 1040.12c8.56 8.37 15.97 18 21.22 28.81a102 102 0 0 1-14.52-3.77c-2.69-1.14-5.54 2.34-4.05 4.77 2.81 5.16 6.55 9.8 8.9 15.23 2.11 4.97 4.98 9.65 6.38 14.92 1.64 6.1 4.13 11.97 5.22 18.23-8.9 7.28-19.68 11.65-30.33 15.68-7.16-3.25-12.27-9.46-18.71-13.69a12 12 0 0 0 2.42 3.97c3.01 3.24 5.33 7.12 8.9 9.82-5.83-.19-11.77-1.23-17.55-.17q1.3-.72 2.66-1.34c-3.34-2.61-6.89-4.91-10.39-7.28 2.55-.7 5.2-1.14 7.62-2.24 2.26-1.15 1.54-4.62-.64-5.4-5.83-3.13-12.71-3.86-18.18-7.72 3.3-1.28 6.83-1.69 10.23-2.61 2.68-.84 3.13-5.07.68-6.45-1.62-.77-3.46-.78-5.18-1.04-6.8-.7-13.47-2.3-20.17-3.57 1.69-1.15 3.62-2.06 4.92-3.67.99-1.77 1.11-3.87 1.59-5.79 8.27-.34 16.55-.08 24.83-.49 6.17-.18 12.25 1.31 18.43 1.23-.1-1.39.91-3.48-.91-4.06-5.94-2.66-12.6-3.05-18.63-5.47-13.71-5.28-29.79-7.66-43.64-1.66-8.58.07-17.26.88-25.53 3.36 4.68-4.29 8.8-9.14 13-13.89 3.27-3.72 8.53-4.47 12.25-7.57-1.54 2.97-4.06 6.22-2.94 9.76 1.55 3.52 6.05 3.67 9.14 2.27 9.61-4.11 17.84-10.7 26.37-16.61a152 152 0 0 0 14.18-11.37 44 44 0 0 1-1.29 8.68c-.55 4.2 4.79 6.79 8.21 4.82 9.26-3.85 17.36-9.97 25.51-15.69m-326.65 4.63q4.41-2.09 8.7-4.41c4.89 4.21 9.15 9.23 14.75 12.56a89 89 0 0 1 6.82 4.56 117 117 0 0 0-24.36 2.19c-8.15 1.6-15.07 6.49-22.83 9.2a10.4 10.4 0 0 0-5.53-2.94c6.52-4.72 13.64-8.61 19.79-13.82 2.07-1.77 4.54-4.55 2.66-7.34m50.87 17.83c.03-1.41 1.62-1.64 2.51-.82q1 1.26.78 2.79c-1.27-.06-2.53-1.01-3.29-1.97"/><path d="M396.85 1084.25c7.36-.82 14.77-1.54 21.96-3.47 1.92 1.6 3.43 3.6 4.48 5.89-10.33-1.05-20.87-1.04-31.07 1.04-5.36 1-10.98 1.02-15.95 3.55l-2.59-.85c7.62-2.41 15.17-5.26 23.17-6.16m-171.14.84q2.4.98 4.84 1.9l-.1.2c-2.35 3.83-2.5 9.16-6.58 11.77-5.56 3.75-12.98 3.31-18.83.44-5.86 3.17-9.58 8.86-14.2 13.45-3.43 3.58-7.59 7.03-8.66 12.13a42 42 0 0 1-5.07 12.75c-7.94-2.67-15.25-6.76-22.45-10.97l.31-.32c5.29-4.6 12.51-6.16 18.23-10.19 6.91-5.04 13.9-10.04 20.09-15.97 2.64-2.35 4.92-5.15 7.9-7.08 2.17-.72 4.38-1.4 6.16-2.89 3.18 2.43 6.92 5.72 11.24 4.36 4.27-1.16 6.79-5.38 7.12-9.58m145.78 50.77c9.13 8.19 21.72 9.9 32.85 14-13.11 2.7-26.66 3.1-39.96 4.7 4.84-4.86 7.36-11.9 7.11-18.7m-48.06 6.78c2.42.99 5.03 1.85 7.56.7a21 21 0 0 0 2.28 5.81 11.2 11.2 0 0 1-9.84-6.51m124.76 23.57c21.75-5.02 43.53-11.36 62.89-22.74 4.27 25.17 5.73 51.11 1.29 76.37-3.07 13.87-8.36 27.14-14.1 40.1-4.52-8.6-9.1-17.31-15.57-24.64-5.59-6.41-10.91-13.29-18.11-18-7.25-5.16-15.44-8.73-23.7-11.9-3.53-1.29-6.98-3.13-10.8-3.24q-1.68.7-.83 2.34c8.4 5.78 17.66 10.29 25.65 16.69a59 59 0 0 1 16.16 19.28c.31 6.47 4.08 12.08 4.86 18.45.19 2.63-.42 6.04-3.03 7.35-3.91.9-7.89-.47-11.83-.14-3.03.57-4.24 3.76-4.58 6.48-1.1 6.32-1.37 13.24-5.26 18.64-2.97 3.94-8.71 3.85-12.97 2.44-6.59-2.24-11.67-7.56-18.38-9.47-1.97-.7-4.56.25-5.04 2.43-1.2 2.67-1.3 6.47-4.44 7.72-5.62 2.43-12.01 2.55-17.5 5.41-4.67 2.38-9.94 5.45-11.4 10.86-.88 4.73 1.18 9.33 1.47 14.04-5.48-.81-11.24-2.15-16.66-.33-4.47 1.7-6 6.66-7.65 10.7-8.65.3-16.25-4.83-22.68-10.05-3.6-2.73-6.39-6.36-9.99-9.06-2.25-1.74-5.84-.4-6.56 2.3-.98 3.18-.8 6.56-.96 9.86-7.89-2.26-14.6-7.26-22.03-10.61-6.83-3.12-10.82-9.91-17-13.91l-.25-.17a62 62 0 0 1-1.66-17.61l2.52-.94c1.99 8.12 4.71 16.46 10.29 22.87 1.55 1.87 5.2.66 5.07-1.84.55-6.01.61-12.08 1.81-18.01 5.52 6.4 11.09 13.22 18.74 17.16 2.12 1.11 6.04 1.93 6.81-1.18.4-3.63-.52-7.27-.12-10.89.91-.89 2.01.12 2.98.39 8.22 3.89 17.12 5.94 25.9 8.17 6.98 1.77 14.27 2.59 21.45 1.77 3.53-.21 6.86-3.55 5.92-7.22-1.01-4.03-3.26-7.6-5.02-11.32 3.48.18 6.97.13 10.46.16 6.01.09 12.11.72 18.06-.43 2.91-.48 5.62-3.33 4.48-6.4-1.42-2.85-3.55-5.25-5.37-7.82 1.99-.24 4.05-.24 5.99-.8 2.19-1.16 2.21-4.05 3.04-6.1 3.88 2.68 7.22 6.24 11.41 8.4 2.15.66 1.57-2.39.38-3.05-3.48-3.88-7.57-7.16-11.03-11.05-2.9-3.29-6.92-5.2-10.61-7.42-3.54-2.11-7.7-3.84-11.88-2.84-1.87.61-3.63-.19-5.2-1.13-1.75-7.71-7.23-14.09-13.63-18.46 4.62-4.51 11.5-1.73 17.18-1.89-.95-4.65-3.36-8.77-4.81-13.24-.72-1.75.06-4 1.77-4.81 2.62-.64 5.35-.35 8.02-.37.01-8.72-2.77-17.19-6.69-24.89-1.2-2.88-4.91-3.21-6.27-5.99 23.17-2.2 46.3-5.26 69.01-10.42m-309.5-14.49c2.69-1.23 5.22-3.3 8.19-3.63 9.13 5.51 18.87 10.11 29.1 13.17l-.04.16c-3.45 12.17-9.32 23.53-12.78 35.71-.99 4.37-2.28 9.42.14 13.56 3.03 4.05 8.16 5.77 11.53 9.5 1.42 1.54 1.53 3.75 1.65 5.75.16 18.59 6.67 36.63 15.82 52.62a129 129 0 0 0 8.17-22.28c1.17-3.14 5.43-1.7 6.23.99 5.3 11.01 9.68 22.8 18.13 31.9-.52-8.72-.79-17.46-1.22-26.19-.37-2.42 2.91-3.97 4.57-2.18 2.58 2.87 4.05 6.55 6.42 9.6A174 174 0 0 0 251 1289c1.29-5.71 1.02-11.71 2.72-17.31 1.63-3.43 5.71-2.68 8.7-1.91.19-2.69-.06-5.6 1.4-7.98 1.18-2.07 3.59-2.82 5.56-3.89a76 76 0 0 0-.93 28.77c.76 2.32 3.32.9 4.34-.44-2.37 8.59.37 17.39 3.31 25.45.4 5.98 2.63 11.6 3.57 17.49a113 113 0 0 1-25.92-15.94c-2.39-1.81-5.27-4.18-8.46-2.98-1.68.89-2.2 2.92-2.25 4.69-.18 4.5.19 9.01.04 13.52-8.56-6.57-15.32-15.06-22.93-22.61-2.58-2.34-5.75-5.39-9.54-4.42-4.54 1.38-6.14 6.37-8.61 9.92-6.25-4.08-11.68-9.25-16.96-14.5-8.02-7.86-13.39-17.96-17.79-28.18-2.88-6.22-4.11-13.22-7.95-18.96-1.49-2.16-4.65-.77-5.02 1.55-2.44 8.14-2.97 16.72-3.51 25.17-6.09-11.4-12.24-22.88-15.98-35.3-1.54-4.6-2.21-9.59-5.03-13.65l-.27-.43c2.1-20.38 8.09-40.69 19.91-57.6 1.24-2.31 3.79-4.78 2.76-7.57-1.7-.68-3.01 1.17-4.28 2.02-24.09 22.22-36.72 55.84-34.07 88.43-.44-1.64-.92-3.27-1.32-4.9-.59-5.95-.77-12.4-4.41-17.43-1.72-2.63-4.51-4.2-7.31-5.42 3.98-4.05 5.77-10.17 4.06-15.65-.83-3.69-3.18-6.74-5.73-9.41 3.56-10.84 10.4-20.21 17.48-29.01 6.32-7.35 13.36-14.38 22.11-18.8m198.99-.52c2.73.08 5.3-.73 7.47-2.39a26 26 0 0 0 5.24 6.38c-7.21.47-14.42 1.01-21.65.7q6.81-.46 13.62-.88c-1.53-1.32-3.05-2.64-4.68-3.81"/></g><g fill="#919191"><path d="M590.27 667.11c1.28 6.21.95 12.63.62 18.93a190 190 0 0 1-12 51.89 155 155 0 0 1-31.27 47.77c-6.01 6.65-12.46 12.87-18.66 19.33-5.53 5.83-11.35 11.55-18.41 15.52-4.6 2.52-8.71 5.9-13.58 7.92 2.56-2.6 5.02-5.36 8.06-7.43 13.65-9.05 25.3-20.72 36.38-32.7 9.52-10.12 19.68-20.82 23.29-34.64.99-2.45-.68-4.56-1.84-6.55 5.27-7.82 11.05-15.27 16.29-23.1 1.63-2.66 3.9-6.67 1.1-9.3-2.99-2.09-6.69-.06-9.85.48 5.89-8.78 12.88-17.53 14.66-28.24.75-3.35-1.27-7.58-5.07-7.55-4.11.05-7.57 2.73-11.35 4.03 6.41-6.44 15.25-9.83 21.63-16.36m-487.41 27.56c5.51 5.12 11.3 10.05 17.87 13.78-1.2 1.08-3.42 2.26-2.54 4.25 2.26 4.67 6.89 7.51 10.23 11.33l1.25 1.7c-8.88.35-16.01-6.5-24.72-7.2a83 83 0 0 1-2.09-23.86m94.62 34.1c7.36-1.33 14.43-3.77 21.61-5.83a63 63 0 0 1-5.32 6.2c-5.42.46-10.93.78-16.29-.37m-87.85 3.5c5.47 4.41 10.82 9.03 15.44 14.34l-2.73 3.36c-5.55-4.8-9.76-11.02-12.71-17.7m295.96 5.3c4.25-.23 8.45-1.19 12.7-1.27a129 129 0 0 0 21.83 1.96c-5.85 1.86-11.47 4.35-17.21 6.51-2.21.87-4.97 1.92-5.44 4.59-.78 2.88 1.4 5.23 2.79 7.49l-3.05.85.93 1.11a51 51 0 0 0-5.75-1.76c-3.44-3.46-5.51-9.38-2.07-13.53l-1.08-.17a56 56 0 0 1-3.65-5.78m-240.27 302.77q3.33-1.78 6.66-3.52c8.39 8.14 18.7 14.53 30.29 16.76 4.36.36 6.34 4.62 7.73 8.18-.89-.82-2.48-.59-2.51.82-6.08-4.08-13.54-4.48-20.6-5.12a89 89 0 0 0-6.82-4.56c-5.6-3.33-9.86-8.35-14.75-12.56m-44.04 34.91c4.1-3.31 8.47-6.25 12.69-9.4l.2.06a10.4 10.4 0 0 1 5.53 2.94 65 65 0 0 0-4.51 2.44c-1.97 1.22-4.12 2.31-5.67 4.08-1.26 1.63 1.06 2.3 2.16 2.98l-.82 1.79 4.35.2c-2.5 1.5-5.02 3.18-6.68 5.64l.51 1.85c2.47.23 4.91-.39 7.31-.88-4.19 3.6-8.41 7.18-12.23 11.18-1.27 1.39-2.76 2.87-2.74 4.92 1.09.99 2.58 1.31 3.91 1.91-1.82 2.85-3.98 5.63-4.73 9 .07 2.23.76 4.38 1.16 6.58-4.71-2.17-5.95-7.82-5.78-12.53-.16-6.14 2.4-11.82 4.82-17.3.92-1.72-.51-3.17-1.83-4.02l-4.8 3.46c1.83-3.74 4.25-7.13 6.65-10.52 1.1-1.24.5-2.94.5-4.38m270.94 12.46c10.2-2.08 20.74-2.09 31.07-1.04l1 .14c-.48 1.92-.6 4.02-1.59 5.79-1.3 1.61-3.23 2.52-4.92 3.67 6.7 1.27 13.37 2.87 20.17 3.57 1.72.26 3.56.27 5.18 1.04 2.45 1.38 2 5.61-.68 6.45-3.4.92-6.93 1.33-10.23 2.61 5.47 3.86 12.35 4.59 18.18 7.72 2.18.78 2.9 4.25.64 5.4-2.42 1.1-5.07 1.54-7.62 2.24 3.5 2.37 7.05 4.67 10.39 7.28q-1.35.63-2.66 1.34l-1.21 1.99a43 43 0 0 0 11 10.68l-.27.3q-.82.86-1.51 1.86c-9.32.05-18.8-.86-27.53-4.34-6.79-2.52-13.3-5.7-19.85-8.77a49 49 0 0 0-3.43-1.1l-2.86-3.7c10.36 1.33 20.06 5.92 30.49 6.7l1.68-1.49c-3.34-2.42-7.75-2.48-11.34-4.43-5.84-3.03-12.56-4.81-17.25-9.67 4.47-1.25 9.15-1.27 13.63-2.41 1.39-.34 2.45-2.16.95-3.14-1.3-1.06-3.08-1.13-4.63-1.49-9.32-1.59-18.73-2.91-27.84-5.51 3.64-2.09 7.81-2.89 11.57-4.7 1.16-.55.64-2.18.97-3.17-7.8-1.33-15.74-1.39-23.63-1.62a76 76 0 0 1 10.68-6.1c1.77-.99 4-1.71 4.77-3.78-.69-1.32-2.04-1.86-3.32-2.32m-262.46 139.78c2.82 4.06 3.49 9.05 5.03 13.65 3.74 12.42 9.89 23.9 15.98 35.3.54-8.45 1.07-17.03 3.51-25.17.37-2.32 3.53-3.71 5.02-1.55 3.84 5.74 5.07 12.74 7.95 18.96 4.4 10.22 9.77 20.32 17.79 28.18 5.28 5.25 10.71 10.42 16.96 14.5 2.47-3.55 4.07-8.54 8.61-9.92 3.79-.97 6.96 2.08 9.54 4.42 7.61 7.55 14.37 16.04 22.93 22.61.15-4.51-.22-9.02-.04-13.52.05-1.77.57-3.8 2.25-4.69 3.19-1.2 6.07 1.17 8.46 2.98a113 113 0 0 0 25.92 15.94c-.94-5.89-3.17-11.51-3.57-17.49 4.22 7.33 10.64 12.94 17.28 18.03 1.05.87 2.4 1.15 3.73 1.34-.13-2.68-2.63-4.12-4.24-5.9-6.05-5.96-11.92-12.99-13.43-21.58 6.18 4 10.17 10.79 17 13.91 7.43 3.35 14.14 8.35 22.03 10.61.16-3.3-.02-6.68.96-9.86.72-2.7 4.31-4.04 6.56-2.3 3.6 2.7 6.39 6.33 9.99 9.06 6.43 5.22 14.03 10.35 22.68 10.05 1.65-4.04 3.18-9 7.65-10.7 5.42-1.82 11.18-.48 16.66.33-.29-4.71-2.35-9.31-1.47-14.04 1.46-5.41 6.73-8.48 11.4-10.86 5.49-2.86 11.88-2.98 17.5-5.41 3.14-1.25 3.24-5.05 4.44-7.72.48-2.18 3.07-3.13 5.04-2.43 6.71 1.91 11.79 7.23 18.38 9.47 4.26 1.41 10 1.5 12.97-2.44 3.89-5.4 4.16-12.32 5.26-18.64.34-2.72 1.55-5.91 4.58-6.48 3.94-.33 7.92 1.04 11.83.14 2.61-1.31 3.22-4.72 3.03-7.35-.78-6.37-4.55-11.98-4.86-18.45 13.18 17.28 16.94 40.19 14.66 61.41-.67 10.56-4.71 20.46-8.63 30.16-1.37 3.03-2.41 6.31-4.67 8.85-.09-4.31.27-8.62-.01-12.91-.83-2.23-3.86-2.55-5.49-1.01-2.38 2.29-3.98 5.28-6.43 7.53-6.82 6.55-14.27 12.39-21.59 18.36-6.9 5.53-13.9 11-21.52 15.53-6.72 3.8-13.76 7-20.86 10.02 1.11-3.07 3.78-5.35 4.83-8.34-.27-2.53.95-6.75-2.36-7.59-7.31-.24-14.32 2.38-21.55 3.14-13.41 2.41-27.05.86-40.57 1.5-9.06.58-17.9-1.79-26.8-3.02-10.78-1.87-21.61-3.66-32.05-6.98-5.6-1.47-11.17-3.62-17.02-3.62-3.59.06-5.13 3.56-6.16 6.44-9.6-5.12-20.01-8.43-29.86-12.98-6.46-2.62-12.95-6-20.07-6.11a5 5 0 0 0-5.32 3.57c-.99 4.08-1.23 8.31-2.15 12.41-7.71-4.96-15.17-10.3-22.67-15.56-14.2-9.96-25.03-24.26-32.01-40.04-4.56-9.47-8.8-19.15-11.7-29.26-2.7-14.61-3.64-29.77-1.31-44.48"/><path d="M408.36 1261.82q1.11.66 2.24 1.36l-.06.19c-.83 2.05-.85 4.94-3.04 6.1-1.94.56-4 .56-5.99.8 1.82 2.57 3.95 4.97 5.37 7.82 1.14 3.07-1.57 5.92-4.48 6.4-5.95 1.15-12.05.52-18.06.43.23-1.26.52-2.52.59-3.78-1.91-2.6-4.2-4.88-6.07-7.5 7.22-.95 14.84-.91 21.53-4.14 3.34-1.74 7.71-3.27 7.97-7.68m-134.98 1.27c.8 3.1 1.2 6.33 2.34 9.34 2.72 2.99 4.63-1.38 5.73-3.51 1.38 8.22 2.53 16.56 5.24 24.48.39 1.56 2.43 4.68 3.45 1.79 1.65-5.02 2.61-10.24 4.39-15.22 2.43 3.39 4.72 6.88 7.27 10.2 3.35 4.1 6.7 9.09 12.28 10.18 1.64-6.68-.99-13.53.15-20.3 8.04 4.38 15.89 9.2 24.59 12.2 4.85 1.54 9.18 4.65 14.24 5.47 2.43.29 3.86-2.47 2.67-4.44-2.12-4.08-4.56-8-5.98-12.38 7.89 2.1 15.97 3.5 24.13 3.86 1.76 3.72 4.01 7.29 5.02 11.32.94 3.67-2.39 7.01-5.92 7.22-7.18.82-14.47 0-21.45-1.77-8.78-2.23-17.68-4.28-25.9-8.17-.97-.27-2.07-1.28-2.98-.39-.4 3.62.52 7.26.12 10.89-.77 3.11-4.69 2.29-6.81 1.18-7.65-3.94-13.22-10.76-18.74-17.16-1.2 5.93-1.26 12-1.81 18.01.13 2.5-3.52 3.71-5.07 1.84-5.58-6.41-8.3-14.75-10.29-22.87l-2.52.94c-.34-2.52 1-6.14-1.71-7.65-1.98-.09-2.84 2.25-4.16 3.36-.58-6.19.21-12.42 1.72-18.42m-161.57 14.41q3.28-.38 6.43-1.42c.98 4.01 2.62 7.83 3.67 11.83 1.72 12.66 1.06 25.48.57 38.21a29 29 0 0 1-8.87-6.71c-1.69-1.63-3.12-3.93-5.67-4.14l-1.27 2.84c-3.08-2.23-5.16-5.47-8.04-7.89-2.48-.27-2.56 2.22-2.28 4.05-8.46-3.4-16.97-7.37-23.42-14 1.96.42 4.61 1.64 6.09-.38-.35-2.88-1.46-5.59-2.24-8.36 7.05 5.47 13.99 13.13 23.45 13.52.59-6.05-3.39-11.33-4.38-17.18 5.08 1.51 9.95 3.74 15.16 4.83 1.85.73 4.4-.55 4.05-2.76-.63-4.25-2.4-8.24-3.25-12.44"/></g><g fill="#494949"><path d="M568.64 683.47c3.78-1.3 7.24-3.98 11.35-4.03 3.8-.03 5.82 4.2 5.07 7.55-1.78 10.71-8.77 19.46-14.66 28.24 3.16-.54 6.86-2.57 9.85-.48 2.8 2.63.53 6.64-1.1 9.3-5.24 7.83-11.02 15.28-16.29 23.1 1.16 1.99 2.83 4.1 1.84 6.55-3.61 13.82-13.77 24.52-23.29 34.64-11.08 11.98-22.73 23.65-36.38 32.7-3.04 2.07-5.5 4.83-8.06 7.43-2.92.09-5.59-1.03-8.07-2.44l.09-.65c.62-2.9 1.1-5.86.67-8.81 6.75-5.16 13.14-10.76 19.59-16.28 2.77-2.6 5.95-5.06 7.53-8.59.54-2.2-2.17-3.01-3.39-4.31 10.79-6.13 20.24-14.3 29.41-22.58 2.93-2.99 7.34-5.98 6.43-10.78q-3.75-.13-7.49-.21c6.42-6.3 13.09-12.38 18.75-19.38 2.77-3.41 5.59-6.98 6.73-11.3 1.56-5.72 3.38-11.36 4.8-17.11-2.46.02-5-.22-7.35.64-21.03 8.93-41.85 18.36-62.95 27.13-18.76 7.9-38.28 13.85-58 18.79-7.7 2.06-15.63 2.9-23.46 4.26-1.39-2.26-3.57-4.61-2.79-7.49.47-2.67 3.23-3.72 5.44-4.59 5.74-2.16 11.36-4.65 17.21-6.51 4.63-1.09 9.48-.58 14.09-1.84 4.07-1.05 8.1-2.24 12.19-3.23 18.53-3.98 35.61-12.5 52.61-20.59 17.41-8.18 33.01-19.55 49.63-29.13M118.19 712.7c-.88-1.99 1.34-3.17 2.54-4.25q1.52.75 3.05 1.47c10.73 6.1 22.03 11.43 34.07 14.35 10.1 2.42 20.38 5.1 30.86 4.52q4.38-.06 8.77-.02c5.36 1.15 10.87.83 16.29.37-3.94 4.66-8.07 9.19-11.41 14.32-.76.83-1.18 2.22-2.4 2.51-2.7-.44-5.27-1.44-7.89-2.2-9.37-3-18.94-5.32-28.2-8.65-10.94-3.67-21.35-8.68-31.94-13.2-1.69-1.12-2.75 1.01-3.51 2.11-3.34-3.82-7.97-6.66-10.23-11.33m-13.24 5.83c8.71.7 15.84 7.55 24.72 7.2 3.12 4 6.58 7.74 9.27 12.06-2.22 1.02-5.52 1.14-6.4 3.85-.66 2.23 1.58 3.79 3.39 4.48 4.96 1.95 10.41 2.81 14.88 5.9-.12 1.81-.98 4.01.54 5.5 2.98 3.35 7.83 3.66 11.68 5.58l-.64 2.46c-8.33-.56-16.51-2.66-24.28-5.68-5.8-2.28-11.5-5.26-15.77-9.91l2.73-3.36c-4.62-5.31-9.97-9.93-15.44-14.34-2.26-4.27-3.38-9.1-4.68-13.74"/><path d="M437.81 769.02c8.98 2.33 18.25 2.81 27.45 3.51-2.25 2.63-4.96 4.82-7.44 7.22-5.43-5.67-13.26-7.3-20.01-10.73m20.01 18.6a341 341 0 0 1 20.49.09 51 51 0 0 1-6.16 8.93c-3.34-1.98-6.84-3.7-9.95-6.03a8.3 8.3 0 0 0-4.38-2.99m-328.3 287.75c1.55-1.77 3.7-2.86 5.67-4.08a8 8 0 0 0 3 1.49c-1.53 1.68-2.9 3.51-4.41 5.22l-2.1.35c-1.1-.68-3.42-1.35-2.16-2.98m5.69 4.97 1.68-.9c1.74 2.2 4.2 4.97 2.53 7.95-3.27 4.35-8.66 6.92-11.08 11.97-1.49 3.36 2.89 5.04 5.36 5.89 8.31 1.92 16.35-2.08 24.43-3.41 2.38 1.01 4.7 2.33 7.29 2.72 3.09.18 5.92-1.32 8.68-2.49 2.48-1.21 5.45.26 7.9-1.03 1.65-1.12 2.71-2.86 3.96-4.36q2.04.36 4.06.78c-3.28 4.16-8.6 5.73-12.78 8.76-4.88 3.64-10.79 5.35-16.25 7.86-12.39 4.81-25.76 8.95-39.18 6.88l-.09-.42c-.4-2.2-1.09-4.35-1.16-6.58.75-3.37 2.91-6.15 4.73-9-1.33-.6-2.82-.92-3.91-1.91-.02-2.05 1.47-3.53 2.74-4.92 3.82-4 8.04-7.58 12.23-11.18-2.4.49-4.84 1.11-7.31.88l-.51-1.85c1.66-2.46 4.18-4.14 6.68-5.64m257.01 7.37c1.28.46 2.63 1 3.32 2.32-.77 2.07-3 2.79-4.77 3.78a76 76 0 0 0-10.68 6.1c7.89.23 15.83.29 23.63 1.62-.33.99.19 2.62-.97 3.17-3.76 1.81-7.93 2.61-11.57 4.7 9.11 2.6 18.52 3.92 27.84 5.51 1.55.36 3.33.43 4.63 1.49 1.5.98.44 2.8-.95 3.14-4.48 1.14-9.16 1.16-13.63 2.41 4.69 4.86 11.41 6.64 17.25 9.67 3.59 1.95 8 2.01 11.34 4.43l-1.68 1.49c-10.43-.78-20.13-5.37-30.49-6.7l2.86 3.7q1.72.48 3.43 1.1l-3.2.39c.67 4.25 3.81 7.5 5.81 11.18-13.71-3.63-28.25-5.82-40.51-13.35l-.01-.64c4.24-5.13 3.39-12.85.05-18.22a31.5 31.5 0 0 0-12.19-10.77c-1.64-.97-3.55-.78-5.34-.65l-1.44-.84c6.77-4.44 13.99-8.1 21.32-11.48 4.97-2.53 10.59-2.55 15.95-3.55m-41.53 136.19c5.94.93 9.31 6.52 11.97 11.35 2.94 5.3 5.01 12.2 1.21 17.64-.8 2.52-4.74 5.4-1.94 7.76 4.1-1.66 5.89-6.05 8.37-9.39 2.28-3.06 2.94-6.85 3.74-10.48 4 4.92 6 11.02 9.23 16.41 2.52.1 3.23-2.28 4.16-4.14 3.57.11 6.6 2.19 9.64 3.83 3.58 2.03 7.52 3.31 11.29 4.94-.26 4.41-4.63 5.94-7.97 7.68-6.69 3.23-14.31 3.19-21.53 4.14 1.87 2.62 4.16 4.9 6.07 7.5-.07 1.26-.36 2.52-.59 3.78-3.49-.03-6.98.02-10.46-.16a113 113 0 0 1-24.13-3.86c1.42 4.38 3.86 8.3 5.98 12.38 1.19 1.97-.24 4.73-2.67 4.44-5.06-.82-9.39-3.93-14.24-5.47-8.7-3-16.55-7.82-24.59-12.2-1.14 6.77 1.49 13.62-.15 20.3-5.58-1.09-8.93-6.08-12.28-10.18-2.55-3.32-4.84-6.81-7.27-10.2-1.78 4.98-2.74 10.2-4.39 15.22-1.02 2.89-3.06-.23-3.45-1.79-2.71-7.92-3.86-16.26-5.24-24.48-1.1 2.13-3.01 6.5-5.73 3.51-1.14-3.01-1.54-6.24-2.34-9.34l-.08-.34c2.93-6.69 5.46-14.05 11.19-18.92-.35 7.1 1.05 15.09 6.86 19.82 3.82 3 7.01 7.31 11.95 8.48-3.11-4.33-7.89-7.23-10.49-11.94-4.38-7.5-2.32-17.29 2.58-24 1.28.25 1.26 1.75 1.76 2.74 2.7 8.84 9.19 16.05 16.61 21.31 6.19 4.26 14.06 4.55 21.3 3.95 7.13-.56 13.2-5.15 17.66-10.44 4.6-5.47 6.76-13.14 4.65-20.08-.94-4.01-4.23-6.7-6.68-9.77m-254.92 4.06c7.42 2.05 10.71 10.03 11.29 17.06.14 4.33.65 9.19-1.93 12.98-1.69 2.75-4.27 4.92-5.39 8.02 4-1.46 6.72-4.97 8.94-8.42 1.99-3.11 1.88-7.04 3.81-10.16.4 1.63.88 3.26 1.32 4.9 1.34 7.93 2.08 15.99 4.43 23.74q-3.15 1.04-6.43 1.42c.85 4.2 2.62 8.19 3.25 12.44.35 2.21-2.2 3.49-4.05 2.76-5.21-1.09-10.08-3.32-15.16-4.83.99 5.85 4.97 11.13 4.38 17.18-9.46-.39-16.4-8.05-23.45-13.52.78 2.77 1.89 5.48 2.24 8.36-1.48 2.02-4.13.8-6.09.38-2.84-2.29-4.75-5.43-7.25-8.03l-2.51-.34-.85 2.96c-5.08-4.26-10.26-8.66-13.87-14.3a38 38 0 0 1-5.01-18.57c4.19 5.9 10.13 11.14 17.61 11.9-2.97-2.01-6.46-3.45-8.7-6.37-2.43-3.13-4.64-6.58-5.47-10.49-1.01-4.01 0-8.12.57-12.1 1.18 4.7 1.95 9.72 5 13.66 4.93 6.67 13.53 9.41 21.55 9.46 6.24-.15 12.35-2.3 17.64-5.55 7.96-5.08 12.4-15.43 9.62-24.62-.95-3.78-4.29-6.27-5.49-9.92"/></g><path fill="#ddd" d="M286.32 713.23c11.28-7.15 23.27-13.04 35.08-19.24-2.4 3.24-4.37 6.79-6.94 9.9-12.12 6.98-22.54 16.44-33.56 24.96-5.29 4.4-11.4 7.98-15.55 13.58a413 413 0 0 0-10.43 14.42c-1.07 1.51-2.22 3.02-3.77 4.08-1.54-1.22-.07-2.95.45-4.29 4.5-8.46 10.39-16.14 14.27-24.92a52 52 0 0 1 6.87-11.32c4.95-1.51 9.12-4.66 13.58-7.17m26.32 9.32c7.98-5.04 15.91-10.27 24.46-14.31-.75 1.45-1.51 2.96-2.82 3.99-10.24 8.36-20.86 16.48-29.27 26.78-5.77 7.77-10.4 16.3-15.57 24.47l-2.3.17c.14-1.58.18-3.2.78-4.68 3.71-8.98 9.02-17.18 13.21-25.93 1.69-3.56 3.71-6.94 5.66-10.36l2.39 1.26c1.17-.42 2.38-.76 3.46-1.39m32.7-2.17c9.07-4.79 18.85-8.03 28.82-10.36q-1.86 2.52-3.77 5c-6.76 2.49-12.29 7.27-18.37 11.01-6.55 4.44-14.15 7.51-19.68 13.33-8.6 10.08-14.87 21.86-22.52 32.61-.9-1.36-1.07-2.91-.23-4.32 4.22-9.14 9.69-17.63 14.87-26.24 3.38-5.46 5.8-11.46 9.36-16.81 4.3.27 7.84-2.45 11.52-4.22m59.03 355.98c13.85-6 29.93-3.62 43.64 1.66 6.03 2.42 12.69 2.81 18.63 5.47 1.82.58.81 2.67.91 4.06-6.18.08-12.26-1.41-18.43-1.23-8.28.41-16.56.15-24.83.49l-1-.14a17 17 0 0 0-4.48-5.89c1.7-.6 3.67-.97 4.63-2.68-6-2.82-12.73-1.05-19.07-1.74"/><path fill="#888" d="M123.78 709.92c7.93 1.34 15.3 4.64 22.82 7.34a208 208 0 0 0 23.86 7.14c5.83 1.39 11.62 3.22 17.65 3.42l.6.97c-10.48.58-20.76-2.1-30.86-4.52-12.04-2.92-23.34-8.25-34.07-14.35m224.56 390.78c8.38-3.59 16.89-6.86 25.34-10.29l2.59.85c-7.33 3.38-14.55 7.04-21.32 11.48q-3.3-1.06-6.61-2.04"/><g fill="#fff"><path d="m242.38 715.82.79.82c-1.39 17.75-5.25 35.21-10.36 52.23-1.55 6-3.71 11.89-4.53 18.05-.44 2.31.96 5.45 3.72 5.12 4.31-.5 7.86-3.36 11.39-5.65 8.57-5.88 15.23-14.27 24.27-19.47-2.13 12.22-6.24 23.97-10.07 35.74-3.67 11.36-9.09 22.1-12.31 33.61-.86 2.02.2 4.43 2.64 4.23 2.23-1.59 4.02-3.68 5.84-5.7 9.39-10.62 18.43-21.55 27.99-32.01 5.97-6.48 11.16-13.7 17.72-19.61-.5 9.98-2.92 19.83-2.47 29.87.13 1.9.19 3.93 1.16 5.65 1.22 2.28 4.92 1.63 5.73-.7 4.63-8.63 9.37-17.22 14.81-25.38 7.76-12 17.63-22.54 28.62-31.63.25 2.88-.1 5.94 1.05 8.68.94 2.31 4.04 3.01 6.1 1.8 3.25-1.95 5.69-4.94 8.3-7.63 7.53-8.26 16.11-15.62 25.71-21.37 2.72-1.5 5.92-3.17 9.07-1.93 3.82 1.22 7.66 2.46 11.69 2.81l1.08.17c-3.44 4.15-1.37 10.07 2.07 13.53 5.86 8.21 15.79 11.75 24.31 16.45a72 72 0 0 0 16.98 6.93l.09 4.15a33 33 0 0 0 1.62 3.1c.28 2.16.08 4.64 1.68 6.38 1.55 1.97 4.12 2.56 6.37 3.38 3.04.87 5.24 3.25 6.88 5.85 2.39 4.03 5.47 7.56 8.62 11.01-1.01 2.3-.27 5.05 2.16 6.09 1.2.13 2.4.19 3.62.3l4.27 4.69-.09.65c.14 2.63.5 5.25.75 7.89 5.37.8 10.11-2.16 15.2-3.18 4.93-1.18 9.51-3.41 14.07-5.56 1.71 12.42 11.17 21.89 21.76 27.65-3.06 2.68-7.18 3.23-10.68 5.05-4.23 2.6-3.78 8.54-1.4 12.28 5.9 9.89 12.79 20.53 11.39 32.62-4.84-6.4-10.05-12.53-14.5-19.22-4.24-6.48-8.2-13.14-12.42-19.63a18 18 0 0 0-4.09-4.78c-2.56 0-2.17 3.08-2.27 4.84a45 45 0 0 1-2.27 18.08c-.99 3.46-2.92 7.17-1.5 10.79 2.22 5.4 6.52 9.57 10.84 13.34a285 285 0 0 1 18.07 18.38c-2.64 6.43-4.4 13.46-2.99 20.42 1.76 8.25 3.43 16.55 3.97 25-2.8-2.83-5.91-5.33-8.71-8.15-1.4-1.86-4.5-.95-5.22 1.09-1.45 3.89-.48 8.13-1.25 12.14a27 27 0 0 1-4.62 10.78c-5.22 5.21-9.28 11.45-14.63 16.55-11.03 10.81-24.14 19.16-36.99 27.6l-1.28-1.96c-.93-2.2-3.3-2.09-5.13-1.25-3.1-2.13-7.14-3.33-10.62-1.29-9.94 5.41-18.47 13.03-28.14 18.88-1.43-2.34-2.6-5.22-5.32-6.34-2.41-1.21-5.27-.9-7.67.16a751 751 0 0 0-43.12 19.15c-2.07-1.86-4.1-4.36-7.12-4.41-3.05-.37-5.68 1.45-8.22 2.82-12.48 7.04-25.24 13.57-38 20.09-1.96.98-4.73 3.07-3.25 5.55 2.7 2.35 6.68.97 9.77.15 4.99-1.55 10.35-1.36 15.25-3.21 4.54-1.69 9-3.65 13.14-6.18-1.4 3.8 2.48 7.54 6.23 6.05 10-2.82 20.1-5.24 30.07-8.16-2.04 3.38-2.95 7.22-4.07 10.97-12.92 4.21-25.51 9.67-36.96 17.04-7.99 5.37-15.94 11.2-21.85 18.92-2.46 3.32-4.79 7.79-3.08 11.95 1.23 3.12 4.57 4.52 7.64 5.11.12 3.28 1.96 5.98 3.75 8.59a11.2 11.2 0 0 0 9.84 6.51c1.5.61 3.02 1.19 4.41 2.05 1.63 1.17 3.15 2.49 4.68 3.81q-6.81.42-13.62.88c-25.62.58-51.29-.33-76.79-2.94-25.32-2.75-50.75-6.65-74.84-15.22a42 42 0 0 0 5.07-12.75c1.07-5.1 5.23-8.55 8.66-12.13 4.62-4.59 8.34-10.28 14.2-13.45 5.85 2.87 13.27 3.31 18.83-.44 4.08-2.61 4.23-7.94 6.58-11.77a28 28 0 0 0 20.87.39c6.43-2.89 11.81-7.72 16.18-13.19 3.47-4.33 5.81-9.39 8.87-13.98 6.72-10.24 13.34-20.55 20.52-30.48 4.59-7.58 9.65-14.92 13.34-23 .34 2.11.5 4.26.61 6.42l2.3-.06c1.31-2.57 1.77-5.46 2.06-8.29.12-3.15-2.45-5.41-4.72-7.13 4.1 1.89 7.43 5.06 11.31 7.35 10.83 7.42 23.65 10.94 36.11 14.55 7.91 1.76 16 2.96 24.12 2.73 8.04-.18 16.12.48 24.11-.66 14.46-1.84 28.73-6.07 41.44-13.29a81 81 0 0 0 28.56-27.5c6.59-11.37 11.38-23.92 13.03-37 2.67-19.17.23-38.65-4.83-57.22 5.55 1.9 12.51.4 15.74-4.76 3.16-5.89 2.71-12.78 3.69-19.19.79-4.78-.75-9.62-2.87-13.84-2.02-4-6.25-6.54-10.64-6.96-13.77-.68-27.5.79-41.21 1.91-17.68 1.52-35.43 1.98-53.12 3.35-6.54.29-13.07.91-19.63.67-5.04-4.44-11.42-7.92-18.32-7.56-6.81-.18-13.02 3.15-18.48 6.89-10.86.33-21.73 1.16-32.61 1.22-8.03.69-16.39 1.01-23.83 4.46a17.1 17.1 0 0 0-9.67 16.58c-9.1-3.88-18.67-7.11-28.68-7.16-3.01-10.02-8.81-20.08-18.62-24.68-10.01-4.79-22.08-1.85-30.68 4.54-1.69 1-3.13 2.97-5.3 2.72-17.58.3-35.01-2.32-52.45-4.14 7.41-15.31 15.83-30.23 26.15-43.77 8.03-1.16 16.04-2.83 24.19-2.66 8.7-.9 17.45-.08 26.16-.65-1.21-3.29-5.29-3.67-8.17-4.72-11.02-2.51-22.44-3.82-33.73-3.11 8.75-11.41 19.02-21.48 29.06-31.73 3.1-.16 5.5-2.24 7.74-4.15 7-6.72 14.24-13.2 20.51-20.63 4.02-4.79 8.63-9.05 12.52-13.94zm116.75 75.81c-3.36.68-6.84 1.74-9.45 4.05-1.06 1.04-.77 2.57.58 3.2 12.68.33 25.45.98 37.92 3.54 14.46 3.67 28.38 9.93 40.02 19.37 2.77 2.51 5.07 5.48 7.86 7.99 2.19-2.42-.32-5.11-1.66-7.19-3.15-3.95-4.94-8.94-8.89-12.24-3.96-3.4-8.34-6.25-12.62-9.2-15.8-10.11-35.51-12.35-53.76-9.52"/><path d="M30.29 835.52c3.12-3.51 8.32-2.88 12.54-2.66 4.3.59 8.67.39 12.96 1.12 8.32 1.28 16.78 1.27 25.08 2.68 7.01 1.16 14.09 1.96 21.02 3.53 18.94 2.56 38.06 3.27 57.1 4.7 16.74 1.23 33.84.76 50.14 5.33 5.63 1.3 10.71 6.02 11.85 11.71-3.36-2.92-5.73-7.14-10.09-8.74-7.3-2.66-15.13-3.14-22.8-3.82-20.67-1.65-41.33-3.4-61.96-5.5-8.77-.4-17.46-1.69-26.11-3.15-9.7-.82-19.27-2.65-28.94-3.74-9.04-1.01-18.13-1.86-27.07-3.64-4.67.32-9.71-.77-13.72 2.18m418.76 13.28c12.62-1 25.3-1.74 37.94-.8-16.48 3.05-33.31 3.41-50.01 4.03-28.94 2.21-57.98.2-86.95 1.34-11.38.02-22.72 1.21-34.09 1.41-10.28-.28-21.22.41-30.24 5.85-2.39 1.35-2.94 4.69-5.59 5.59-.32-5.36 5.52-8.35 9.93-9.69 17.42-3.74 35.3-4.05 53.03-5 18.95-1.15 37.97.21 56.93-.96 16.37.12 32.72-.76 49.05-1.77M28.31 853c1.61-3.28 5.9-3.29 8.89-2.19 1.75.78 4.73.41 5.42 2.61.71 1.39-.7 2.26-1.55 3.07-4.11-1.78-9.82.53-12.76-3.49m450.14 9.66c2.85-.56 5.75-1.24 8.67-1.11 2.49.41 3 4.27.68 5.33a20 20 0 0 1-7.95 1.01c-1.51-.28-3.77-.86-3.68-2.8-.21-1.33 1.15-2.21 2.28-2.43m-350.31.25c7.6.7 15.32.66 22.77 2.52a247 247 0 0 1 19.61 5.93c-9.66 18.62-15.19 39.59-14.54 60.63.27 14.1 4.11 29.23 14.82 39.1-10.67 7.31-22.93 12.96-35.96 13.94-7.9-9.43-10.04-22.13-10.87-34.04-.92-7.73.65-15.43 1.79-23.05.28-2.02-1.39-3.4-2.88-4.39q3.12-11.26 6.03-22.56c.84-3.89 1.58-9.13-2.16-11.77-2.34-1.84-5.41-.97-7.72.46 3.03-8.93 5.46-18.06 9.11-26.77m108.4 4.68c4.11-2.05 8.85-1.8 13.29-1.36 6.38 1.11 12.77 2.64 18.62 5.49-6.27-.43-12.37-2.07-18.55-3.15-5.69-.48-11.57.02-16.96 2.03.23-1.87 2.19-2.3 3.6-3.01m153.75 4.93c12.3.55 24.6 1.1 36.87 2.2 8.49.63 17.11 2.87 23.94 8.16 3.57 3.35 4.97 8.29 5.85 12.98.76 4.38 2.27 8.73 1.73 13.25-.36 15.73-.94 31.58-4.06 47.05-2.22 11.17-8.2 21.35-16.02 29.53-11.97 10.34-27.84 15.68-43.57 15.82-3.98-.01-7.97.1-11.94-.26-11.49-.86-23.3-.85-34.25-4.91 10.96-2.56 19.65-10.6 25.88-19.63 9.13-13.38 14.34-29.06 17.46-44.84 3.65-19.58 3.78-40.13-1.89-59.35m122.68-.24c5.92 5.88 9.35 13.64 14.45 20.17 4.84 6.25 8.88 13.1 14.06 19.09 2.83 2.76 5.07 6.05 7.95 8.78l.01 1.05c-2.6-3.29-5.58-6.28-8.41-9.36-5.65-6.45-10.72-13.38-16.11-20.04-2.94-3.8-5.11-8.13-7.96-11.99-1.63-2.39-3.81-4.66-3.99-7.7M59.56 926.01c-4.08-15.47-2.69-31.89-.2-47.51.27 9.85-.45 19.71-.49 29.57-.56 6.02 1.82 11.92.69 17.94m122.73-39.84c5.1-1.04 2.78 7.78-1.16 7.16-3.04-1.62-1.44-5.98 1.16-7.16m175.89 2.97c1.27-.94 3.09.25 3.3 1.68 1.27 4.3-.16 9.17-2.74 12.72-2.47 2.16-4.6-1.01-4.51-3.37-1.34-4.25 1.35-8.01 3.95-11.03m107.21.61c1.44.87 1.13 2.74 1.41 4.18.53 7.04 1.71 14.02 2.22 21.06.36 11.08-.57 22.14-1.35 33.19-.73 9.41-5.29 17.84-9.58 26.04-1.11 1.99-2.32 4.2-4.64 4.96a75 75 0 0 0 11.57-35.19c.33-10.34.56-20.68.78-31.01.05-7.76-1.41-15.5-.41-23.23m-279.03 3.75c3.19-1.8 6.27 1.65 6.86 4.6 2.43 9.06 1.16 18.77-1.4 27.68-1.61 4.6-3.16 9.78-7.24 12.83-2.72 2.13-6.31-.1-7.46-2.87-2.97-6.15-2.78-13.31-1.88-19.92 1.18-8.28 4.2-17.18 11.12-22.32m112.26 21.63c2.13-7.8 6.3-15.24 12.59-20.44-5.57 21.81-6.72 44.98-1.15 66.92-2.54-2.52-3.23-6.24-4.5-9.47-3.74-11.96-7.76-24.31-6.94-37.01m47.72-19.75c1.83-1.64 4.51.14 5.13 2.15 2.78 6.96 2.02 14.69 1.15 21.97-1.21 7.92-2.73 16.17-7.25 22.96-1.4 2.46-5.14 3.79-7.23 1.43-3.17-3.87-3.11-9.24-3.51-13.96.15-9.47 1.48-19.14 5.4-27.84 1.17-2.98 3.74-4.98 6.31-6.71m-102.13 14.37c3.31-.76 7.4-1.72 10.17.88 2.89 2.7 5.88 5.62 7.22 9.45 3.62 10.3 8.1 20.29 13.27 29.91 3.35 6.08 5.91 12.57 9.68 18.42 6.95 11.52 16.3 21.48 27 29.59-3.52-1.07-7.27-2.05-10.95-1.17-2.53.6-5.55 1.53-6.33 4.38 3.35 2.41 7.71.82 11.38 2.35-3.46 3.32-5.68 7.7-9.17 11.01-5.4 5.22-10.41 10.88-16.26 15.63-5.19 4.17-11.33 6.83-17.38 9.49-18.87 8.71-40.48 10.57-60.85 7.31-1.66-.51-3.28-1.17-4.9-1.74 7.96-1.95 17.78-3.65 21.24-12.25 1.99-4.07 5.2-7.56 6.19-12.08 4.93-14.47-7.03-32.37-22.55-32.33-5.66.66-11.41.68-16.96 2.13 3.66-2.96 7.55-5.6 11.28-8.45 10.71-9.25 19.93-20.04 29.43-30.48 6.69-8.14 14.1-16.5 16.74-26.96l-1.65-.41a144 144 0 0 1-13.09 18.72c-.98.97-.95 3.17-2.41 3.48-.34-1.22.88-2.06 1.45-2.95 7.96-10.1 12.06-22.43 17.45-33.93"/><path d="M208.15 933.86c1.95-2.66 1.67-6.22 3.81-8.74-.19 2.66-1.49 5.03-2.14 7.58-1.95 8.24-7.3 15.07-12.71 21.35-7.99 9.86-18.69 17.03-29.5 23.45-3.61 2.27-7.62 3.81-11.67 5.1 14.89-7.85 29-17.73 39.99-30.62a54 54 0 0 0 12.22-18.12m84.74-1.47a27 27 0 0 1-.4-5.85c.81 3.79 1.31 7.66 2.47 11.38 4.99 15.96 10.41 32.58 22.13 45.01 9.81 10.67 23.67 16.89 37.81 19.27 10.54 1.53 20.95 3.81 31.52 5.16-6.14.48-12.24-.67-18.37-.59a81 81 0 0 1-23.15-3.39c-8.52-2.38-17.01-5.71-23.8-11.54-4.32-3.3-7.76-7.54-10.99-11.87-4.96-6.66-7.6-14.64-10.82-22.2-3.4-8.11-4.41-16.89-6.4-25.38M62.44 944.95c-.77-3.26-.29-6.64.08-9.91.58 4.13 1.32 8.3 3.09 12.12 4.75 10.3 10.36 20.63 19.06 28.14 5.46 3.91 11.75 6.56 18.18 8.43 6.87 2.08 14.16 2.27 20.99 4.55-5.64-.23-11.26-.82-16.91-.84-11.62-1.33-22.88-6.85-30.39-15.92a61 61 0 0 1-14.1-26.57m106.22 45.84c6.19-3.53 11.55-8.3 16.6-13.27 2.39.3 4.81.24 7.22.11-6.05 4.94-12.54 9.31-18.62 14.23-2.47 1.94-4.27 4.85-7.43 5.78a23 23 0 0 0-8.07 4.7 242 242 0 0 0-7.51-3.87c6.12-2.1 12.21-4.41 17.81-7.68m7.28 170.63c34.11 10.83 69.91 14.94 105.51 17.06-1.34 4.75-.5 9.66.02 14.47-2.92 1.56-5.54 3.66-8.66 4.83-6.42 2.54-9.39 9.71-9.88 16.17-.78 6.09.91 13.57 6.91 16.48 5.33 2.29 11.3 1.74 16.97 1.94-7.85 6.8-14.59 15.38-17.43 25.54-1.97 1.07-4.38 1.82-5.56 3.89-1.46 2.38-1.21 5.29-1.4 7.98-2.99-.77-7.07-1.52-8.7 1.91-1.7 5.6-1.43 11.6-2.72 17.31a174 174 0 0 1-16.4-18.6c-2.37-3.05-3.84-6.73-6.42-9.6-1.66-1.79-4.94-.24-4.57 2.18.43 8.73.7 17.47 1.22 26.19-8.45-9.1-12.83-20.89-18.13-31.9-.8-2.69-5.06-4.13-6.23-.99a129 129 0 0 1-8.17 22.28c-9.15-15.99-15.66-34.03-15.82-52.62-.12-2-.23-4.21-1.65-5.75-3.37-3.73-8.5-5.45-11.53-9.5-2.42-4.14-1.13-9.19-.14-13.56 3.46-12.18 9.33-23.54 12.78-35.71m169.21 17.3c11.37-.33 22.7-1.27 34.03-2.09 1.36 2.78 5.07 3.11 6.27 5.99 3.92 7.7 6.7 16.17 6.69 24.89-2.67.02-5.4-.27-8.02.37-1.71.81-2.49 3.06-1.77 4.81 1.45 4.47 3.86 8.59 4.81 13.24-5.68.16-12.56-2.62-17.18 1.89l-.29.22c-3.3-4.71-8.2-8.55-13.99-9.45 2.18-4.45 3.17-9.63 1.93-14.49-1.04-4.53-4.62-8.9-9.54-9.09.43-5.53.36-11.56-2.94-16.29"/></g><path fill="#14110e" fill-opacity=".4" d="M397.26 727.19q.78.84 0 0"/><path fill="#606060" d="m435.26 767.94 2.55 1.08c6.75 3.43 14.58 5.06 20.01 10.73-1.4 1.56-2.72 3.2-4.05 4.83l-.09-4.15a72 72 0 0 1-16.98-6.93q-.77-2.78-1.44-5.56m26.94 22.67c3.11 2.33 6.61 4.05 9.95 6.03q-.54 1.12-1.01 2.29c1.41 1.12 2.74 2.4 4.36 3.26 3.29.47 6.63.25 9.95.47-1.92 3.49-4.04 6.87-6.01 10.34-2.12-3.1-4.11-6.29-5.49-9.8l-3.63.09c-1.64-2.6-3.84-4.98-6.88-5.85q-.54-3.44-1.24-6.83m18.9 29.78c3.32.07 6.07-1.87 8.56-3.82.43 2.95-.05 5.91-.67 8.81l-4.27-4.69c-1.22-.11-2.42-.17-3.62-.3m-335.87 248.89c13.48-5.6 28.35-6.98 42.81-5.92 3.48.25 7.12-.27 10.44 1.14-12.2 3.62-24.07 8.52-34.95 15.14-4.46 3.07-9.74 7.25-9.13 13.32-.14 3.39 1.76 6.29 3.73 8.88-8.08 1.33-16.12 5.33-24.43 3.41-2.47-.85-6.85-2.53-5.36-5.89 2.42-5.05 7.81-7.62 11.08-11.97 1.67-2.98-.79-5.75-2.53-7.95q1.31-.98 2.57-2.01-2.85.18-5.68.57c1.51-1.71 2.88-3.54 4.41-5.22 1.82-1.98 4.67-2.42 7.04-3.5"/><path fill="gray" d="m455.39 787.68 2.43-.06a8.3 8.3 0 0 1 4.38 2.99q.7 3.4 1.24 6.83c-2.25-.82-4.82-1.41-6.37-3.38-1.6-1.74-1.4-4.22-1.68-6.38"/><path fill="#878787" d="m470.32 803.29 3.63-.09c1.38 3.51 3.37 6.7 5.49 9.8l-.5 1.3c-3.15-3.45-6.23-6.98-8.62-11.01"/><path fill="#bababa" d="M488.9 826.03c2.48 1.41 5.15 2.53 8.07 2.44-2.59 1.4-7.64 1.58-7.32 5.45-.25-2.64-.61-5.26-.75-7.89"/><path fill="#f7bcbc" d="M765.72 885.32q2.4-.43 4.83-.91c-.54 2.32-.29 5.14-2.15 6.94-1.4 1.45-3.11 2.55-4.69 3.79.63-3.29 1.23-6.57 2.01-9.82"/><path fill="#f08a8a" d="m770.55 884.41.3.43c1.93 3.2 3.73 7.17 1.64 10.8-4.33 8.82-11.69 16.03-20.16 20.94a83 83 0 0 1-3.39-3.95c6.4-3.75 12.38-9.15 14.31-16.57l.46-.92c1.58-1.24 3.29-2.34 4.69-3.79 1.86-1.8 1.61-4.62 2.15-6.94m-48.86 45.85c7.74-6.74 17.38-10.68 25.69-16.61q1.24 1.83 2.47 3.72c-3.94 2.81-8.52 4.48-12.87 6.53-5.05 2.23-9.99 4.75-15.29 6.36m-55.38 46.21 2.61 1.4c-1.95 6.78-1.67 13.9-.26 20.76l-.98.5c-2.17-.39-4.3-.9-6.45-1.31l.01-.15c.4-7.32 1.67-14.64 5.07-21.2m-4.46 23.85c3.41.94 6.33 2.96 9.2 4.97l.03.29c.54 6.68 3 13.12 6.19 18.98a51 51 0 0 1 3.05 10.06c.7 8.82 1.14 17.7-.47 26.46-1.42 8.69-2.89 17.66-7.36 25.4q-4.83-1.33-9.5-3.1a84 84 0 0 0 4.48-43.41l-.02-.11c-1.61-13.22-5.11-26.18-5.6-39.54m-494.13 13.2q.92-1.1 1.88-2.11c.8 3.63 3.61 7.01 7.52 7.32l.21-2.45q.78 1.6 1.54 3.27l5.35-.37c.01-2.4-.16-4.85-1.35-6.98 5.37 1.48 11.01.82 16.42-.05a37 37 0 0 0-4.15 4.12c-.19 1.4-.55 2.94.44 4.17 2.64.98 5.52.87 8.29 1.05 2.63-.95 5.09-2.89 5.96-5.63.63-2.29-1.64-3.56-3.15-4.7 6.22-1.04 12.61 2.55 14.33 8.72-.7 5.86-6.06 9.6-11.17 11.54-6.39 3.02-14.12 3.54-20.54.29-8.58-3.88-18.04-8.85-21.58-18.19m34.61 66.45c.83 1.85 2.65 3.84 1.5 5.98-1.06 2.52-4.07 3.42-6.59 2.91a40 40 0 0 0-2.89-5.69c2.72-.92 5.32-2.13 7.98-3.2m3.32 1.16c2.07-.59 4.12-1.57 6.31-1.51 2.03.51 3.92 1.44 5.83 2.28l.23.1q.23 2.55.49 5.15-3.65.42-7.25 1.15a41 41 0 0 1-5.61-7.17m-14.15 5.36.48-.16c.51 2.26.95 4.99-.76 6.89-1.05 1.14-2.77.62-4.13.86a21 21 0 0 1-2.43-6.14c2.33-.17 4.65-.61 6.84-1.45m470.18-.57a91 91 0 0 1 8.15 3.92 123 123 0 0 1-30.35 24.77l-3.36-2.34c9.39-7.8 20.38-14.82 25.56-26.35m-492.12 6.81c4.24-1.43 8.99-1.21 12.67-4.13l.76 3.12c-1.27 2.53-2.95 6.38-6.46 5.67-2.48-1.26-4.31-3.62-6.97-4.66m-9.77 1.36a69 69 0 0 1 1.91-1.57c1.5.46 3.02.87 4.6.94l.88.14c1.93.91 3.07 2.91 4.41 4.5q-4.06.34-8.03 1.2c-1.95-1.17-3.09-3.11-3.77-5.21m473.96 19.05a60 60 0 0 1 3.01 3.15c-9.1 5.66-18.99 9.96-29.01 13.72 8.08-6.49 17.78-10.56 26-16.87m-315.39 13.43.35-3.75 5.08 1.35q-1.3 2.12-2.55 4.29-1.45-.97-2.88-1.89m8.83 10.11c-1.52-1.93-.37-4.46-.01-6.56q3.02 1.66 6.16 3.15c-.58 1.84-1.12 3.7-1.87 5.49-1.75.99-3.25-.89-4.28-2.08m10.73 1.71c2.74.34 5.47-.11 8.13-.77a29 29 0 0 0-1.79 8.24c-2.14.99-4.19-.08-6.11-.98a47 47 0 0 1-.23-6.49m12.59 2.69c5.93 3.61 12.4-.61 18.31-2.06-1.45 6.12-7.28 11.24-13.75 10.33-3.81-.63-4.7-5.04-4.56-8.27m214.4 44.5c2.38-6.57 4.45-13.47 9.02-18.91a139 139 0 0 0-5.26 21.77zm-509.05 4.36c.52-5.59 2.9-11.08 6.97-15 .64 3.7 1.03 7.43 1.44 11.17.37 3.83 2.7 7.13 3.24 10.92.03 2.36-.83 4.63-1.19 6.96-5.86-1.94-10.72-7.69-10.46-14.05m-14.72 1.83c-1.44-4.4-.24-9.25 2.12-13.09l.76.98a34.5 34.5 0 0 1 5.59 23.38c-3.73-2.9-7.19-6.62-8.47-11.27m254.96 11.53c-9.19-2.48-11.74-15.31-6.47-22.45 1.36 4.11 2.13 8.89 5.54 11.91 4.22 3.07 9.72 1.52 14.45.9q-.57 3.08-1.08 6.21c-3.47 2.8-7.94 4.79-12.44 3.43m268.14-14.83c1.7 1.26 3.99 2.21 4.86 4.27.41 10.41 1.26 20.87-.01 31.26-1.31 12.29-3.68 24.83-10.23 35.52a11 11 0 0 0-3.72-2.64c.29 1.83 1.22 3.43 2.28 4.93-1.88 2.45-3.7 4.98-5.95 7.12-1.51-1.52-1.99-3.71-2.93-5.55-1.24-2.96-3.54-5.23-5.49-7.7l-.18-.27c6.79-10.26 11.77-21.98 13.56-34.19l.03-.24c2.47-.71 5.06-.67 7.28.76-1.71-1.61-3.56-3.07-5.76-3.9 1.77-9.85 4.02-19.62 6.26-29.37m-245.27 20.88c-6.49-2.86-5.56-11.82-2.16-16.74.55 3.09-.73 9.44 4.18 8.99 6.07.83 10.9-4.24 16.9-3.56-1.14 3.65-4.96 4.89-7.57 7.25-3.17 2.51-7.13 5.04-11.35 4.06m-291.35-9.86 3.33-1.02c2.47 1.24 5.36 2.26 6.85 4.79 1.48 2.19.96 4.97 1.18 7.48-3.49-.67-6.97-1.73-9.98-3.65-2.27-1.85-1.38-5.09-1.38-7.6M80.99 1223c-7.26-4.79-5.28-15.74-.26-21.48 1.8 4 .94 9.28 4.47 12.39 3.91 3.44 9.06-.32 13.38-.89-1.42 7.56-10.28 13.65-17.59 9.98m249.75-10.02c.55-3.7 3.45-6.25 5.97-8.72a160 160 0 0 0-.67 9.56c3.1 1.16 6.19.2 9.17-.79l2.95-.29c-1.43 2.88-2.88 5.97-5.69 7.76-4.89 3.71-13.34-1.4-11.73-7.52m-57.5 8.82c-4.56-3.12-5.5-9.55-2.65-14.13 1.06 2.35 1.73 5.18 4 6.72 3.9 2.67 8.88 2.8 13.44 2.58 4.01-.08 7.47-2.65 11.51-2.56-4.74 8.81-17.7 13.73-26.3 7.39m-221.48-1.51c3.62-.5 7.08-1.66 10.54-2.76 1.9-.93 4.23 1.39 3.45 3.31-.69 3.1-2.39 5.98-2.45 9.22.03 3.33 3 5.82 6.01 6.63 3.32 1.04 6.56-1.44 9.88-.81.62 2.31-1.08 4.19-2.25 5.99-1.85 2.48-3.87 5.26-7.04 6.05-4.22 1.41-8.4-.73-12.37-1.94-.69-2.39-2.05-5.02-.88-7.47 1.48-3.53 3.81-6.73 4.54-10.55.58-3.07 2.04-5.88 2.66-8.93-2.78 3.1-4.56 7.44-8.82 8.88a27 27 0 0 1-3.27-7.62m248.75-2.58c7.39-1.71 17.85 1.2 18.99 9.87-3.15-.95-6.63-2.69-9.81-.87-1.24.25-2.86 1.98-3.89.47-2-2.41-4.67-4.05-7.62-5.01a76 76 0 0 0 2.33-4.46m7.79 15.47c3.36-2.55 7.21-4.5 11.52-4.51l-.36.94a38 38 0 0 1-3.26 6.41c3.71 5.79 11.08 6.99 17.12 9.08-5.4 1.45-11.61 1.38-16.14-2.28-3.35-2.78-7.28-5.41-8.88-9.64"/><path fill="#b56868" d="M770.85 884.84c4.57-.15 7.12 4.48 8.55 8.18.51 5.73-2.44 11.16-5.26 15.96-4.39 7.35-11.94 11.98-19.68 15.17.2-2.72-.31-5.47-2.13-7.57 8.47-4.91 15.83-12.12 20.16-20.94 2.09-3.63.29-7.6-1.64-10.8m-21 32.53.21-.13c.84 3.25.3 6.51-1.27 9.46a958 958 0 0 1-24.87 10.1 275 275 0 0 0-3.97-5.89l1.74-.65c5.3-1.61 10.24-4.13 15.29-6.36 4.35-2.05 8.93-3.72 12.87-6.53m-33.03 15.42.7-3.01c.01 3.02 1.43 5.76 2.36 8.58-8.61 4.53-17.62 8.65-24.66 15.57a77 77 0 0 0-5.69-2.29q4.8-3.83 9.89-7.26c4.02-2.85 8.6-5.03 11.82-8.89q2.76-1.39 5.58-2.7m-29.55 20.05.57-.56a23 23 0 0 1 4.97 4.16c-4.51 4.19-7.87 9.35-11.38 14.32a25 25 0 0 0-5.89 6.38 23 23 0 0 0-6.97-2.65c2.15-2.52 3.37-5.62 4.9-8.5 4.65-4.34 9.15-8.82 13.8-13.15m-18.35 25.03a278 278 0 0 1 4.53 2.8c-2.65 6.53-2.41 13.71-1.18 20.54a166 166 0 0 1-5.19-1.77l.6-.31.98-.5c-1.41-6.86-1.69-13.98.26-20.76m2.16 27.71q1.7.8 3.43 1.68c.3 5.86 1.75 11.54 2.76 17.3-3.19-5.86-5.65-12.3-6.19-18.98m-495.74 6.22q3.05.53 5.94 1.61l.26-1.65 1.33.44c1.19 2.13 1.36 4.58 1.35 6.98l-5.35.37q-.76-1.67-1.54-3.27zm23.12 5.65c2.73-1.46 5.47-3.27 8.74-2.78a100 100 0 0 1-3.33 6.82c-2.77-.18-5.65-.07-8.29-1.05-.99-1.23-.63-2.77-.44-4.17 1.05.42 2.07 2.06 3.32 1.18m481.86 17.17c2.88 6.77 4.26 14.07 5.62 21.26 2.12 12.06-1.66 24.32-7.21 34.95a31 31 0 0 0-6.24-4.35c4.47-7.74 5.94-16.71 7.36-25.4 1.61-8.76 1.17-17.64.47-26.46m-10.49 55.22a22 22 0 0 1 5.85 6.08c-4.52 6.56-9.57 13.14-16.67 17.08a214 214 0 0 1-16.32 7.97 17 17 0 0 0-3.21-6.36 123 123 0 0 0 30.35-24.77m-33.07 26.45.14-.09a43 43 0 0 1 1.59 6.78c-19.24 8.98-37.95 20.96-50.17 38.73a27 27 0 0 0-5.97-5.35c4.46-7.2 10.23-13.35 15.63-19.8q3.09-2.25 6.3-4.34l1.33 3.03q.06-1.93.14-3.82l2-1.42c10.02-3.76 19.91-8.06 29.01-13.72m-57.32 39.55c2.35 3.17 4.69 6.39 6.22 10.06-4.91 8.96-7.14 19.13-8 29.23-.96 11.25-1.95 22.53-1.64 33.83.1 14.16-2.5 28.53-9.14 41.14-2.17-3.9-5.34-7.06-8.02-10.58 6.55-10.69 8.92-23.23 10.23-35.52 1.27-10.39.42-20.85.01-31.26 1.89 2.16 3.63 4.44 5.56 6.58a44 44 0 0 0-6.03-10.67l.04-.21c1.1-7.41 2.99-14.65 5.26-21.77 1.9-3.58 3.67-7.22 5.51-10.83m-267.21 88.87c-3.3-2.76-5.24-7.29-3.93-11.53 1.6 4.23 5.53 6.86 8.88 9.64 4.53 3.66 10.74 3.73 16.14 2.28l2.58-.46 2.8.53 2.23 3.22c-8.8 5.79-21.14 3-28.7-3.68m211.71 25.66c8.25-1.85 14.04-8.39 19.11-14.69 1.95 2.47 4.25 4.74 5.49 7.7.94 1.84 1.42 4.03 2.93 5.55 2.25-2.14 4.07-4.67 5.95-7.12 3.29 4.19 5.32 9.71 4.93 15.01-8.05 11.19-21.47 16.84-34.74 18.88 1.25-8.59-1.07-17.21-3.67-25.33m-17.67-.8.23.02c5.36.48 10.73 1.01 16.13 1.09l.43.01c.65 3.75 1.48 7.49 1.86 11.3.52 4.85-1.1 9.56-2.22 14.22-6.03 1.51-12.31.39-18.37-.36.62-7.06-.42-14.08-1.74-21a55 55 0 0 0 3.68-5.28"/><path fill="#fbd4d4" d="M747.05 897.13a53 53 0 0 1 18.67-11.81c-.78 3.25-1.38 6.53-2.01 9.82l-.46.92c-3.79 2.65-8.02 4.6-11.82 7.23-8.69 5.86-15.57 13.96-24.44 19.59-7.75 5.01-15.47 10.51-24.33 13.34 5.87-4.63 11.95-9.01 17.62-13.89 9.37-7.91 17.97-16.66 26.77-25.2m-98.38 71.58c9.42-10.58 23.51-14.33 35.36-21.27l.27.36.64.87c-3.97 3.46-8.29 6.51-12.07 10.19-5.15 4.69-9.56 10.09-14.28 15.18q-1.5.8-2.97 1.62c-5.71 7.36-10.79 15.45-13.67 24.35 1.29 3.11 4.08 5.49 5.24 8.75 3.52 8.47 6.03 17.34 10.15 25.57-2.73.15-5.42.58-8.08 1.13-2.24-10.3-6.47-20.07-8.28-30.48-2.52-12.37-.94-26.51 7.69-36.27m-482.2 35.96c8.65-7.67 20.11-11.87 31.54-12.95a24 24 0 0 1 13.74 4.16c-4.07 1.57-8.47.65-12.7 1.15-5.82.62-11.78 1.36-17.13 3.9-5.23 2.51-10.86 4.4-15.38 8.19q-.02-2.25-.07-4.45m483.92 34.59c2.59-.83 5.2-1.62 7.91-1.97 1.38 8.54 2.14 17.37-.1 25.84-3.11 12.54-9.12 25.56-20.67 32.37a56 56 0 0 0-13.22 10.8 106 106 0 0 1-21 19.19 13.6 13.6 0 0 0-4.85-5.2c7.27-4.69 14.83-8.95 21.83-14.03 9.31-7.24 18.11-15.41 24.55-25.36 4.98-7.67 6.62-16.91 7.17-25.89.32-5.32-1.02-10.51-1.62-15.75m-460.47 32.32c6.64-2.28 14.53-4.48 20.88-.2-2.78 2.2-6.41 2.32-9.79 2.49-9.89.14-19.6 3.76-27.54 9.59-3.2 2.14-6.29 4.59-10.04 5.71l-.8-3.23c7.45-7.39 17.55-11.05 27.29-14.36m142.3 38.64c5.15-3.54 10.64-6.54 16.12-9.52q3.31.98 6.61 2.04c-.15 1.51.55 3.98-1.51 4.49-4.9 1.76-9.99 2.96-14.91 4.68-2.34.47-4.3 1.82-6.29 3.06a50 50 0 0 0-9.53 5.76l-2.38-.35c3.08-4.3 7.57-7.23 11.89-10.16m232.36 40.35c7.4-12 18.34-21.44 30.55-28.33a34 34 0 0 1 6.36 4.74c-5.98 5.91-11.95 11.86-18.93 16.6-13.5 9.04-22.62 23.93-25.49 39.83l-2.94.74c.81-11.78 3.93-23.62 10.45-33.58m-516.31 23.68c2.34-1.28 4.91.28 7.28.68-.46 1.64-.37 3.76-1.67 5.01l-.74.09c-2.97-.91-6.08-.41-9.12-.37l-.76-.98c1.56-1.59 2.94-3.49 5.01-4.43m16.21.05c6.49-1.36 14.51.9 17.14 7.54l-.89 3.37c-2.73-.55-4.8-2.44-7.01-3.97-2.44-1.75-5.54-1.88-8.27-2.9-1.3-.87-.64-2.78-.97-4.04m225.07 6.3c2.74-4.48 8.58-5.28 13.38-5.16 4.78.42 7.66 4.98 8.99 9.15l-1.83-.12c-2.63-1.66-4.97-3.95-8.08-4.69-4.15-1.38-8.28.82-12.46.82m29.52 5.13c2.92-3.46 7.93-3.25 12.01-2.69 4.15.85 5.69 5.11 6.81 8.67-1.32 1.38-1.99 5.31-4.54 3.97-1.53-2.59-.52-7.44-4.33-7.9-1.87-.17-3.71.34-5.55.54-1.95.62-3.01-1.73-4.4-2.59m-291.45 13.76a10.5 10.5 0 0 1 6.39-7.11c1.63-.57 3.8-.26 3.79 1.99a39 39 0 0 1-6.85 4.1zm312.92 1.13c3.04.07 5.92 1.58 7.86 3.9.7 2.69.17 5.51-.24 8.22l-2.95.29c-.2-4.57-2.22-8.66-4.67-12.41"/><g fill="#f6b0b0"><path d="M751.43 903.29c3.8-2.63 8.03-4.58 11.82-7.23-1.93 7.42-7.91 12.82-14.31 16.57l-1.86-1 .3 2.02c-8.31 5.93-17.95 9.87-25.69 16.61l-1.74.65-2.43-1.13-.7 3.01q-2.82 1.31-5.58 2.7c-8.45 2.65-16.09 7.32-23.02 12.75-6.22 4.64-11.55 10.62-14.75 17.75-1.53 2.88-2.75 5.98-4.9 8.5-3.3-.66-6.66-.39-9.98-.45 4.72-5.09 9.13-10.49 14.28-15.18 3.78-3.68 8.1-6.73 12.07-10.19l-.64-.87.04-.47c6.28-3.4 12.3-7.3 18.32-11.11 8.86-2.83 16.58-8.33 24.33-13.34 8.87-5.63 15.75-13.73 24.44-19.59m-109.48 96.72c2.88-8.9 7.96-16.99 13.67-24.35 3.56.19 7.16.14 10.69.81-3.4 6.56-4.67 13.88-5.07 21.2-4.59-.22-9.93-2.63-14.06.26 4.96.25 9.85 1.11 14.67 2.31v.08c.49 13.36 3.99 26.32 5.6 39.54-3.24-2.12-5.84-5.77-10.11-5.53-4.12-8.23-6.63-17.1-10.15-25.57-1.16-3.26-3.95-5.64-5.24-8.75m-430.2-4.13.37-.12c7.49 5.19 10.08 15.46 8.89 24.12-1.72-6.17-8.11-9.76-14.33-8.72-2.5-.04-4.97.38-7.39.99-5.41.87-11.05 1.53-16.42.05l-1.33-.44c-3.78-1.25-8.6-3.96-11.94-.35q-.95 1.02-1.88 2.11-.58-2.22-1.18-4.4c4.52-3.79 10.15-5.68 15.38-8.19 5.35-2.54 11.31-3.28 17.13-3.9 4.23-.5 8.63.42 12.7-1.15m446.49 40.95c3.28.36 6.27 1.76 9.23 3.14a84 84 0 0 1-4.48 43.41 83 83 0 0 0-4.82-1.09c-.44 2.28 2.18 2.59 3.51 3.63-5.18 11.53-16.17 18.55-25.56 26.35-2.87-1.71-5.73-3.65-9.1-4.18a47 47 0 0 0 6.73 5.05c-8.22 6.31-17.92 10.38-26 16.87l-2 1.42q-1.29-2.96-2.44-5.94a106 106 0 0 0 21-19.19 56 56 0 0 1 13.22-10.8c11.55-6.81 17.56-19.83 20.67-32.37 2.24-8.47 1.48-17.3.1-25.84zm-447.44 34.55.15-.09a19.7 19.7 0 0 1 6.84 10.61c-1.91-.84-3.8-1.77-5.83-2.28-2.19-.06-4.24.92-6.31 1.51-1.46-1.97-2.43-4.8-5.15-5.28a93 93 0 0 0 1.83 4.12c-2.66 1.07-5.26 2.28-7.98 3.2-2.81-1.91-3.61 1.09-2.85 3.32a24 24 0 0 1-6.84 1.45l-.84-2.68c-1.45.52-1.32 2.12-1.59 3.34-3.68 2.92-8.43 2.7-12.67 4.13q-2.33-.13-4.63-.45l1.42 1.01-.05.17c-1.58-.07-3.1-.48-4.6-.94a69 69 0 0 0-1.91 1.57c-.13-3.03.8-5.91 2.84-8.15l.8 3.23c3.75-1.12 6.84-3.57 10.04-5.71 7.94-5.83 17.65-9.45 27.54-9.59 3.38-.17 7.01-.29 9.79-2.49m19.26 5.75c7.96-4.3 18.79-7.69 26.73-1.62-4.76 2.81-10.08 5.2-15.72 5.09-3.94-.02-7.59-1.68-11.01-3.47m124.89 25.61 1.44.84c4.52 2.67 9.42 5.33 12.21 9.99 1.77 2.96 3.64 5.99 4.44 9.39.32 3.26.25 6.56.33 9.85-2.13-.21-1.21-4.35-1.97-6.1-1.49 3.9-1.13 8.32-2.58 12.31-5.91 1.45-12.38 5.67-18.31 2.06 1.21-4.56 3.06-8.94 3.79-13.61l-2.2.35c-2.65 2.81-4.32 6.38-6.05 9.8-2.66.66-5.39 1.11-8.13.77a52 52 0 0 1 5.62-11.94c1.3-2.17 3.05-4.26 3.12-6.9-6.46 2-10.21 8.16-13.32 13.72q-3.14-1.49-6.16-3.15c2.39-5.52 6.54-9.99 10.65-14.27 1.33-1 1.49-2.55.7-3.94 4.92-1.72 10.01-2.92 14.91-4.68 2.06-.51 1.36-2.98 1.51-4.49m246.54 24.24q1.45 2.58 2.79 5.24-3.21 2.09-6.3 4.34a55 55 0 0 0-18.11 17.94 63 63 0 0 0-4.61-3.24q2.04 2.32 4.18 4.58c-1.84 3.61-3.61 7.25-5.51 10.83-4.57 5.44-6.64 12.34-9.02 18.91a19 19 0 0 0-7.84-2.17c2.87-15.9 11.99-30.79 25.49-39.83 6.98-4.74 12.95-10.69 18.93-16.6m-538.66 47.96 1.65-.64c.33 1.26-.33 3.17.97 4.04 2.73 1.02 5.83 1.15 8.27 2.9 2.21 1.53 4.28 3.42 7.01 3.97l.89-3.37c2.13 4.87 2.71 10.23 3.18 15.48-10.6 4.32-14.35 19.4-7.57 28.43 2.76 3.54 7.39 4.25 11.58 4.55 3.41 6.2 4.81 14.07 1.25 20.53-1.53 3.13-4.72 4.91-7.98 5.77-9.28 3.12-20.73-1.38-24.55-10.62 3.97 1.21 8.15 3.35 12.37 1.94 3.17-.79 5.19-3.57 7.04-6.05 1.17-1.8 2.87-3.68 2.25-5.99-3.32-.63-6.56 1.85-9.88.81-3.01-.81-5.98-3.3-6.01-6.63.06-3.24 1.76-6.12 2.45-9.22.78-1.92-1.55-4.24-3.45-3.31-3.46 1.1-6.92 2.26-10.54 2.76-.91-2.56-1.68-5.45-3.98-7.13-2.49-1.94-5.77-2.24-8.8-2.42-.22-2.51.3-5.29-1.18-7.48-1.49-2.53-4.38-3.55-6.85-4.79a39 39 0 0 0 6.85-4.1l.19-.14c2.83 4.53 7.33 7.58 11.51 10.76q.03-1 .11-1.95a34.5 34.5 0 0 0-5.59-23.38c3.04-.04 6.15-.54 9.12.37l.31.71c0 2.78-.84 5.49-.72 8.3.22 7.64 5.75 15.45 13.7 16.32l-.11-1.37c.36-2.33 1.22-4.6 1.19-6.96-.54-3.79-2.87-7.09-3.24-10.92-.41-3.74-.8-7.47-1.44-11.17m226.72 5.66c4.18 0 8.31-2.2 12.46-.82 3.11.74 5.45 3.03 8.08 4.69l1.83.12.22.01.53 3.45a68 68 0 0 0-2.75 5.56l-.3.05c-4.73.62-10.23 2.17-14.45-.9-3.41-3.02-4.18-7.8-5.54-11.91zm27.26 12.01c.68-2.33 1.52-4.59 2.26-6.88 1.39.86 2.45 3.21 4.4 2.59 1.84-.2 3.68-.71 5.55-.54 3.81.46 2.8 5.31 4.33 7.9 2.55 1.34 3.22-2.59 4.54-3.97a13 13 0 0 1 0 6.33c-6-.68-10.83 4.39-16.9 3.56-4.91.45-3.63-5.9-4.18-8.99m237.18-4.7a19.3 19.3 0 0 1 10.25.56c-2.24 9.75-4.49 19.52-6.26 29.37l-3.98.22q.02-15.07-.01-30.15"/><path d="M80.73 1201.52c3.63-2.11 7.92-4.23 12.17-2.6 4.53 3.02 5.94 8.94 5.68 14.1-4.32.57-9.47 4.33-13.38.89-3.53-3.11-2.67-8.39-4.47-12.39m189.86 6.15c3.1-4.53 8.52-5.98 13.5-7.44 3.63 3.45 7.47 7.57 12.87 7.95 4.63.84 8.26-2.49 12.21-4.19 1.13 4.17 3.73 8.29 7.85 10.02 3.34 1.29 7.01.23 9.82-1.78-1.3 5.1-.13 11.43 5.05 13.88 4.09 2.69 9.18 1.43 12.99-1.07 3.49 4.33 5 10.9 2.25 15.93a71 71 0 0 1-11.23 3.67l-2.58.46c-6.04-2.09-13.41-3.29-17.12-9.08a38 38 0 0 0 3.26-6.41l2.57-.46q-1.21-.62-2.41-1.18l-.12-.39c-1.14-8.67-11.6-11.58-18.99-9.87q.31-1.77.66-3.48l-1.63.18c-4.04-.09-7.5 2.48-11.51 2.56-4.56.22-9.54.09-13.44-2.58-2.27-1.54-2.94-4.37-4-6.72m66.12-3.41a333 333 0 0 0 3.83-3.64c2.45 3.75 4.47 7.84 4.67 12.41-2.98.99-6.07 1.95-9.17.79q.2-4.8.67-9.56m216.83 19.79q-.17-2.9 2.89-2.83c-1.79 12.21-6.77 23.93-13.56 34.19-.86-1.5-1.62-3.05-2.38-4.57a42.7 42.7 0 0 0 13.05-26.79"/></g><path fill="#625c57" d="M291.1 921.26q1.95.35.71 2.25-1.96-.39-.71-2.25"/><path fill="#b98585" d="M688.22 948.24c6.93-5.43 14.57-10.1 23.02-12.75-3.22 3.86-7.8 6.04-11.82 8.89q-5.1 3.43-9.89 7.26-1.68-.12-3.33-.2l1.07 1.4c-4.65 4.33-9.15 8.81-13.8 13.15 3.2-7.13 8.53-13.11 14.75-17.75m-14.77 32.43q1.5 1.63 2.96 3.34a84 84 0 0 0-2.08 18.7l-2.06-1.5c-1.23-6.83-1.47-14.01 1.18-20.54m-446.48 94.24c6.67-6.09 15.92-9.52 24.96-8.35 3.42.46 6.24 2.74 8.05 5.61q-1.6 1.66-3.19 3.34c-7.94-6.07-18.77-2.68-26.73 1.62-1.03-.75-2.07-1.52-3.09-2.22m285.93 182.02c9.54 2.59 19.58-.9 27.59-6.09.76 1.52 1.52 3.07 2.38 4.57l.18.27c-5.07 6.3-10.86 12.84-19.11 14.69l-1.43-3.46.12 3.77c-5.4-.08-10.77-.61-16.13-1.09 2.19-4.19 4.48-8.34 6.4-12.66"/><path fill="#1e1a15" fill-opacity=".58" d="M310.05 962.07c3.27.02-1.4 3.09 0 0"/><path fill="#ad7b7a" d="M675.54 977.14a25 25 0 0 1 5.89-6.38c-1.07 2.82-2.36 5.56-3.6 8.33z"/><path fill="#1f1a16" fill-opacity=".61" d="M451.27 1041.29q.78.78 0 0"/><path fill="#acacac" d="M133.78 1078q2.83-.39 5.68-.57-1.25 1.03-2.57 2.01l-1.68.9-4.35-.2.82-1.79z"/><path fill="#ab6463" d="M211.26 1088.3q3.6-.72 7.25-1.15c-1.47 2.85-4.94 3.26-7.25 1.15"/><path fill="#9e605f" d="M163.56 1099.3q3.97-.86 8.03-1.2l.76-.07c-1.15 3.48-6.36 3.53-8.79 1.27"/><path fill="#463232" d="M356.39 1103.58c1.79-.13 3.7-.32 5.34.65a31.5 31.5 0 0 1 12.19 10.77c3.34 5.37 4.19 13.09-.05 18.22l-.5-.41c-.08-3.29-.01-6.59-.33-9.85-.8-3.4-2.67-6.43-4.44-9.39-2.79-4.66-7.69-7.32-12.21-9.99"/><path fill="#e9a7a6" d="M322.71 1120.73a50 50 0 0 1 9.53-5.76c-2.9 2.99-6.03 5.78-8.45 9.2l-5.08-1.35 1.44-2.46.18.02z"/><path fill="#bae1ee" d="M509.98 1121.94c1.87-2 4.23-3.85 7.07-4 4.25.82 6.87 5.98 4.67 9.86l-.5-.06c-3.21-.27-6.52-1.05-9.71-.29-3.48 1.14-6.67 3-10.04 4.42l-2.32-1.87c3.83-2.37 7.67-4.81 10.83-8.06"/><path fill="#17130f" fill-opacity=".44" d="m154.66 1126.76.31-.32z"/><path fill="#bb8585" d="M579.87 1154.5a55 55 0 0 1 18.11-17.94c-5.4 6.45-11.17 12.6-15.63 19.8z"/><path fill="#b4b4b4" d="M459.16 1148.75q.69-1 1.51-1.86c1.11.02 2.96.66 3.12 1.89a7.2 7.2 0 0 1-4.63-.03"/><path fill="#b48180" d="M335.9 1244.64a71 71 0 0 0 11.23-3.67c-.91 3.28-3.84 5.23-6.2 7.42l-2.23-3.22z"/></svg>