<svg height="512pt" viewBox="0 0 512 512" width="512pt" xmlns="http://www.w3.org/2000/svg"><path d="M455.813 511.66H56.18c-10.47 0-18.953-8.484-18.953-18.953v-305.59H474.77v305.59c0 10.469-8.489 18.953-18.957 18.953zm0 0" fill="#ffc73b"/><path d="M37.227 187.117H474.77v63.59H37.227zm0 0" fill="#efb025"/><path d="M512 120.824v78.781c0 8.415-6.828 15.23-15.242 15.23H15.23c-8.414 0-15.23-6.815-15.23-15.23v-78.78c0-8.415 6.816-15.231 15.23-15.231h481.528c8.414 0 15.242 6.816 15.242 15.23zm0 0" fill="#ffc73b"/><path d="M238.594 141.813a457.06 457.06 0 00-9.77 11.765 441.723 441.723 0 00-32.539 46.285 455.11 455.11 0 00-8.762 14.973H83.683a534.603 534.603 0 0119.926-40.484 535.69 535.69 0 0144.649-68.758 537.045 537.045 0 0112.23-15.418c2.5-3.055 5.043-6.067 7.621-9.067l28.426 24.485c1.469 1.258 2.938 2.531 4.403 3.793 11.187 9.633 22.375 19.261 33.558 28.906 1.371 1.164 2.73 2.348 4.098 3.52zm0 0M393.527 214.836H289.68a435.15 435.15 0 00-8.762-14.973 443.478 443.478 0 00-32.54-46.285 474.393 474.393 0 00-9.784-11.766c1.37-1.171 2.73-2.347 4.101-3.519 11.196-9.645 22.383-19.285 33.567-28.906 1.468-1.262 2.937-2.535 4.406-3.793 9.477-8.164 18.957-16.32 28.426-24.485a491.79 491.79 0 017.62 9.059 514.988 514.988 0 0112.231 15.426 536.583 536.583 0 0144.657 68.758 534.602 534.602 0 0119.925 40.484zm0 0" fill="#efb025"/><g fill="#ff4440"><path d="M255.992 141.82a442.767 442.767 0 00-9.773 11.762 441.945 441.945 0 00-32.54 46.29 444.229 444.229 0 00-60.593 167.41c-13.121-17.403-25.23-36.231-36.125-56.364-19.164 12.5-37.895 26.797-55.93 42.883a537.293 537.293 0 0159.977-179.446 536.07 536.07 0 0156.875-84.175 505.65 505.65 0 017.62-9.067c10.946 9.426 21.884 18.852 32.833 28.278 11.184 9.632 22.371 19.261 33.559 28.906 1.367 1.164 2.726 2.348 4.097 3.523zm0 0M450.96 353.8c-18.034-16.085-36.765-30.382-55.929-42.882-10.894 20.133-23.004 38.96-36.125 56.363a444.162 444.162 0 00-60.594-167.41 443.114 443.114 0 00-32.539-46.289 475.516 475.516 0 00-9.78-11.762c1.366-1.175 2.726-2.351 4.097-3.523 11.195-9.645 22.383-19.285 33.57-28.906 10.945-9.438 21.895-18.852 32.828-28.278a491.794 491.794 0 017.621 9.059 536.115 536.115 0 0156.887 84.183 537.448 537.448 0 0159.965 179.446zm0 0"/><path d="M215.234 141.82h81.528v73.016h-81.528zm0 0"/></g><path d="M390.996 174.355l-92.683 25.516a443.114 443.114 0 00-32.54-46.289l-5.683-15.285-4.098-11.024 37.668-17.882 40.45-19.22a536.115 536.115 0 0156.886 84.184zm0 0" fill="#ea2f2f"/><path d="M255.992 127.273l-4.097 11.024-5.676 15.285a441.945 441.945 0 00-32.54 46.29l-92.671-25.517a536.07 536.07 0 0156.875-84.175l40.453 19.21zm0 0" fill="#ea2f2f"/><path d="M403.914 3.543L255.996 73.789l28.414 76.418 157.883-43.457c20.648-5.684 31.992-27.844 24.527-47.918l-13.03-35.039c-7.462-20.074-30.528-29.438-49.876-20.25zm0 0M108.078 3.543l147.918 70.246-28.414 76.418L69.703 106.75c-20.648-5.684-31.992-27.844-24.527-47.918l13.027-35.039C65.668 3.719 88.73-5.645 108.078 3.543zm0 0" fill="#ff4440"/><path d="M291.316 104.5a8.138 8.138 0 01-6.875-3.762 8.149 8.149 0 012.473-11.258c1.121-.714 27.762-17.668 58.348-30.039 44.093-17.836 73.539-16.879 87.508 2.844a8.15 8.15 0 01-1.942 11.367 8.15 8.15 0 01-11.363-1.941c-18.938-26.734-97.676 14.836-123.766 31.508a8.124 8.124 0 01-4.383 1.281zm0 0M219.871 104.5a8.124 8.124 0 01-4.383-1.281C189.398 86.547 110.66 44.977 91.723 71.71a8.155 8.155 0 01-11.368 1.941 8.154 8.154 0 01-1.937-11.367c13.969-19.722 43.41-20.68 87.508-2.844 30.586 12.368 57.226 29.325 58.347 30.04a8.153 8.153 0 012.477 11.257 8.155 8.155 0 01-6.879 3.762zm0 0" fill="#ea2f2f"/><path d="M279.191 47.523h-46.39c-12.696 0-22.989 10.293-22.989 22.993v67.394c0 12.7 10.293 22.992 22.989 22.992h46.39c12.696 0 22.989-10.293 22.989-22.992V70.516c0-12.7-10.293-22.993-22.989-22.993zm0 0" fill="#ea2f2f"/><path d="M215.234 214.836h81.528V511.66h-81.528zm0 0" fill="#ff4440"/><path d="M215.234 214.836h81.528v35.871h-81.528zm0 0" fill="#ea2f2f"/></svg>